<svg width="572" height="230" viewBox="0 0 572 230" fill="none" xmlns="http://www.w3.org/2000/svg">
<path d="M3.60325 23.5426C3.16433 23.5426 2.77654 23.4648 2.4399 23.3093C2.10538 23.1516 1.84437 22.9354 1.65687 22.6605C1.46937 22.3835 1.37669 22.0682 1.37882 21.7145C1.37669 21.4375 1.43102 21.1818 1.54181 20.9474C1.65261 20.7109 1.80389 20.5138 1.99565 20.3562C2.18954 20.1964 2.40581 20.0952 2.64444 20.0526V20.0142C2.33123 19.9332 2.08194 19.7575 1.89657 19.4869C1.7112 19.2141 1.61958 18.9041 1.62172 18.5568C1.61958 18.2244 1.70375 17.9272 1.8742 17.6651C2.04466 17.4031 2.27903 17.1964 2.57733 17.0451C2.87775 16.8938 3.21973 16.8182 3.60325 16.8182C3.98251 16.8182 4.32129 16.8938 4.61958 17.0451C4.91788 17.1964 5.15226 17.4031 5.32271 17.6651C5.49529 17.9272 5.58265 18.2244 5.58478 18.5568C5.58265 18.9041 5.48784 19.2141 5.30034 19.4869C5.11497 19.7575 4.86887 19.9332 4.56206 20.0142V20.0526C4.79856 20.0952 5.01163 20.1964 5.20126 20.3562C5.39089 20.5138 5.54217 20.7109 5.6551 20.9474C5.76802 21.1818 5.82555 21.4375 5.82768 21.7145C5.82555 22.0682 5.72967 22.3835 5.54004 22.6605C5.35254 22.9354 5.09153 23.1516 4.75701 23.3093C4.42463 23.4648 4.04004 23.5426 3.60325 23.5426ZM3.60325 22.8395C3.89941 22.8395 4.1551 22.7915 4.37029 22.6957C4.58549 22.5998 4.75169 22.4645 4.86887 22.2898C4.98606 22.1151 5.04572 21.9105 5.04785 21.6761C5.04572 21.429 4.9818 21.2106 4.85609 21.021C4.73038 20.8313 4.55886 20.6822 4.34153 20.5735C4.12633 20.4648 3.88024 20.4105 3.60325 20.4105C3.32413 20.4105 3.07484 20.4648 2.85538 20.5735C2.63805 20.6822 2.46653 20.8313 2.34082 21.021C2.21724 21.2106 2.15652 21.429 2.15865 21.6761C2.15652 21.9105 2.21298 22.1151 2.32804 22.2898C2.44522 22.4645 2.61248 22.5998 2.82981 22.6957C3.04714 22.7915 3.30495 22.8395 3.60325 22.8395ZM3.60325 19.733C3.83762 19.733 4.04537 19.6861 4.22647 19.5923C4.40971 19.4986 4.55353 19.3675 4.65794 19.1992C4.76234 19.0309 4.81561 18.8338 4.81774 18.608C4.81561 18.3864 4.76341 18.1935 4.66113 18.0295C4.55886 17.8633 4.41717 17.7354 4.23606 17.646C4.05495 17.5543 3.84402 17.5085 3.60325 17.5085C3.35822 17.5085 3.14409 17.5543 2.96085 17.646C2.77761 17.7354 2.63592 17.8633 2.53578 18.0295C2.43564 18.1935 2.38663 18.3864 2.38876 18.608C2.38663 18.8338 2.4367 19.0309 2.53897 19.1992C2.64338 19.3675 2.7872 19.4986 2.97044 19.5923C3.15368 19.6861 3.36461 19.733 3.60325 19.733ZM9.1875 23.5426C8.70597 23.5426 8.29581 23.4116 7.95703 23.1495C7.61825 22.8853 7.35938 22.5028 7.1804 22.0021C7.00142 21.4993 6.91193 20.892 6.91193 20.1804C6.91193 19.473 7.00142 18.869 7.1804 18.3683C7.36151 17.8654 7.62145 17.4819 7.96023 17.2177C8.30114 16.9513 8.71023 16.8182 9.1875 16.8182C9.66477 16.8182 10.0728 16.9513 10.4116 17.2177C10.7525 17.4819 11.0124 17.8654 11.1914 18.3683C11.3725 18.869 11.4631 19.473 11.4631 20.1804C11.4631 20.892 11.3736 21.4993 11.1946 22.0021C11.0156 22.5028 10.7567 22.8853 10.418 23.1495C10.0792 23.4116 9.66903 23.5426 9.1875 23.5426ZM9.1875 22.8395C9.66477 22.8395 10.0355 22.6094 10.2997 22.1491C10.5639 21.6889 10.696 21.0327 10.696 20.1804C10.696 19.6136 10.6353 19.131 10.5138 18.7326C10.3945 18.3342 10.2219 18.0305 9.99609 17.8217C9.77237 17.6129 9.50284 17.5085 9.1875 17.5085C8.71449 17.5085 8.34482 17.7418 8.07848 18.2085C7.81214 18.6729 7.67898 19.3303 7.67898 20.1804C7.67898 20.7472 7.73864 21.2287 7.85795 21.625C7.97727 22.0213 8.14879 22.3228 8.37251 22.5295C8.59837 22.7362 8.87003 22.8395 9.1875 22.8395ZM2.35281 41.4531L5.28036 35.6619V35.6108H1.90536V34.9077H6.09854V35.6491L3.18377 41.4531H2.35281ZM9.24743 41.5426C8.87243 41.5426 8.53471 41.468 8.23429 41.3189C7.93386 41.1697 7.69309 40.9652 7.51199 40.7053C7.33088 40.4453 7.2318 40.1491 7.21475 39.8168H7.9818C8.01163 40.1129 8.14586 40.358 8.3845 40.5518C8.62527 40.7436 8.91291 40.8395 9.24743 40.8395C9.51589 40.8395 9.75453 40.7766 9.96333 40.6509C10.1743 40.5252 10.3394 40.3526 10.4587 40.1332C10.5802 39.9116 10.6409 39.6612 10.6409 39.3821C10.6409 39.0966 10.578 38.842 10.4523 38.6183C10.3287 38.3924 10.1583 38.2145 9.94096 38.0845C9.72363 37.9545 9.47541 37.8885 9.19629 37.8864C8.996 37.8842 8.79039 37.9151 8.57946 37.979C8.36852 38.0408 8.19487 38.1207 8.0585 38.2188L7.31703 38.1293L7.71333 34.9077H11.1139V35.6108H8.37811L8.14799 37.5412H8.18635C8.32058 37.4347 8.4889 37.3462 8.69132 37.2759C8.89373 37.2056 9.10467 37.1705 9.32413 37.1705C9.7247 37.1705 10.0816 37.2663 10.3948 37.4581C10.7101 37.6477 10.9573 37.9077 11.1363 38.2379C11.3174 38.5682 11.4079 38.9453 11.4079 39.3693C11.4079 39.7869 11.3142 40.1598 11.1267 40.4879C10.9413 40.8139 10.6856 41.0717 10.3596 41.2614C10.0336 41.4489 9.66291 41.5426 9.24743 41.5426ZM2.25613 59.4531L5.18368 53.6619V53.6108H1.80868V52.9077H6.00186V53.6491L3.08709 59.4531H2.25613ZM9.1875 59.5426C8.70597 59.5426 8.29581 59.4116 7.95703 59.1495C7.61825 58.8853 7.35938 58.5028 7.1804 58.0021C7.00142 57.4993 6.91193 56.892 6.91193 56.1804C6.91193 55.473 7.00142 54.869 7.1804 54.3683C7.36151 53.8654 7.62145 53.4819 7.96023 53.2177C8.30114 52.9513 8.71023 52.8182 9.1875 52.8182C9.66477 52.8182 10.0728 52.9513 10.4116 53.2177C10.7525 53.4819 11.0124 53.8654 11.1914 54.3683C11.3725 54.869 11.4631 55.473 11.4631 56.1804C11.4631 56.892 11.3736 57.4993 11.1946 58.0021C11.0156 58.5028 10.7567 58.8853 10.418 59.1495C10.0792 59.4116 9.66903 59.5426 9.1875 59.5426ZM9.1875 58.8395C9.66477 58.8395 10.0355 58.6094 10.2997 58.1491C10.5639 57.6889 10.696 57.0327 10.696 56.1804C10.696 55.6136 10.6353 55.131 10.5138 54.7326C10.3945 54.3342 10.2219 54.0305 9.99609 53.8217C9.77237 53.6129 9.50284 53.5085 9.1875 53.5085C8.71449 53.5085 8.34482 53.7418 8.07848 54.2085C7.81214 54.6729 7.67898 55.3303 7.67898 56.1804C7.67898 56.7472 7.73864 57.2287 7.85795 57.625C7.97727 58.0213 8.14879 58.3228 8.37251 58.5295C8.59837 58.7362 8.87003 58.8395 9.1875 58.8395ZM2.25613 77.4531L5.18368 71.6619V71.6108H1.80868V70.9077H6.00186V71.6491L3.08709 77.4531H2.25613ZM9.1875 77.5426C8.70597 77.5426 8.29581 77.4116 7.95703 77.1495C7.61825 76.8853 7.35938 76.5028 7.1804 76.0021C7.00142 75.4993 6.91193 74.892 6.91193 74.1804C6.91193 73.473 7.00142 72.869 7.1804 72.3683C7.36151 71.8654 7.62145 71.4819 7.96023 71.2177C8.30114 70.9513 8.71023 70.8182 9.1875 70.8182C9.66477 70.8182 10.0728 70.9513 10.4116 71.2177C10.7525 71.4819 11.0124 71.8654 11.1914 72.3683C11.3725 72.869 11.4631 73.473 11.4631 74.1804C11.4631 74.892 11.3736 75.4993 11.1946 76.0021C11.0156 76.5028 10.7567 76.8853 10.418 77.1495C10.0792 77.4116 9.66903 77.5426 9.1875 77.5426ZM9.1875 76.8395C9.66477 76.8395 10.0355 76.6094 10.2997 76.1491C10.5639 75.6889 10.696 75.0327 10.696 74.1804C10.696 73.6136 10.6353 73.131 10.5138 72.7326C10.3945 72.3342 10.2219 72.0305 9.99609 71.8217C9.77237 71.6129 9.50284 71.5085 9.1875 71.5085C8.71449 71.5085 8.34482 71.7418 8.07848 72.2085C7.81214 72.6729 7.67898 73.3303 7.67898 74.1804C7.67898 74.7472 7.73864 75.2287 7.85795 75.625C7.97727 76.0213 8.14879 76.3228 8.37251 76.5295C8.59837 76.7362 8.87003 76.8395 9.1875 76.8395ZM3.75906 95.5426C3.49059 95.5384 3.22212 95.4872 2.95366 95.3892C2.68519 95.2912 2.44016 95.1261 2.21857 94.8938C1.99698 94.6594 1.81907 94.343 1.68484 93.9446C1.5506 93.544 1.48349 93.0412 1.48349 92.4361C1.48349 91.8565 1.53782 91.343 1.64648 90.8956C1.75515 90.446 1.91282 90.0678 2.1195 89.761C2.32617 89.4521 2.57546 89.2177 2.86737 89.0579C3.1614 88.8981 3.49272 88.8182 3.86133 88.8182C4.22781 88.8182 4.5538 88.8917 4.83931 89.0387C5.12695 89.1836 5.36133 89.386 5.54244 89.646C5.72354 89.9059 5.84073 90.2053 5.894 90.544H5.11417C5.04173 90.25 4.9011 90.006 4.69229 89.8121C4.48349 89.6183 4.2065 89.5213 3.86133 89.5213C3.35423 89.5213 2.95472 89.7418 2.66282 90.1829C2.37305 90.6239 2.2271 91.2429 2.22496 92.0398H2.2761C2.39542 91.8587 2.53711 91.7042 2.70117 91.5763C2.86737 91.4464 3.0506 91.3462 3.25089 91.2759C3.45117 91.2056 3.66317 91.1705 3.8869 91.1705C4.2619 91.1705 4.60494 91.2642 4.91602 91.4517C5.2271 91.6371 5.47639 91.8938 5.66389 92.2219C5.85139 92.5479 5.94514 92.9219 5.94514 93.3438C5.94514 93.7486 5.85458 94.1193 5.67347 94.456C5.49237 94.7905 5.23775 95.0568 4.90962 95.255C4.58363 95.451 4.20011 95.5469 3.75906 95.5426ZM3.75906 94.8395C4.02752 94.8395 4.26829 94.7724 4.48136 94.6381C4.69656 94.5039 4.86594 94.3239 4.98952 94.098C5.11523 93.8722 5.17809 93.6207 5.17809 93.3438C5.17809 93.0732 5.11737 92.8271 4.99592 92.6055C4.8766 92.3817 4.71147 92.2038 4.50053 92.0717C4.29173 91.9396 4.05309 91.8736 3.78462 91.8736C3.58221 91.8736 3.39364 91.9141 3.21893 91.995C3.04421 92.0739 2.8908 92.1825 2.7587 92.321C2.62873 92.4595 2.52646 92.6183 2.45188 92.7972C2.37731 92.9741 2.34002 93.1605 2.34002 93.3565C2.34002 93.6165 2.40075 93.8594 2.52219 94.0852C2.64577 94.3111 2.8141 94.4933 3.02717 94.6317C3.24237 94.7702 3.48633 94.8395 3.75906 94.8395ZM9.24743 95.5426C8.87243 95.5426 8.53471 95.468 8.23429 95.3189C7.93386 95.1697 7.69309 94.9652 7.51199 94.7053C7.33088 94.4453 7.2318 94.1491 7.21475 93.8168H7.9818C8.01163 94.1129 8.14586 94.358 8.3845 94.5518C8.62527 94.7436 8.91291 94.8395 9.24743 94.8395C9.51589 94.8395 9.75453 94.7766 9.96333 94.6509C10.1743 94.5252 10.3394 94.3526 10.4587 94.1332C10.5802 93.9116 10.6409 93.6612 10.6409 93.3821C10.6409 93.0966 10.578 92.842 10.4523 92.6183C10.3287 92.3924 10.1583 92.2145 9.94096 92.0845C9.72363 91.9545 9.47541 91.8885 9.19629 91.8864C8.996 91.8842 8.79039 91.9151 8.57946 91.979C8.36852 92.0408 8.19487 92.1207 8.0585 92.2188L7.31703 92.1293L7.71333 88.9077H11.1139V89.6108H8.37811L8.14799 91.5412H8.18635C8.32058 91.4347 8.4889 91.3462 8.69132 91.2759C8.89373 91.2056 9.10467 91.1705 9.32413 91.1705C9.7247 91.1705 10.0816 91.2663 10.3948 91.4581C10.7101 91.6477 10.9573 91.9077 11.1363 92.2379C11.3174 92.5682 11.4079 92.9453 11.4079 93.3693C11.4079 93.7869 11.3142 94.1598 11.1267 94.4879C10.9413 94.8139 10.6856 95.0717 10.3596 95.2614C10.0336 95.4489 9.66291 95.5426 9.24743 95.5426ZM3.60964 113.543C3.34118 113.538 3.07271 113.487 2.80424 113.389C2.53578 113.291 2.29075 113.126 2.06916 112.894C1.84757 112.659 1.66966 112.343 1.53542 111.945C1.40119 111.544 1.33407 111.041 1.33407 110.436C1.33407 109.857 1.38841 109.343 1.49707 108.896C1.60574 108.446 1.76341 108.068 1.97008 107.761C2.17676 107.452 2.42605 107.218 2.71795 107.058C3.01199 106.898 3.34331 106.818 3.71191 106.818C4.07839 106.818 4.40439 106.892 4.6899 107.039C4.97754 107.184 5.21191 107.386 5.39302 107.646C5.57413 107.906 5.69132 108.205 5.74458 108.544H4.96476C4.89231 108.25 4.75169 108.006 4.54288 107.812C4.33407 107.618 4.05708 107.521 3.71191 107.521C3.20481 107.521 2.80531 107.742 2.51341 108.183C2.22363 108.624 2.07768 109.243 2.07555 110.04H2.12669C2.246 109.859 2.3877 109.704 2.55176 109.576C2.71795 109.446 2.90119 109.346 3.10147 109.276C3.30176 109.206 3.51376 109.17 3.73748 109.17C4.11248 109.17 4.45552 109.264 4.7666 109.452C5.07768 109.637 5.32697 109.894 5.51447 110.222C5.70197 110.548 5.79572 110.922 5.79572 111.344C5.79572 111.749 5.70517 112.119 5.52406 112.456C5.34295 112.79 5.08833 113.057 4.76021 113.255C4.43422 113.451 4.05069 113.547 3.60964 113.543ZM3.60964 112.839C3.87811 112.839 4.11887 112.772 4.33194 112.638C4.54714 112.504 4.71653 112.324 4.84011 112.098C4.96582 111.872 5.02868 111.621 5.02868 111.344C5.02868 111.073 4.96795 110.827 4.8465 110.605C4.72718 110.382 4.56206 110.204 4.35112 110.072C4.14231 109.94 3.90368 109.874 3.63521 109.874C3.43279 109.874 3.24423 109.914 3.06951 109.995C2.8948 110.074 2.74139 110.183 2.60929 110.321C2.47931 110.46 2.37704 110.618 2.30247 110.797C2.22789 110.974 2.19061 111.161 2.19061 111.357C2.19061 111.616 2.25133 111.859 2.37278 112.085C2.49636 112.311 2.66468 112.493 2.87775 112.632C3.09295 112.77 3.33691 112.839 3.60964 112.839ZM9.1875 113.543C8.70597 113.543 8.29581 113.412 7.95703 113.15C7.61825 112.885 7.35938 112.503 7.1804 112.002C7.00142 111.499 6.91193 110.892 6.91193 110.18C6.91193 109.473 7.00142 108.869 7.1804 108.368C7.36151 107.865 7.62145 107.482 7.96023 107.218C8.30114 106.951 8.71023 106.818 9.1875 106.818C9.66477 106.818 10.0728 106.951 10.4116 107.218C10.7525 107.482 11.0124 107.865 11.1914 108.368C11.3725 108.869 11.4631 109.473 11.4631 110.18C11.4631 110.892 11.3736 111.499 11.1946 112.002C11.0156 112.503 10.7567 112.885 10.418 113.15C10.0792 113.412 9.66903 113.543 9.1875 113.543ZM9.1875 112.839C9.66477 112.839 10.0355 112.609 10.2997 112.149C10.5639 111.689 10.696 111.033 10.696 110.18C10.696 109.614 10.6353 109.131 10.5138 108.733C10.3945 108.334 10.2219 108.031 9.99609 107.822C9.77237 107.613 9.50284 107.509 9.1875 107.509C8.71449 107.509 8.34482 107.742 8.07848 108.208C7.81214 108.673 7.67898 109.33 7.67898 110.18C7.67898 110.747 7.73864 111.229 7.85795 111.625C7.97727 112.021 8.14879 112.323 8.37251 112.529C8.59837 112.736 8.87003 112.839 9.1875 112.839ZM3.77184 131.543C3.39684 131.543 3.05913 131.468 2.7587 131.319C2.45827 131.17 2.21751 130.965 2.0364 130.705C1.85529 130.445 1.75621 130.149 1.73917 129.817H2.50621C2.53604 130.113 2.67028 130.358 2.90891 130.552C3.14968 130.744 3.43732 130.839 3.77184 130.839C4.04031 130.839 4.27894 130.777 4.48775 130.651C4.69869 130.525 4.86381 130.353 4.98313 130.133C5.10458 129.912 5.16531 129.661 5.16531 129.382C5.16531 129.097 5.10245 128.842 4.97674 128.618C4.85316 128.392 4.68271 128.214 4.46538 128.085C4.24805 127.955 3.99982 127.888 3.7207 127.886C3.52042 127.884 3.31481 127.915 3.10387 127.979C2.89293 128.041 2.71928 128.121 2.58292 128.219L1.84144 128.129L2.23775 124.908H5.63832V125.611H2.90252L2.67241 127.541H2.71076C2.84499 127.435 3.01332 127.346 3.21573 127.276C3.41815 127.206 3.62908 127.17 3.84854 127.17C4.24911 127.17 4.606 127.266 4.91921 127.458C5.23455 127.648 5.48171 127.908 5.66069 128.238C5.8418 128.568 5.93235 128.945 5.93235 129.369C5.93235 129.787 5.8386 130.16 5.6511 130.488C5.46573 130.814 5.21005 131.072 4.88406 131.261C4.55806 131.449 4.18732 131.543 3.77184 131.543ZM9.24743 131.543C8.87243 131.543 8.53471 131.468 8.23429 131.319C7.93386 131.17 7.69309 130.965 7.51199 130.705C7.33088 130.445 7.2318 130.149 7.21475 129.817H7.9818C8.01163 130.113 8.14586 130.358 8.3845 130.552C8.62527 130.744 8.91291 130.839 9.24743 130.839C9.51589 130.839 9.75453 130.777 9.96333 130.651C10.1743 130.525 10.3394 130.353 10.4587 130.133C10.5802 129.912 10.6409 129.661 10.6409 129.382C10.6409 129.097 10.578 128.842 10.4523 128.618C10.3287 128.392 10.1583 128.214 9.94096 128.085C9.72363 127.955 9.47541 127.888 9.19629 127.886C8.996 127.884 8.79039 127.915 8.57946 127.979C8.36852 128.041 8.19487 128.121 8.0585 128.219L7.31703 128.129L7.71333 124.908H11.1139V125.611H8.37811L8.14799 127.541H8.18635C8.32058 127.435 8.4889 127.346 8.69132 127.276C8.89373 127.206 9.10467 127.17 9.32413 127.17C9.7247 127.17 10.0816 127.266 10.3948 127.458C10.7101 127.648 10.9573 127.908 11.1363 128.238C11.3174 128.568 11.4079 128.945 11.4079 129.369C11.4079 129.787 11.3142 130.16 11.1267 130.488C10.9413 130.814 10.6856 131.072 10.3596 131.261C10.0336 131.449 9.66291 131.543 9.24743 131.543ZM3.62243 149.543C3.24743 149.543 2.90971 149.468 2.60929 149.319C2.30886 149.17 2.06809 148.965 1.88699 148.705C1.70588 148.445 1.6068 148.149 1.58975 147.817H2.3568C2.38663 148.113 2.52086 148.358 2.7595 148.552C3.00027 148.744 3.28791 148.839 3.62243 148.839C3.89089 148.839 4.12953 148.777 4.33833 148.651C4.54927 148.525 4.7144 148.353 4.83372 148.133C4.95517 147.912 5.01589 147.661 5.01589 147.382C5.01589 147.097 4.95304 146.842 4.82733 146.618C4.70375 146.392 4.53329 146.214 4.31596 146.085C4.09863 145.955 3.85041 145.888 3.57129 145.886C3.371 145.884 3.16539 145.915 2.95446 145.979C2.74352 146.041 2.56987 146.121 2.4335 146.219L1.69203 146.129L2.08833 142.908H5.4889V143.611H2.75311L2.52299 145.541H2.56135C2.69558 145.435 2.8639 145.346 3.06632 145.276C3.26873 145.206 3.47967 145.17 3.69913 145.17C4.0997 145.17 4.45659 145.266 4.7698 145.458C5.08514 145.648 5.3323 145.908 5.51128 146.238C5.69238 146.568 5.78294 146.945 5.78294 147.369C5.78294 147.787 5.68919 148.16 5.50169 148.488C5.31632 148.814 5.06064 149.072 4.73464 149.261C4.40865 149.449 4.03791 149.543 3.62243 149.543ZM9.1875 149.543C8.70597 149.543 8.29581 149.412 7.95703 149.15C7.61825 148.885 7.35938 148.503 7.1804 148.002C7.00142 147.499 6.91193 146.892 6.91193 146.18C6.91193 145.473 7.00142 144.869 7.1804 144.368C7.36151 143.865 7.62145 143.482 7.96023 143.218C8.30114 142.951 8.71023 142.818 9.1875 142.818C9.66477 142.818 10.0728 142.951 10.4116 143.218C10.7525 143.482 11.0124 143.865 11.1914 144.368C11.3725 144.869 11.4631 145.473 11.4631 146.18C11.4631 146.892 11.3736 147.499 11.1946 148.002C11.0156 148.503 10.7567 148.885 10.418 149.15C10.0792 149.412 9.66903 149.543 9.1875 149.543ZM9.1875 148.839C9.66477 148.839 10.0355 148.609 10.2997 148.149C10.5639 147.689 10.696 147.033 10.696 146.18C10.696 145.614 10.6353 145.131 10.5138 144.733C10.3945 144.334 10.2219 144.031 9.99609 143.822C9.77237 143.613 9.50284 143.509 9.1875 143.509C8.71449 143.509 8.34482 143.742 8.07848 144.208C7.81214 144.673 7.67898 145.33 7.67898 146.18C7.67898 146.747 7.73864 147.229 7.85795 147.625C7.97727 148.021 8.14879 148.323 8.37251 148.529C8.59837 148.736 8.87003 148.839 9.1875 148.839ZM1.27415 166.111V165.459L4.15057 160.908H4.62358V161.918H4.30398L2.13068 165.357V165.408H6.00426V166.111H1.27415ZM4.35511 167.453V165.913V165.609V160.908H5.10938V167.453H4.35511ZM9.24743 167.543C8.87243 167.543 8.53471 167.468 8.23429 167.319C7.93386 167.17 7.69309 166.965 7.51199 166.705C7.33088 166.445 7.2318 166.149 7.21475 165.817H7.9818C8.01163 166.113 8.14586 166.358 8.3845 166.552C8.62527 166.744 8.91291 166.839 9.24743 166.839C9.51589 166.839 9.75453 166.777 9.96333 166.651C10.1743 166.525 10.3394 166.353 10.4587 166.133C10.5802 165.912 10.6409 165.661 10.6409 165.382C10.6409 165.097 10.578 164.842 10.4523 164.618C10.3287 164.392 10.1583 164.214 9.94096 164.085C9.72363 163.955 9.47541 163.888 9.19629 163.886C8.996 163.884 8.79039 163.915 8.57946 163.979C8.36852 164.041 8.19487 164.121 8.0585 164.219L7.31703 164.129L7.71333 160.908H11.1139V161.611H8.37811L8.14799 163.541H8.18635C8.32058 163.435 8.4889 163.346 8.69132 163.276C8.89373 163.206 9.10467 163.17 9.32413 163.17C9.7247 163.17 10.0816 163.266 10.3948 163.458C10.7101 163.648 10.9573 163.908 11.1363 164.238C11.3174 164.568 11.4079 164.945 11.4079 165.369C11.4079 165.787 11.3142 166.16 11.1267 166.488C10.9413 166.814 10.6856 167.072 10.3596 167.261C10.0336 167.449 9.66291 167.543 9.24743 167.543ZM1.12473 184.111V183.459L4.00115 178.908H4.47417V179.918H4.15456L1.98127 183.357V183.408H5.85485V184.111H1.12473ZM4.2057 185.453V183.913V183.609V178.908H4.95996V185.453H4.2057ZM9.1875 185.543C8.70597 185.543 8.29581 185.412 7.95703 185.15C7.61825 184.885 7.35938 184.503 7.1804 184.002C7.00142 183.499 6.91193 182.892 6.91193 182.18C6.91193 181.473 7.00142 180.869 7.1804 180.368C7.36151 179.865 7.62145 179.482 7.96023 179.218C8.30114 178.951 8.71023 178.818 9.1875 178.818C9.66477 178.818 10.0728 178.951 10.4116 179.218C10.7525 179.482 11.0124 179.865 11.1914 180.368C11.3725 180.869 11.4631 181.473 11.4631 182.18C11.4631 182.892 11.3736 183.499 11.1946 184.002C11.0156 184.503 10.7567 184.885 10.418 185.15C10.0792 185.412 9.66903 185.543 9.1875 185.543ZM9.1875 184.839C9.66477 184.839 10.0355 184.609 10.2997 184.149C10.5639 183.689 10.696 183.033 10.696 182.18C10.696 181.614 10.6353 181.131 10.5138 180.733C10.3945 180.334 10.2219 180.031 9.99609 179.822C9.77237 179.613 9.50284 179.509 9.1875 179.509C8.71449 179.509 8.34482 179.742 8.07848 180.208C7.81214 180.673 7.67898 181.33 7.67898 182.18C7.67898 182.747 7.73864 183.229 7.85795 183.625C7.97727 184.021 8.14879 184.323 8.37251 184.529C8.59837 184.736 8.87003 184.839 9.1875 184.839ZM9.1875 203.543C8.70597 203.543 8.29581 203.412 7.95703 203.15C7.61825 202.885 7.35938 202.503 7.1804 202.002C7.00142 201.499 6.91193 200.892 6.91193 200.18C6.91193 199.473 7.00142 198.869 7.1804 198.368C7.36151 197.865 7.62145 197.482 7.96023 197.218C8.30114 196.951 8.71023 196.818 9.1875 196.818C9.66477 196.818 10.0728 196.951 10.4116 197.218C10.7525 197.482 11.0124 197.865 11.1914 198.368C11.3725 198.869 11.4631 199.473 11.4631 200.18C11.4631 200.892 11.3736 201.499 11.1946 202.002C11.0156 202.503 10.7567 202.885 10.418 203.15C10.0792 203.412 9.66903 203.543 9.1875 203.543ZM9.1875 202.839C9.66477 202.839 10.0355 202.609 10.2997 202.149C10.5639 201.689 10.696 201.033 10.696 200.18C10.696 199.614 10.6353 199.131 10.5138 198.733C10.3945 198.334 10.2219 198.031 9.99609 197.822C9.77237 197.613 9.50284 197.509 9.1875 197.509C8.71449 197.509 8.34482 197.742 8.07848 198.208C7.81214 198.673 7.67898 199.33 7.67898 200.18C7.67898 200.747 7.73864 201.229 7.85795 201.625C7.97727 202.021 8.14879 202.323 8.37251 202.529C8.59837 202.736 8.87003 202.839 9.1875 202.839Z" fill="#545454"/>
<line x1="24.5" y1="-2.27561e-08" x2="24.5" y2="205.116" stroke="#2B2D48"/>
<line x1="59.5" y1="-2.27561e-08" x2="59.5" y2="205.116" stroke="#1D1F34" stroke-dasharray="2 2"/>
<line x1="94.5" y1="-2.27561e-08" x2="94.5" y2="205.116" stroke="#1D1F34" stroke-dasharray="2 2"/>
<line x1="129.5" y1="-2.27561e-08" x2="129.5" y2="205.116" stroke="#1D1F34" stroke-dasharray="2 2"/>
<line x1="164.5" y1="-2.27561e-08" x2="164.5" y2="205.116" stroke="#1D1F34" stroke-dasharray="2 2"/>
<line x1="199.5" y1="-2.27561e-08" x2="199.5" y2="205.116" stroke="#1D1F34" stroke-dasharray="2 2"/>
<line x1="234.5" y1="-2.27561e-08" x2="234.5" y2="205.116" stroke="#1D1F34" stroke-dasharray="2 2"/>
<line x1="269.5" y1="-2.27561e-08" x2="269.5" y2="205.116" stroke="#1D1F34" stroke-dasharray="2 2"/>
<line x1="304.5" y1="-2.27561e-08" x2="304.5" y2="205.116" stroke="#1D1F34" stroke-dasharray="2 2"/>
<line x1="339.5" y1="-2.27561e-08" x2="339.5" y2="205.116" stroke="#1D1F34" stroke-dasharray="2 2"/>
<line x1="374.5" y1="-2.27561e-08" x2="374.5" y2="205.116" stroke="#1D1F34" stroke-dasharray="2 2"/>
<line x1="409.5" y1="-2.27561e-08" x2="409.5" y2="205.116" stroke="#1D1F34" stroke-dasharray="2 2"/>
<line x1="444.5" y1="-2.27561e-08" x2="444.5" y2="205.116" stroke="#1D1F34" stroke-dasharray="2 2"/>
<line x1="479.5" y1="-2.27561e-08" x2="479.5" y2="205.116" stroke="#1D1F34" stroke-dasharray="2 2"/>
<line x1="514.5" y1="-2.27561e-08" x2="514.5" y2="205.116" stroke="#1D1F34" stroke-dasharray="2 2"/>
<line x1="549.5" y1="-2.27561e-08" x2="549.5" y2="205.116" stroke="#1D1F34" stroke-dasharray="2 2"/>
<line x1="572" y1="204.575" x2="24" y2="204.575" stroke="#2B2D48"/>
<line x1="572" y1="189.998" x2="24" y2="189.998" stroke="#1D1F34" stroke-dasharray="3 3"/>
<line x1="572" y1="173.339" x2="24" y2="173.339" stroke="#1D1F34" stroke-dasharray="3 3"/>
<line x1="572" y1="156.68" x2="24" y2="156.68" stroke="#1D1F34" stroke-dasharray="3 3"/>
<line x1="572" y1="140.021" x2="24" y2="140.021" stroke="#1D1F34" stroke-dasharray="3 3"/>
<line x1="572" y1="123.361" x2="24" y2="123.361" stroke="#1D1F34" stroke-dasharray="3 3"/>
<line x1="572" y1="106.702" x2="24" y2="106.702" stroke="#1D1F34" stroke-dasharray="3 3"/>
<line x1="572" y1="90.043" x2="24" y2="90.043" stroke="#1D1F34" stroke-dasharray="3 3"/>
<line x1="572" y1="73.3838" x2="24" y2="73.3838" stroke="#1D1F34" stroke-dasharray="3 3"/>
<line x1="572" y1="56.7246" x2="24" y2="56.7246" stroke="#1D1F34" stroke-dasharray="3 3"/>
<line x1="572" y1="40.0654" x2="24" y2="40.0654" stroke="#1D1F34" stroke-dasharray="3 3"/>
<line x1="572" y1="23.4062" x2="24" y2="23.4062" stroke="#1D1F34" stroke-dasharray="3 3"/>
<path d="M34.916 222.412C34.4345 222.412 34.0243 222.28 33.6855 222.018C33.3468 221.754 33.0879 221.372 32.9089 220.871C32.7299 220.368 32.6404 219.761 32.6404 219.049C32.6404 218.342 32.7299 217.738 32.9089 217.237C33.09 216.734 33.35 216.351 33.6887 216.087C34.0297 215.82 34.4387 215.687 34.916 215.687C35.3933 215.687 35.8013 215.82 36.1401 216.087C36.481 216.351 36.7409 216.734 36.9199 217.237C37.101 217.738 37.1916 218.342 37.1916 219.049C37.1916 219.761 37.1021 220.368 36.9231 220.871C36.7441 221.372 36.4853 221.754 36.1465 222.018C35.8077 222.28 35.3975 222.412 34.916 222.412ZM34.916 221.708C35.3933 221.708 35.764 221.478 36.0282 221.018C36.2924 220.558 36.4245 219.902 36.4245 219.049C36.4245 218.483 36.3638 218 36.2424 217.601C36.123 217.203 35.9505 216.899 35.7246 216.691C35.5009 216.482 35.2314 216.377 34.916 216.377C34.443 216.377 34.0733 216.611 33.807 217.077C33.5407 217.542 33.4075 218.199 33.4075 219.049C33.4075 219.616 33.4672 220.098 33.5865 220.494C33.7058 220.89 33.8773 221.192 34.101 221.398C34.3269 221.605 34.5985 221.708 34.916 221.708ZM38.7401 222.373C38.5824 222.373 38.4471 222.317 38.3342 222.204C38.2212 222.091 38.1648 221.956 38.1648 221.798C38.1648 221.64 38.2212 221.505 38.3342 221.392C38.4471 221.279 38.5824 221.223 38.7401 221.223C38.8977 221.223 39.033 221.279 39.146 221.392C39.2589 221.505 39.3153 221.64 39.3153 221.798C39.3153 221.902 39.2887 221.998 39.2354 222.086C39.1843 222.173 39.1151 222.243 39.0277 222.296C38.9425 222.348 38.8466 222.373 38.7401 222.373ZM42.5625 222.412C42.081 222.412 41.6708 222.28 41.332 222.018C40.9933 221.754 40.7344 221.372 40.5554 220.871C40.3764 220.368 40.2869 219.761 40.2869 219.049C40.2869 218.342 40.3764 217.738 40.5554 217.237C40.7365 216.734 40.9964 216.351 41.3352 216.087C41.6761 215.82 42.0852 215.687 42.5625 215.687C43.0398 215.687 43.4478 215.82 43.7866 216.087C44.1275 216.351 44.3874 216.734 44.5664 217.237C44.7475 217.738 44.8381 218.342 44.8381 219.049C44.8381 219.761 44.7486 220.368 44.5696 220.871C44.3906 221.372 44.1317 221.754 43.793 222.018C43.4542 222.28 43.044 222.412 42.5625 222.412ZM42.5625 221.708C43.0398 221.708 43.4105 221.478 43.6747 221.018C43.9389 220.558 44.071 219.902 44.071 219.049C44.071 218.483 44.0103 218 43.8888 217.601C43.7695 217.203 43.5969 216.899 43.3711 216.691C43.1474 216.482 42.8778 216.377 42.5625 216.377C42.0895 216.377 41.7198 216.611 41.4535 217.077C41.1871 217.542 41.054 218.199 41.054 219.049C41.054 219.616 41.1136 220.098 41.233 220.494C41.3523 220.89 41.5238 221.192 41.7475 221.398C41.9734 221.605 42.245 221.708 42.5625 221.708ZM48.1875 222.412C47.706 222.412 47.2958 222.28 46.957 222.018C46.6183 221.754 46.3594 221.372 46.1804 220.871C46.0014 220.368 45.9119 219.761 45.9119 219.049C45.9119 218.342 46.0014 217.738 46.1804 217.237C46.3615 216.734 46.6214 216.351 46.9602 216.087C47.3011 215.82 47.7102 215.687 48.1875 215.687C48.6648 215.687 49.0728 215.82 49.4116 216.087C49.7525 216.351 50.0124 216.734 50.1914 217.237C50.3725 217.738 50.4631 218.342 50.4631 219.049C50.4631 219.761 50.3736 220.368 50.1946 220.871C50.0156 221.372 49.7567 221.754 49.418 222.018C49.0792 222.28 48.669 222.412 48.1875 222.412ZM48.1875 221.708C48.6648 221.708 49.0355 221.478 49.2997 221.018C49.5639 220.558 49.696 219.902 49.696 219.049C49.696 218.483 49.6353 218 49.5138 217.601C49.3945 217.203 49.2219 216.899 48.9961 216.691C48.7724 216.482 48.5028 216.377 48.1875 216.377C47.7145 216.377 47.3448 216.611 47.0785 217.077C46.8121 217.542 46.679 218.199 46.679 219.049C46.679 219.616 46.7386 220.098 46.858 220.494C46.9773 220.89 47.1488 221.192 47.3725 221.398C47.5984 221.605 47.87 221.708 48.1875 221.708Z" fill="#545454"/>
<path d="M112.095 215.777V222.322H111.302V216.608H111.264L109.666 217.669V216.863L111.302 215.777H112.095ZM116.112 222.412C115.631 222.412 115.221 222.28 114.882 222.018C114.543 221.754 114.284 221.372 114.105 220.871C113.926 220.368 113.837 219.761 113.837 219.049C113.837 218.342 113.926 217.738 114.105 217.237C114.286 216.734 114.546 216.351 114.885 216.087C115.226 215.82 115.635 215.687 116.112 215.687C116.59 215.687 116.998 215.82 117.336 216.087C117.677 216.351 117.937 216.734 118.116 217.237C118.297 217.738 118.388 218.342 118.388 219.049C118.388 219.761 118.298 220.368 118.119 220.871C117.94 221.372 117.682 221.754 117.343 222.018C117.004 222.28 116.594 222.412 116.112 222.412ZM116.112 221.708C116.59 221.708 116.96 221.478 117.225 221.018C117.489 220.558 117.621 219.902 117.621 219.049C117.621 218.483 117.56 218 117.439 217.601C117.319 217.203 117.147 216.899 116.921 216.691C116.697 216.482 116.428 216.377 116.112 216.377C115.639 216.377 115.27 216.611 115.003 217.077C114.737 217.542 114.604 218.199 114.604 219.049C114.604 219.616 114.663 220.098 114.783 220.494C114.902 220.89 115.074 221.192 115.297 221.398C115.523 221.605 115.795 221.708 116.112 221.708ZM121.737 222.412C121.256 222.412 120.846 222.28 120.507 222.018C120.168 221.754 119.909 221.372 119.73 220.871C119.551 220.368 119.462 219.761 119.462 219.049C119.462 218.342 119.551 217.738 119.73 217.237C119.911 216.734 120.171 216.351 120.51 216.087C120.851 215.82 121.26 215.687 121.737 215.687C122.215 215.687 122.623 215.82 122.961 216.087C123.302 216.351 123.562 216.734 123.741 217.237C123.922 217.738 124.013 218.342 124.013 219.049C124.013 219.761 123.923 220.368 123.744 220.871C123.565 221.372 123.307 221.754 122.968 222.018C122.629 222.28 122.219 222.412 121.737 222.412ZM121.737 221.708C122.215 221.708 122.585 221.478 122.85 221.018C123.114 220.558 123.246 219.902 123.246 219.049C123.246 218.483 123.185 218 123.064 217.601C122.944 217.203 122.772 216.899 122.546 216.691C122.322 216.482 122.053 216.377 121.737 216.377C121.264 216.377 120.895 216.611 120.628 217.077C120.362 217.542 120.229 218.199 120.229 219.049C120.229 219.616 120.288 220.098 120.408 220.494C120.527 220.89 120.699 221.192 120.922 221.398C121.148 221.605 121.42 221.708 121.737 221.708ZM126.137 221.427L126.085 221.772C126.049 222.015 125.994 222.275 125.919 222.552C125.847 222.829 125.771 223.09 125.692 223.335C125.614 223.58 125.549 223.775 125.497 223.92H124.922C124.95 223.784 124.986 223.604 125.031 223.38C125.076 223.156 125.12 222.906 125.165 222.629C125.212 222.354 125.25 222.073 125.28 221.785L125.318 221.427H126.137ZM132.188 222.412C131.706 222.412 131.296 222.28 130.957 222.018C130.618 221.754 130.359 221.372 130.18 220.871C130.001 220.368 129.912 219.761 129.912 219.049C129.912 218.342 130.001 217.738 130.18 217.237C130.362 216.734 130.621 216.351 130.96 216.087C131.301 215.82 131.71 215.687 132.188 215.687C132.665 215.687 133.073 215.82 133.412 216.087C133.752 216.351 134.012 216.734 134.191 217.237C134.373 217.738 134.463 218.342 134.463 219.049C134.463 219.761 134.374 220.368 134.195 220.871C134.016 221.372 133.757 221.754 133.418 222.018C133.079 222.28 132.669 222.412 132.188 222.412ZM132.188 221.708C132.665 221.708 133.036 221.478 133.3 221.018C133.564 220.558 133.696 219.902 133.696 219.049C133.696 218.483 133.635 218 133.514 217.601C133.395 217.203 133.222 216.899 132.996 216.691C132.772 216.482 132.503 216.377 132.188 216.377C131.714 216.377 131.345 216.611 131.078 217.077C130.812 217.542 130.679 218.199 130.679 219.049C130.679 219.616 130.739 220.098 130.858 220.494C130.977 220.89 131.149 221.192 131.373 221.398C131.598 221.605 131.87 221.708 132.188 221.708Z" fill="#545454"/>
<path d="M194.528 222.322V221.747L196.689 219.382C196.942 219.105 197.151 218.864 197.315 218.659C197.479 218.453 197.601 218.259 197.679 218.078C197.76 217.894 197.801 217.703 197.801 217.502C197.801 217.272 197.745 217.073 197.635 216.905C197.526 216.736 197.377 216.606 197.187 216.515C196.998 216.423 196.785 216.377 196.548 216.377C196.297 216.377 196.077 216.43 195.89 216.534C195.704 216.636 195.56 216.78 195.458 216.965C195.358 217.151 195.308 217.368 195.308 217.617H194.554C194.554 217.234 194.642 216.897 194.819 216.608C194.996 216.318 195.237 216.092 195.541 215.93C195.848 215.768 196.192 215.687 196.574 215.687C196.957 215.687 197.297 215.768 197.593 215.93C197.889 216.092 198.122 216.31 198.29 216.585C198.458 216.86 198.542 217.166 198.542 217.502C198.542 217.743 198.499 217.979 198.411 218.209C198.326 218.437 198.177 218.691 197.964 218.973C197.753 219.252 197.46 219.593 197.085 219.995L195.615 221.568V221.619H198.657V222.322H194.528ZM202.112 222.412C201.631 222.412 201.221 222.28 200.882 222.018C200.543 221.754 200.284 221.372 200.105 220.871C199.926 220.368 199.837 219.761 199.837 219.049C199.837 218.342 199.926 217.738 200.105 217.237C200.286 216.734 200.546 216.351 200.885 216.087C201.226 215.82 201.635 215.687 202.112 215.687C202.59 215.687 202.998 215.82 203.336 216.087C203.677 216.351 203.937 216.734 204.116 217.237C204.297 217.738 204.388 218.342 204.388 219.049C204.388 219.761 204.298 220.368 204.119 220.871C203.94 221.372 203.682 221.754 203.343 222.018C203.004 222.28 202.594 222.412 202.112 222.412ZM202.112 221.708C202.59 221.708 202.96 221.478 203.225 221.018C203.489 220.558 203.621 219.902 203.621 219.049C203.621 218.483 203.56 218 203.439 217.601C203.319 217.203 203.147 216.899 202.921 216.691C202.697 216.482 202.428 216.377 202.112 216.377C201.639 216.377 201.27 216.611 201.003 217.077C200.737 217.542 200.604 218.199 200.604 219.049C200.604 219.616 200.663 220.098 200.783 220.494C200.902 220.89 201.074 221.192 201.297 221.398C201.523 221.605 201.795 221.708 202.112 221.708ZM207.737 222.412C207.256 222.412 206.846 222.28 206.507 222.018C206.168 221.754 205.909 221.372 205.73 220.871C205.551 220.368 205.462 219.761 205.462 219.049C205.462 218.342 205.551 217.738 205.73 217.237C205.911 216.734 206.171 216.351 206.51 216.087C206.851 215.82 207.26 215.687 207.737 215.687C208.215 215.687 208.623 215.82 208.961 216.087C209.302 216.351 209.562 216.734 209.741 217.237C209.922 217.738 210.013 218.342 210.013 219.049C210.013 219.761 209.923 220.368 209.744 220.871C209.565 221.372 209.307 221.754 208.968 222.018C208.629 222.28 208.219 222.412 207.737 222.412ZM207.737 221.708C208.215 221.708 208.585 221.478 208.85 221.018C209.114 220.558 209.246 219.902 209.246 219.049C209.246 218.483 209.185 218 209.064 217.601C208.944 217.203 208.772 216.899 208.546 216.691C208.322 216.482 208.053 216.377 207.737 216.377C207.264 216.377 206.895 216.611 206.628 217.077C206.362 217.542 206.229 218.199 206.229 219.049C206.229 219.616 206.288 220.098 206.408 220.494C206.527 220.89 206.699 221.192 206.922 221.398C207.148 221.605 207.42 221.708 207.737 221.708ZM212.137 221.427L212.085 221.772C212.049 222.015 211.994 222.275 211.919 222.552C211.847 222.829 211.771 223.09 211.692 223.335C211.614 223.58 211.549 223.775 211.497 223.92H210.922C210.95 223.784 210.986 223.604 211.031 223.38C211.076 223.156 211.12 222.906 211.165 222.629C211.212 222.354 211.25 222.073 211.28 221.785L211.318 221.427H212.137ZM218.188 222.412C217.706 222.412 217.296 222.28 216.957 222.018C216.618 221.754 216.359 221.372 216.18 220.871C216.001 220.368 215.912 219.761 215.912 219.049C215.912 218.342 216.001 217.738 216.18 217.237C216.362 216.734 216.621 216.351 216.96 216.087C217.301 215.82 217.71 215.687 218.188 215.687C218.665 215.687 219.073 215.82 219.412 216.087C219.752 216.351 220.012 216.734 220.191 217.237C220.373 217.738 220.463 218.342 220.463 219.049C220.463 219.761 220.374 220.368 220.195 220.871C220.016 221.372 219.757 221.754 219.418 222.018C219.079 222.28 218.669 222.412 218.188 222.412ZM218.188 221.708C218.665 221.708 219.036 221.478 219.3 221.018C219.564 220.558 219.696 219.902 219.696 219.049C219.696 218.483 219.635 218 219.514 217.601C219.395 217.203 219.222 216.899 218.996 216.691C218.772 216.482 218.503 216.377 218.188 216.377C217.714 216.377 217.345 216.611 217.078 217.077C216.812 217.542 216.679 218.199 216.679 219.049C216.679 219.616 216.739 220.098 216.858 220.494C216.977 220.89 217.149 221.192 217.373 221.398C217.598 221.605 217.87 221.708 218.188 221.708Z" fill="#545454"/>
<path d="M282.459 222.412C282.037 222.412 281.661 222.339 281.33 222.194C281.002 222.049 280.741 221.848 280.547 221.59C280.356 221.33 280.251 221.029 280.234 220.686H281.04C281.057 220.897 281.129 221.079 281.257 221.232C281.385 221.383 281.552 221.501 281.759 221.584C281.965 221.667 282.194 221.708 282.446 221.708C282.727 221.708 282.976 221.659 283.194 221.561C283.411 221.463 283.581 221.327 283.705 221.152C283.829 220.978 283.89 220.775 283.89 220.545C283.89 220.304 283.831 220.092 283.711 219.909C283.592 219.724 283.417 219.579 283.187 219.474C282.957 219.37 282.676 219.318 282.343 219.318H281.819V218.615H282.343C282.603 218.615 282.831 218.568 283.027 218.474C283.226 218.38 283.38 218.248 283.491 218.078C283.604 217.907 283.66 217.707 283.66 217.477C283.66 217.255 283.611 217.062 283.513 216.898C283.415 216.734 283.277 216.606 283.098 216.515C282.921 216.423 282.712 216.377 282.471 216.377C282.245 216.377 282.032 216.419 281.832 216.502C281.634 216.583 281.472 216.701 281.346 216.857C281.221 217.01 281.152 217.196 281.142 217.413H280.375C280.388 217.07 280.491 216.769 280.685 216.512C280.879 216.252 281.132 216.049 281.445 215.904C281.761 215.76 282.107 215.687 282.484 215.687C282.889 215.687 283.236 215.769 283.526 215.933C283.816 216.095 284.038 216.309 284.194 216.576C284.35 216.842 284.427 217.13 284.427 217.438C284.427 217.807 284.33 218.121 284.136 218.381C283.945 218.641 283.684 218.821 283.353 218.921V218.973C283.767 219.041 284.09 219.217 284.322 219.5C284.554 219.781 284.67 220.13 284.67 220.545C284.67 220.901 284.573 221.22 284.379 221.504C284.188 221.785 283.926 222.007 283.593 222.169C283.261 222.331 282.883 222.412 282.459 222.412ZM288.112 222.412C287.631 222.412 287.221 222.28 286.882 222.018C286.543 221.754 286.284 221.372 286.105 220.871C285.926 220.368 285.837 219.761 285.837 219.049C285.837 218.342 285.926 217.738 286.105 217.237C286.286 216.734 286.546 216.351 286.885 216.087C287.226 215.82 287.635 215.687 288.112 215.687C288.59 215.687 288.998 215.82 289.336 216.087C289.677 216.351 289.937 216.734 290.116 217.237C290.297 217.738 290.388 218.342 290.388 219.049C290.388 219.761 290.298 220.368 290.119 220.871C289.94 221.372 289.682 221.754 289.343 222.018C289.004 222.28 288.594 222.412 288.112 222.412ZM288.112 221.708C288.59 221.708 288.96 221.478 289.225 221.018C289.489 220.558 289.621 219.902 289.621 219.049C289.621 218.483 289.56 218 289.439 217.601C289.319 217.203 289.147 216.899 288.921 216.691C288.697 216.482 288.428 216.377 288.112 216.377C287.639 216.377 287.27 216.611 287.003 217.077C286.737 217.542 286.604 218.199 286.604 219.049C286.604 219.616 286.663 220.098 286.783 220.494C286.902 220.89 287.074 221.192 287.297 221.398C287.523 221.605 287.795 221.708 288.112 221.708ZM293.737 222.412C293.256 222.412 292.846 222.28 292.507 222.018C292.168 221.754 291.909 221.372 291.73 220.871C291.551 220.368 291.462 219.761 291.462 219.049C291.462 218.342 291.551 217.738 291.73 217.237C291.911 216.734 292.171 216.351 292.51 216.087C292.851 215.82 293.26 215.687 293.737 215.687C294.215 215.687 294.623 215.82 294.961 216.087C295.302 216.351 295.562 216.734 295.741 217.237C295.922 217.738 296.013 218.342 296.013 219.049C296.013 219.761 295.923 220.368 295.744 220.871C295.565 221.372 295.307 221.754 294.968 222.018C294.629 222.28 294.219 222.412 293.737 222.412ZM293.737 221.708C294.215 221.708 294.585 221.478 294.85 221.018C295.114 220.558 295.246 219.902 295.246 219.049C295.246 218.483 295.185 218 295.064 217.601C294.944 217.203 294.772 216.899 294.546 216.691C294.322 216.482 294.053 216.377 293.737 216.377C293.264 216.377 292.895 216.611 292.628 217.077C292.362 217.542 292.229 218.199 292.229 219.049C292.229 219.616 292.288 220.098 292.408 220.494C292.527 220.89 292.699 221.192 292.922 221.398C293.148 221.605 293.42 221.708 293.737 221.708ZM298.137 221.427L298.085 221.772C298.049 222.015 297.994 222.275 297.919 222.552C297.847 222.829 297.771 223.09 297.692 223.335C297.614 223.58 297.549 223.775 297.497 223.92H296.922C296.95 223.784 296.986 223.604 297.031 223.38C297.076 223.156 297.12 222.906 297.165 222.629C297.212 222.354 297.25 222.073 297.28 221.785L297.318 221.427H298.137ZM304.188 222.412C303.706 222.412 303.296 222.28 302.957 222.018C302.618 221.754 302.359 221.372 302.18 220.871C302.001 220.368 301.912 219.761 301.912 219.049C301.912 218.342 302.001 217.738 302.18 217.237C302.362 216.734 302.621 216.351 302.96 216.087C303.301 215.82 303.71 215.687 304.188 215.687C304.665 215.687 305.073 215.82 305.412 216.087C305.752 216.351 306.012 216.734 306.191 217.237C306.373 217.738 306.463 218.342 306.463 219.049C306.463 219.761 306.374 220.368 306.195 220.871C306.016 221.372 305.757 221.754 305.418 222.018C305.079 222.28 304.669 222.412 304.188 222.412ZM304.188 221.708C304.665 221.708 305.036 221.478 305.3 221.018C305.564 220.558 305.696 219.902 305.696 219.049C305.696 218.483 305.635 218 305.514 217.601C305.395 217.203 305.222 216.899 304.996 216.691C304.772 216.482 304.503 216.377 304.188 216.377C303.714 216.377 303.345 216.611 303.078 217.077C302.812 217.542 302.679 218.199 302.679 219.049C302.679 219.616 302.739 220.098 302.858 220.494C302.977 220.89 303.149 221.192 303.373 221.398C303.598 221.605 303.87 221.708 304.188 221.708Z" fill="#545454"/>
<path d="M366.05 220.98V220.328L368.926 215.777H369.399V216.787H369.079L366.906 220.225V220.277H370.78V220.98H366.05ZM369.131 222.322V220.782V220.478V215.777H369.885V222.322H369.131ZM374.112 222.412C373.631 222.412 373.221 222.28 372.882 222.018C372.543 221.754 372.284 221.372 372.105 220.871C371.926 220.368 371.837 219.761 371.837 219.049C371.837 218.342 371.926 217.738 372.105 217.237C372.286 216.734 372.546 216.351 372.885 216.087C373.226 215.82 373.635 215.687 374.112 215.687C374.59 215.687 374.998 215.82 375.336 216.087C375.677 216.351 375.937 216.734 376.116 217.237C376.297 217.738 376.388 218.342 376.388 219.049C376.388 219.761 376.298 220.368 376.119 220.871C375.94 221.372 375.682 221.754 375.343 222.018C375.004 222.28 374.594 222.412 374.112 222.412ZM374.112 221.708C374.59 221.708 374.96 221.478 375.225 221.018C375.489 220.558 375.621 219.902 375.621 219.049C375.621 218.483 375.56 218 375.439 217.601C375.319 217.203 375.147 216.899 374.921 216.691C374.697 216.482 374.428 216.377 374.112 216.377C373.639 216.377 373.27 216.611 373.003 217.077C372.737 217.542 372.604 218.199 372.604 219.049C372.604 219.616 372.663 220.098 372.783 220.494C372.902 220.89 373.074 221.192 373.297 221.398C373.523 221.605 373.795 221.708 374.112 221.708ZM379.737 222.412C379.256 222.412 378.846 222.28 378.507 222.018C378.168 221.754 377.909 221.372 377.73 220.871C377.551 220.368 377.462 219.761 377.462 219.049C377.462 218.342 377.551 217.738 377.73 217.237C377.911 216.734 378.171 216.351 378.51 216.087C378.851 215.82 379.26 215.687 379.737 215.687C380.215 215.687 380.623 215.82 380.961 216.087C381.302 216.351 381.562 216.734 381.741 217.237C381.922 217.738 382.013 218.342 382.013 219.049C382.013 219.761 381.923 220.368 381.744 220.871C381.565 221.372 381.307 221.754 380.968 222.018C380.629 222.28 380.219 222.412 379.737 222.412ZM379.737 221.708C380.215 221.708 380.585 221.478 380.85 221.018C381.114 220.558 381.246 219.902 381.246 219.049C381.246 218.483 381.185 218 381.064 217.601C380.944 217.203 380.772 216.899 380.546 216.691C380.322 216.482 380.053 216.377 379.737 216.377C379.264 216.377 378.895 216.611 378.628 217.077C378.362 217.542 378.229 218.199 378.229 219.049C378.229 219.616 378.288 220.098 378.408 220.494C378.527 220.89 378.699 221.192 378.922 221.398C379.148 221.605 379.42 221.708 379.737 221.708ZM384.137 221.427L384.085 221.772C384.049 222.015 383.994 222.275 383.919 222.552C383.847 222.829 383.771 223.09 383.692 223.335C383.614 223.58 383.549 223.775 383.497 223.92H382.922C382.95 223.784 382.986 223.604 383.031 223.38C383.076 223.156 383.12 222.906 383.165 222.629C383.212 222.354 383.25 222.073 383.28 221.785L383.318 221.427H384.137ZM390.188 222.412C389.706 222.412 389.296 222.28 388.957 222.018C388.618 221.754 388.359 221.372 388.18 220.871C388.001 220.368 387.912 219.761 387.912 219.049C387.912 218.342 388.001 217.738 388.18 217.237C388.362 216.734 388.621 216.351 388.96 216.087C389.301 215.82 389.71 215.687 390.188 215.687C390.665 215.687 391.073 215.82 391.412 216.087C391.752 216.351 392.012 216.734 392.191 217.237C392.373 217.738 392.463 218.342 392.463 219.049C392.463 219.761 392.374 220.368 392.195 220.871C392.016 221.372 391.757 221.754 391.418 222.018C391.079 222.28 390.669 222.412 390.188 222.412ZM390.188 221.708C390.665 221.708 391.036 221.478 391.3 221.018C391.564 220.558 391.696 219.902 391.696 219.049C391.696 218.483 391.635 218 391.514 217.601C391.395 217.203 391.222 216.899 390.996 216.691C390.772 216.482 390.503 216.377 390.188 216.377C389.714 216.377 389.345 216.611 389.078 217.077C388.812 217.542 388.679 218.199 388.679 219.049C388.679 219.616 388.739 220.098 388.858 220.494C388.977 220.89 389.149 221.192 389.373 221.398C389.598 221.605 389.87 221.708 390.188 221.708Z" fill="#545454"/>
<path d="M454.547 222.412C454.172 222.412 453.835 222.337 453.534 222.188C453.234 222.039 452.993 221.834 452.812 221.574C452.631 221.314 452.532 221.018 452.515 220.686H453.282C453.311 220.982 453.446 221.227 453.684 221.421C453.925 221.613 454.213 221.708 454.547 221.708C454.816 221.708 455.054 221.646 455.263 221.52C455.474 221.394 455.639 221.222 455.759 221.002C455.88 220.78 455.941 220.53 455.941 220.251C455.941 219.965 455.878 219.711 455.752 219.487C455.629 219.261 455.458 219.083 455.241 218.953C455.023 218.823 454.775 218.757 454.496 218.755C454.296 218.753 454.09 218.784 453.879 218.848C453.668 218.91 453.495 218.99 453.358 219.088L452.617 218.998L453.013 215.777H456.414V216.48H453.678L453.448 218.41H453.486C453.62 218.304 453.789 218.215 453.991 218.145C454.194 218.075 454.404 218.039 454.624 218.039C455.025 218.039 455.381 218.135 455.695 218.327C456.01 218.517 456.257 218.777 456.436 219.107C456.617 219.437 456.708 219.814 456.708 220.238C456.708 220.656 456.614 221.029 456.426 221.357C456.241 221.683 455.985 221.941 455.659 222.13C455.333 222.318 454.963 222.412 454.547 222.412ZM460.112 222.412C459.631 222.412 459.221 222.28 458.882 222.018C458.543 221.754 458.284 221.372 458.105 220.871C457.926 220.368 457.837 219.761 457.837 219.049C457.837 218.342 457.926 217.738 458.105 217.237C458.286 216.734 458.546 216.351 458.885 216.087C459.226 215.82 459.635 215.687 460.112 215.687C460.59 215.687 460.998 215.82 461.336 216.087C461.677 216.351 461.937 216.734 462.116 217.237C462.297 217.738 462.388 218.342 462.388 219.049C462.388 219.761 462.298 220.368 462.119 220.871C461.94 221.372 461.682 221.754 461.343 222.018C461.004 222.28 460.594 222.412 460.112 222.412ZM460.112 221.708C460.59 221.708 460.96 221.478 461.225 221.018C461.489 220.558 461.621 219.902 461.621 219.049C461.621 218.483 461.56 218 461.439 217.601C461.319 217.203 461.147 216.899 460.921 216.691C460.697 216.482 460.428 216.377 460.112 216.377C459.639 216.377 459.27 216.611 459.003 217.077C458.737 217.542 458.604 218.199 458.604 219.049C458.604 219.616 458.663 220.098 458.783 220.494C458.902 220.89 459.074 221.192 459.297 221.398C459.523 221.605 459.795 221.708 460.112 221.708ZM465.737 222.412C465.256 222.412 464.846 222.28 464.507 222.018C464.168 221.754 463.909 221.372 463.73 220.871C463.551 220.368 463.462 219.761 463.462 219.049C463.462 218.342 463.551 217.738 463.73 217.237C463.911 216.734 464.171 216.351 464.51 216.087C464.851 215.82 465.26 215.687 465.737 215.687C466.215 215.687 466.623 215.82 466.961 216.087C467.302 216.351 467.562 216.734 467.741 217.237C467.922 217.738 468.013 218.342 468.013 219.049C468.013 219.761 467.923 220.368 467.744 220.871C467.565 221.372 467.307 221.754 466.968 222.018C466.629 222.28 466.219 222.412 465.737 222.412ZM465.737 221.708C466.215 221.708 466.585 221.478 466.85 221.018C467.114 220.558 467.246 219.902 467.246 219.049C467.246 218.483 467.185 218 467.064 217.601C466.944 217.203 466.772 216.899 466.546 216.691C466.322 216.482 466.053 216.377 465.737 216.377C465.264 216.377 464.895 216.611 464.628 217.077C464.362 217.542 464.229 218.199 464.229 219.049C464.229 219.616 464.288 220.098 464.408 220.494C464.527 220.89 464.699 221.192 464.922 221.398C465.148 221.605 465.42 221.708 465.737 221.708ZM470.137 221.427L470.085 221.772C470.049 222.015 469.994 222.275 469.919 222.552C469.847 222.829 469.771 223.09 469.692 223.335C469.614 223.58 469.549 223.775 469.497 223.92H468.922C468.95 223.784 468.986 223.604 469.031 223.38C469.076 223.156 469.12 222.906 469.165 222.629C469.212 222.354 469.25 222.073 469.28 221.785L469.318 221.427H470.137ZM476.188 222.412C475.706 222.412 475.296 222.28 474.957 222.018C474.618 221.754 474.359 221.372 474.18 220.871C474.001 220.368 473.912 219.761 473.912 219.049C473.912 218.342 474.001 217.738 474.18 217.237C474.362 216.734 474.621 216.351 474.96 216.087C475.301 215.82 475.71 215.687 476.188 215.687C476.665 215.687 477.073 215.82 477.412 216.087C477.752 216.351 478.012 216.734 478.191 217.237C478.373 217.738 478.463 218.342 478.463 219.049C478.463 219.761 478.374 220.368 478.195 220.871C478.016 221.372 477.757 221.754 477.418 222.018C477.079 222.28 476.669 222.412 476.188 222.412ZM476.188 221.708C476.665 221.708 477.036 221.478 477.3 221.018C477.564 220.558 477.696 219.902 477.696 219.049C477.696 218.483 477.635 218 477.514 217.601C477.395 217.203 477.222 216.899 476.996 216.691C476.772 216.482 476.503 216.377 476.188 216.377C475.714 216.377 475.345 216.611 475.078 217.077C474.812 217.542 474.679 218.199 474.679 219.049C474.679 219.616 474.739 220.098 474.858 220.494C474.977 220.89 475.149 221.192 475.373 221.398C475.598 221.605 475.87 221.708 476.188 221.708Z" fill="#545454"/>
<path d="M540.534 222.412C540.266 222.407 539.998 222.356 539.729 222.258C539.461 222.16 539.216 221.995 538.994 221.763C538.772 221.528 538.594 221.212 538.46 220.813C538.326 220.413 538.259 219.91 538.259 219.305C538.259 218.725 538.313 218.212 538.422 217.764C538.531 217.315 538.688 216.937 538.895 216.63C539.102 216.321 539.351 216.087 539.643 215.927C539.937 215.767 540.268 215.687 540.637 215.687C541.003 215.687 541.329 215.761 541.615 215.908C541.902 216.052 542.137 216.255 542.318 216.515C542.499 216.775 542.616 217.074 542.669 217.413H541.89C541.817 217.119 541.676 216.875 541.468 216.681C541.259 216.487 540.982 216.39 540.637 216.39C540.13 216.39 539.73 216.611 539.438 217.052C539.148 217.493 539.002 218.112 539 218.909H539.051C539.171 218.728 539.312 218.573 539.477 218.445C539.643 218.315 539.826 218.215 540.026 218.145C540.227 218.075 540.439 218.039 540.662 218.039C541.037 218.039 541.38 218.133 541.691 218.321C542.002 218.506 542.252 218.763 542.439 219.091C542.627 219.417 542.721 219.791 542.721 220.213C542.721 220.617 542.63 220.988 542.449 221.325C542.268 221.659 542.013 221.926 541.685 222.124C541.359 222.32 540.975 222.416 540.534 222.412ZM540.534 221.708C540.803 221.708 541.044 221.641 541.257 221.507C541.472 221.373 541.641 221.193 541.765 220.967C541.891 220.741 541.953 220.49 541.953 220.213C541.953 219.942 541.893 219.696 541.771 219.474C541.652 219.251 541.487 219.073 541.276 218.941C541.067 218.809 540.828 218.742 540.56 218.742C540.358 218.742 540.169 218.783 539.994 218.864C539.82 218.943 539.666 219.051 539.534 219.19C539.404 219.328 539.302 219.487 539.227 219.666C539.153 219.843 539.115 220.029 539.115 220.225C539.115 220.485 539.176 220.728 539.298 220.954C539.421 221.18 539.589 221.362 539.803 221.501C540.018 221.639 540.262 221.708 540.534 221.708ZM546.112 222.412C545.631 222.412 545.221 222.28 544.882 222.018C544.543 221.754 544.284 221.372 544.105 220.871C543.926 220.368 543.837 219.761 543.837 219.049C543.837 218.342 543.926 217.738 544.105 217.237C544.286 216.734 544.546 216.351 544.885 216.087C545.226 215.82 545.635 215.687 546.112 215.687C546.59 215.687 546.998 215.82 547.336 216.087C547.677 216.351 547.937 216.734 548.116 217.237C548.297 217.738 548.388 218.342 548.388 219.049C548.388 219.761 548.298 220.368 548.119 220.871C547.94 221.372 547.682 221.754 547.343 222.018C547.004 222.28 546.594 222.412 546.112 222.412ZM546.112 221.708C546.59 221.708 546.96 221.478 547.225 221.018C547.489 220.558 547.621 219.902 547.621 219.049C547.621 218.483 547.56 218 547.439 217.601C547.319 217.203 547.147 216.899 546.921 216.691C546.697 216.482 546.428 216.377 546.112 216.377C545.639 216.377 545.27 216.611 545.003 217.077C544.737 217.542 544.604 218.199 544.604 219.049C544.604 219.616 544.663 220.098 544.783 220.494C544.902 220.89 545.074 221.192 545.297 221.398C545.523 221.605 545.795 221.708 546.112 221.708ZM551.737 222.412C551.256 222.412 550.846 222.28 550.507 222.018C550.168 221.754 549.909 221.372 549.73 220.871C549.551 220.368 549.462 219.761 549.462 219.049C549.462 218.342 549.551 217.738 549.73 217.237C549.911 216.734 550.171 216.351 550.51 216.087C550.851 215.82 551.26 215.687 551.737 215.687C552.215 215.687 552.623 215.82 552.961 216.087C553.302 216.351 553.562 216.734 553.741 217.237C553.922 217.738 554.013 218.342 554.013 219.049C554.013 219.761 553.923 220.368 553.744 220.871C553.565 221.372 553.307 221.754 552.968 222.018C552.629 222.28 552.219 222.412 551.737 222.412ZM551.737 221.708C552.215 221.708 552.585 221.478 552.85 221.018C553.114 220.558 553.246 219.902 553.246 219.049C553.246 218.483 553.185 218 553.064 217.601C552.944 217.203 552.772 216.899 552.546 216.691C552.322 216.482 552.053 216.377 551.737 216.377C551.264 216.377 550.895 216.611 550.628 217.077C550.362 217.542 550.229 218.199 550.229 219.049C550.229 219.616 550.288 220.098 550.408 220.494C550.527 220.89 550.699 221.192 550.922 221.398C551.148 221.605 551.42 221.708 551.737 221.708ZM556.137 221.427L556.085 221.772C556.049 222.015 555.994 222.275 555.919 222.552C555.847 222.829 555.771 223.09 555.692 223.335C555.614 223.58 555.549 223.775 555.497 223.92H554.922C554.95 223.784 554.986 223.604 555.031 223.38C555.076 223.156 555.12 222.906 555.165 222.629C555.212 222.354 555.25 222.073 555.28 221.785L555.318 221.427H556.137ZM562.188 222.412C561.706 222.412 561.296 222.28 560.957 222.018C560.618 221.754 560.359 221.372 560.18 220.871C560.001 220.368 559.912 219.761 559.912 219.049C559.912 218.342 560.001 217.738 560.18 217.237C560.362 216.734 560.621 216.351 560.96 216.087C561.301 215.82 561.71 215.687 562.188 215.687C562.665 215.687 563.073 215.82 563.412 216.087C563.752 216.351 564.012 216.734 564.191 217.237C564.373 217.738 564.463 218.342 564.463 219.049C564.463 219.761 564.374 220.368 564.195 220.871C564.016 221.372 563.757 221.754 563.418 222.018C563.079 222.28 562.669 222.412 562.188 222.412ZM562.188 221.708C562.665 221.708 563.036 221.478 563.3 221.018C563.564 220.558 563.696 219.902 563.696 219.049C563.696 218.483 563.635 218 563.514 217.601C563.395 217.203 563.222 216.899 562.996 216.691C562.772 216.482 562.503 216.377 562.188 216.377C561.714 216.377 561.345 216.611 561.078 217.077C560.812 217.542 560.679 218.199 560.679 219.049C560.679 219.616 560.739 220.098 560.858 220.494C560.977 220.89 561.149 221.192 561.373 221.398C561.598 221.605 561.87 221.708 562.188 221.708Z" fill="#545454"/>
<g filter="url(#filter0_i_55_151)">
<path d="M24.5 32.277C26.8333 31.7564 31.6 30.4028 32 29.1534C32.5 27.5916 32.5 23.9474 33 22.3856C33.5 20.8238 35 20.3032 36.5 20.3032C39.5 25.5092 38 24.468 40 29.1534C46 38.5242 44.5 37.483 48 38.5242C51.5 39.5654 51 40.086 53.5 39.5654C56 39.0448 55 36.4418 59.5 38.5242C64 40.6066 63.5 40.6066 67 45.292C70.5 49.9774 73 47.3744 75 53.101C77 58.8276 75 56.2246 78.5 62.9924C82 69.7602 84 72.3631 85 74.9661C86 77.5691 93.5 87.9811 100.5 90.5841C107.5 93.1871 112 94.7489 113.5 94.7489C114.7 94.7489 117.333 94.4018 118.5 94.2283C120.167 93.8812 123.7 92.9789 124.5 92.1459C125.5 91.1047 139.5 76.5279 144.5 77.0485C149.5 77.5691 155 78.0897 159 80.1721C163 82.2545 175.5 89.5429 176 91.1047C176.5 92.6665 174.5 91.1047 178.5 94.2283C182.5 97.3519 183.5 96.8313 186 97.8725C188.5 98.9137 225 111.408 241 105.161C257 98.9137 252 97.8725 271 91.6253C290 85.3781 304 81.7339 311.5 81.7339C319 81.7339 336 82.2545 340.5 86.4193C344.1 89.7512 358 97.8725 364.5 101.517C366.5 103.252 371.9 106.723 377.5 106.723C399 101.517 400 93.7077 412 92.6665C424 91.6253 431.5 90.5841 441 91.6253C448.6 92.4583 455.833 96.8313 458.5 98.9137L467 111.408L480 123.902L495.5 131.191C499.167 132.926 507.7 136.917 512.5 139C524.1 141.082 539.667 139.868 546 139L553 135.356" stroke="url(#paint0_diamond_55_151)" stroke-width="5"/>
</g>
<defs>
<filter id="filter0_i_55_151" x="23.9556" y="17.8032" width="530.199" height="124.846" filterUnits="userSpaceOnUse" color-interpolation-filters="sRGB">
<feFlood flood-opacity="0" result="BackgroundImageFix"/>
<feBlend mode="normal" in="SourceGraphic" in2="BackgroundImageFix" result="shape"/>
<feColorMatrix in="SourceAlpha" type="matrix" values="0 0 0 0 0 0 0 0 0 0 0 0 0 0 0 0 0 0 127 0" result="hardAlpha"/>
<feOffset/>
<feGaussianBlur stdDeviation="2"/>
<feComposite in2="hardAlpha" operator="arithmetic" k2="-1" k3="1"/>
<feColorMatrix type="matrix" values="0 0 0 0 1 0 0 0 0 0.684083 0 0 0 0 0.0708333 0 0 0 1 0"/>
<feBlend mode="normal" in2="shape" result="effect1_innerShadow_55_151"/>
</filter>
<radialGradient id="paint0_diamond_55_151" cx="0" cy="0" r="1" gradientUnits="userSpaceOnUse" gradientTransform="translate(86 90.5841) rotate(2.66563) scale(369.4 1765.67)">
<stop stop-color="#73C60A"/>
<stop offset="1" stop-color="#FFCB12"/>
</radialGradient>
</defs>
</svg>
