<svg width="576" height="220" viewBox="0 0 576 220" fill="none" xmlns="http://www.w3.org/2000/svg">
<path d="M3.5451 16.4545V23H2.75249V17.2855H2.71413L1.11612 18.3466V17.5412L2.75249 16.4545H3.5451ZM7.5625 23.0895C7.08097 23.0895 6.67081 22.9585 6.33203 22.6964C5.99325 22.4322 5.73438 22.0497 5.5554 21.549C5.37642 21.0462 5.28693 20.4389 5.28693 19.7273C5.28693 19.0199 5.37642 18.4158 5.5554 17.9151C5.73651 17.4123 5.99645 17.0288 6.33523 16.7646C6.67614 16.4982 7.08523 16.3651 7.5625 16.3651C8.03977 16.3651 8.4478 16.4982 8.78658 16.7646C9.12749 17.0288 9.38743 17.4123 9.56641 17.9151C9.74751 18.4158 9.83807 19.0199 9.83807 19.7273C9.83807 20.4389 9.74858 21.0462 9.5696 21.549C9.39062 22.0497 9.13175 22.4322 8.79297 22.6964C8.45419 22.9585 8.04403 23.0895 7.5625 23.0895ZM7.5625 22.3864C8.03977 22.3864 8.41051 22.1562 8.67472 21.696C8.93892 21.2358 9.07102 20.5795 9.07102 19.7273C9.07102 19.1605 9.0103 18.6779 8.88885 18.2795C8.76953 17.881 8.59695 17.5774 8.37109 17.3686C8.14737 17.1598 7.87784 17.0554 7.5625 17.0554C7.08949 17.0554 6.71982 17.2887 6.45348 17.7553C6.18714 18.2198 6.05398 18.8771 6.05398 19.7273C6.05398 20.294 6.11364 20.7756 6.23295 21.1719C6.35227 21.5682 6.52379 21.8697 6.74751 22.0763C6.97337 22.283 7.24503 22.3864 7.5625 22.3864ZM13.1875 23.0895C12.706 23.0895 12.2958 22.9585 11.957 22.6964C11.6183 22.4322 11.3594 22.0497 11.1804 21.549C11.0014 21.0462 10.9119 20.4389 10.9119 19.7273C10.9119 19.0199 11.0014 18.4158 11.1804 17.9151C11.3615 17.4123 11.6214 17.0288 11.9602 16.7646C12.3011 16.4982 12.7102 16.3651 13.1875 16.3651C13.6648 16.3651 14.0728 16.4982 14.4116 16.7646C14.7525 17.0288 15.0124 17.4123 15.1914 17.9151C15.3725 18.4158 15.4631 19.0199 15.4631 19.7273C15.4631 20.4389 15.3736 21.0462 15.1946 21.549C15.0156 22.0497 14.7567 22.4322 14.418 22.6964C14.0792 22.9585 13.669 23.0895 13.1875 23.0895ZM13.1875 22.3864C13.6648 22.3864 14.0355 22.1562 14.2997 21.696C14.5639 21.2358 14.696 20.5795 14.696 19.7273C14.696 19.1605 14.6353 18.6779 14.5138 18.2795C14.3945 17.881 14.2219 17.5774 13.9961 17.3686C13.7724 17.1598 13.5028 17.0554 13.1875 17.0554C12.7145 17.0554 12.3448 17.2887 12.0785 17.7553C11.8121 18.2198 11.679 18.8771 11.679 19.7273C11.679 20.294 11.7386 20.7756 11.858 21.1719C11.9773 21.5682 12.1488 21.8697 12.3725 22.0763C12.5984 22.283 12.87 22.3864 13.1875 22.3864ZM7.52015 34.3651C7.78862 34.3672 8.05708 34.4183 8.32555 34.5185C8.59402 34.6186 8.83904 34.7848 9.06064 35.017C9.28223 35.2472 9.46014 35.5614 9.59437 35.9599C9.7286 36.3583 9.79572 36.858 9.79572 37.4588C9.79572 38.0405 9.74032 38.5572 9.62953 39.0089C9.52086 39.4585 9.36319 39.8377 9.15652 40.1467C8.95197 40.4556 8.70268 40.69 8.40865 40.8498C8.11674 41.0096 7.78649 41.0895 7.41788 41.0895C7.0514 41.0895 6.72434 41.017 6.4367 40.8722C6.15119 40.7251 5.91681 40.5217 5.73358 40.2617C5.55247 39.9996 5.43635 39.696 5.38521 39.3509H6.16504C6.23535 39.6513 6.37491 39.8995 6.58372 40.0955C6.79466 40.2894 7.07271 40.3864 7.41788 40.3864C7.92285 40.3864 8.32129 40.1658 8.61319 39.7248C8.90723 39.2837 9.05424 38.6605 9.05424 37.8551H9.00311C8.88379 38.0341 8.7421 38.1886 8.57804 38.3185C8.41397 38.4485 8.2318 38.5487 8.03152 38.619C7.83123 38.6893 7.61816 38.7244 7.39231 38.7244C7.01731 38.7244 6.67321 38.6317 6.36 38.4464C6.04892 38.2589 5.79963 38.0021 5.61213 37.6761C5.42676 37.348 5.33407 36.973 5.33407 36.5511C5.33407 36.1506 5.42356 35.7841 5.60254 35.4517C5.78365 35.1172 6.0372 34.8509 6.36319 34.6527C6.69132 34.4545 7.07697 34.3587 7.52015 34.3651ZM7.52015 35.0682C7.25169 35.0682 7.00985 35.1353 6.79466 35.2695C6.58159 35.4016 6.4122 35.5806 6.28649 35.8065C6.16291 36.0302 6.10112 36.2784 6.10112 36.5511C6.10112 36.8239 6.16078 37.0721 6.2801 37.2958C6.40154 37.5174 6.56667 37.6942 6.77548 37.8263C6.98642 37.9563 7.22612 38.0213 7.49458 38.0213C7.697 38.0213 7.88556 37.9819 8.06028 37.9031C8.235 37.8221 8.38734 37.7124 8.51731 37.5739C8.64941 37.4332 8.75275 37.2745 8.82733 37.0977C8.9019 36.9187 8.93919 36.7322 8.93919 36.5384C8.93919 36.2827 8.8774 36.043 8.75382 35.8192C8.63237 35.5955 8.46404 35.4144 8.24885 35.2759C8.03578 35.1374 7.79288 35.0682 7.52015 35.0682ZM13.1875 41.0895C12.706 41.0895 12.2958 40.9585 11.957 40.6964C11.6183 40.4322 11.3594 40.0497 11.1804 39.549C11.0014 39.0462 10.9119 38.4389 10.9119 37.7273C10.9119 37.0199 11.0014 36.4158 11.1804 35.9151C11.3615 35.4123 11.6214 35.0288 11.9602 34.7646C12.3011 34.4982 12.7102 34.3651 13.1875 34.3651C13.6648 34.3651 14.0728 34.4982 14.4116 34.7646C14.7525 35.0288 15.0124 35.4123 15.1914 35.9151C15.3725 36.4158 15.4631 37.0199 15.4631 37.7273C15.4631 38.4389 15.3736 39.0462 15.1946 39.549C15.0156 40.0497 14.7567 40.4322 14.418 40.6964C14.0792 40.9585 13.669 41.0895 13.1875 41.0895ZM13.1875 40.3864C13.6648 40.3864 14.0355 40.1562 14.2997 39.696C14.5639 39.2358 14.696 38.5795 14.696 37.7273C14.696 37.1605 14.6353 36.6779 14.5138 36.2795C14.3945 35.881 14.2219 35.5774 13.9961 35.3686C13.7724 35.1598 13.5028 35.0554 13.1875 35.0554C12.7145 35.0554 12.3448 35.2887 12.0785 35.7553C11.8121 36.2198 11.679 36.8771 11.679 37.7273C11.679 38.294 11.7386 38.7756 11.858 39.1719C11.9773 39.5682 12.1488 39.8697 12.3725 40.0763C12.5984 40.283 12.87 40.3864 13.1875 40.3864ZM7.60325 59.0895C7.16433 59.0895 6.77654 59.0117 6.4399 58.8562C6.10538 58.6985 5.84437 58.4822 5.65687 58.2074C5.46937 57.9304 5.37669 57.6151 5.37882 57.2614C5.37669 56.9844 5.43102 56.7287 5.54181 56.4943C5.65261 56.2578 5.80389 56.0607 5.99565 55.9031C6.18954 55.7433 6.40581 55.642 6.64444 55.5994V55.5611C6.33123 55.4801 6.08194 55.3043 5.89657 55.0337C5.7112 54.761 5.61958 54.451 5.62172 54.1037C5.61958 53.7713 5.70375 53.4741 5.8742 53.212C6.04466 52.9499 6.27903 52.7433 6.57733 52.592C6.87775 52.4407 7.21973 52.3651 7.60325 52.3651C7.98251 52.3651 8.32129 52.4407 8.61958 52.592C8.91788 52.7433 9.15226 52.9499 9.32271 53.212C9.49529 53.4741 9.58265 53.7713 9.58478 54.1037C9.58265 54.451 9.48784 54.761 9.30034 55.0337C9.11497 55.3043 8.86887 55.4801 8.56206 55.5611V55.5994C8.79856 55.642 9.01163 55.7433 9.20126 55.9031C9.39089 56.0607 9.54217 56.2578 9.6551 56.4943C9.76802 56.7287 9.82555 56.9844 9.82768 57.2614C9.82555 57.6151 9.72967 57.9304 9.54004 58.2074C9.35254 58.4822 9.09153 58.6985 8.75701 58.8562C8.42463 59.0117 8.04004 59.0895 7.60325 59.0895ZM7.60325 58.3864C7.89941 58.3864 8.1551 58.3384 8.37029 58.2425C8.58549 58.1467 8.75169 58.0114 8.86887 57.8366C8.98606 57.6619 9.04572 57.4574 9.04785 57.223C9.04572 56.9759 8.9818 56.7575 8.85609 56.5678C8.73038 56.3782 8.55886 56.229 8.34153 56.1204C8.12633 56.0117 7.88024 55.9574 7.60325 55.9574C7.32413 55.9574 7.07484 56.0117 6.85538 56.1204C6.63805 56.229 6.46653 56.3782 6.34082 56.5678C6.21724 56.7575 6.15652 56.9759 6.15865 57.223C6.15652 57.4574 6.21298 57.6619 6.32804 57.8366C6.44522 58.0114 6.61248 58.1467 6.82981 58.2425C7.04714 58.3384 7.30495 58.3864 7.60325 58.3864ZM7.60325 55.2798C7.83762 55.2798 8.04537 55.233 8.22647 55.1392C8.40971 55.0455 8.55353 54.9144 8.65794 54.7461C8.76234 54.5778 8.81561 54.3807 8.81774 54.1548C8.81561 53.9332 8.76341 53.7404 8.66113 53.5763C8.55886 53.4102 8.41717 53.2823 8.23606 53.1928C8.05495 53.1012 7.84402 53.0554 7.60325 53.0554C7.35822 53.0554 7.14409 53.1012 6.96085 53.1928C6.77761 53.2823 6.63592 53.4102 6.53578 53.5763C6.43564 53.7404 6.38663 53.9332 6.38876 54.1548C6.38663 54.3807 6.4367 54.5778 6.53897 54.7461C6.64338 54.9144 6.7872 55.0455 6.97044 55.1392C7.15368 55.233 7.36461 55.2798 7.60325 55.2798ZM13.1875 59.0895C12.706 59.0895 12.2958 58.9585 11.957 58.6964C11.6183 58.4322 11.3594 58.0497 11.1804 57.549C11.0014 57.0462 10.9119 56.4389 10.9119 55.7273C10.9119 55.0199 11.0014 54.4158 11.1804 53.9151C11.3615 53.4123 11.6214 53.0288 11.9602 52.7646C12.3011 52.4982 12.7102 52.3651 13.1875 52.3651C13.6648 52.3651 14.0728 52.4982 14.4116 52.7646C14.7525 53.0288 15.0124 53.4123 15.1914 53.9151C15.3725 54.4158 15.4631 55.0199 15.4631 55.7273C15.4631 56.4389 15.3736 57.0462 15.1946 57.549C15.0156 58.0497 14.7567 58.4322 14.418 58.6964C14.0792 58.9585 13.669 59.0895 13.1875 59.0895ZM13.1875 58.3864C13.6648 58.3864 14.0355 58.1562 14.2997 57.696C14.5639 57.2358 14.696 56.5795 14.696 55.7273C14.696 55.1605 14.6353 54.6779 14.5138 54.2795C14.3945 53.881 14.2219 53.5774 13.9961 53.3686C13.7724 53.1598 13.5028 53.0554 13.1875 53.0554C12.7145 53.0554 12.3448 53.2887 12.0785 53.7553C11.8121 54.2198 11.679 54.8771 11.679 55.7273C11.679 56.294 11.7386 56.7756 11.858 57.1719C11.9773 57.5682 12.1488 57.8697 12.3725 58.0763C12.5984 58.283 12.87 58.3864 13.1875 58.3864ZM6.25613 77L9.18368 71.2088V71.1577H5.80868V70.4545H10.0019V71.196L7.08709 77H6.25613ZM13.1875 77.0895C12.706 77.0895 12.2958 76.9585 11.957 76.6964C11.6183 76.4322 11.3594 76.0497 11.1804 75.549C11.0014 75.0462 10.9119 74.4389 10.9119 73.7273C10.9119 73.0199 11.0014 72.4158 11.1804 71.9151C11.3615 71.4123 11.6214 71.0288 11.9602 70.7646C12.3011 70.4982 12.7102 70.3651 13.1875 70.3651C13.6648 70.3651 14.0728 70.4982 14.4116 70.7646C14.7525 71.0288 15.0124 71.4123 15.1914 71.9151C15.3725 72.4158 15.4631 73.0199 15.4631 73.7273C15.4631 74.4389 15.3736 75.0462 15.1946 75.549C15.0156 76.0497 14.7567 76.4322 14.418 76.6964C14.0792 76.9585 13.669 77.0895 13.1875 77.0895ZM13.1875 76.3864C13.6648 76.3864 14.0355 76.1562 14.2997 75.696C14.5639 75.2358 14.696 74.5795 14.696 73.7273C14.696 73.1605 14.6353 72.6779 14.5138 72.2795C14.3945 71.881 14.2219 71.5774 13.9961 71.3686C13.7724 71.1598 13.5028 71.0554 13.1875 71.0554C12.7145 71.0554 12.3448 71.2887 12.0785 71.7553C11.8121 72.2198 11.679 72.8771 11.679 73.7273C11.679 74.294 11.7386 74.7756 11.858 75.1719C11.9773 75.5682 12.1488 75.8697 12.3725 76.0763C12.5984 76.283 12.87 76.3864 13.1875 76.3864ZM7.60964 95.0895C7.34118 95.0852 7.07271 95.0341 6.80424 94.9361C6.53578 94.8381 6.29075 94.6729 6.06916 94.4407C5.84757 94.2063 5.66966 93.8899 5.53542 93.4915C5.40119 93.0909 5.33407 92.5881 5.33407 91.983C5.33407 91.4034 5.38841 90.8899 5.49707 90.4425C5.60574 89.9929 5.76341 89.6147 5.97008 89.3079C6.17676 88.9989 6.42605 88.7646 6.71795 88.6048C7.01199 88.445 7.34331 88.3651 7.71191 88.3651C8.07839 88.3651 8.40439 88.4386 8.6899 88.5856C8.97754 88.7305 9.21191 88.9329 9.39302 89.1928C9.57413 89.4528 9.69132 89.7521 9.74458 90.0909H8.96476C8.89231 89.7969 8.75169 89.5529 8.54288 89.359C8.33407 89.1651 8.05708 89.0682 7.71191 89.0682C7.20481 89.0682 6.80531 89.2887 6.51341 89.7298C6.22363 90.1708 6.07768 90.7898 6.07555 91.5866H6.12669C6.246 91.4055 6.3877 91.2511 6.55176 91.1232C6.71795 90.9933 6.90119 90.8931 7.10147 90.8228C7.30176 90.7525 7.51376 90.7173 7.73748 90.7173C8.11248 90.7173 8.45552 90.8111 8.7666 90.9986C9.07768 91.1839 9.32697 91.4407 9.51447 91.7688C9.70197 92.0948 9.79572 92.4688 9.79572 92.8906C9.79572 93.2955 9.70517 93.6662 9.52406 94.0028C9.34295 94.3374 9.08833 94.6037 8.76021 94.8018C8.43422 94.9979 8.05069 95.0938 7.60964 95.0895ZM7.60964 94.3864C7.87811 94.3864 8.11887 94.3192 8.33194 94.185C8.54714 94.0508 8.71653 93.8707 8.84011 93.6449C8.96582 93.419 9.02868 93.1676 9.02868 92.8906C9.02868 92.62 8.96795 92.3739 8.8465 92.1523C8.72718 91.9286 8.56206 91.7507 8.35112 91.6186C8.14231 91.4865 7.90368 91.4205 7.63521 91.4205C7.43279 91.4205 7.24423 91.4609 7.06951 91.5419C6.8948 91.6207 6.74139 91.7294 6.60929 91.8679C6.47931 92.0064 6.37704 92.1651 6.30247 92.3441C6.22789 92.521 6.19061 92.7074 6.19061 92.9034C6.19061 93.1634 6.25133 93.4062 6.37278 93.6321C6.49636 93.858 6.66468 94.0401 6.87775 94.1786C7.09295 94.3171 7.33691 94.3864 7.60964 94.3864ZM13.1875 95.0895C12.706 95.0895 12.2958 94.9585 11.957 94.6964C11.6183 94.4322 11.3594 94.0497 11.1804 93.549C11.0014 93.0462 10.9119 92.4389 10.9119 91.7273C10.9119 91.0199 11.0014 90.4158 11.1804 89.9151C11.3615 89.4123 11.6214 89.0288 11.9602 88.7646C12.3011 88.4982 12.7102 88.3651 13.1875 88.3651C13.6648 88.3651 14.0728 88.4982 14.4116 88.7646C14.7525 89.0288 15.0124 89.4123 15.1914 89.9151C15.3725 90.4158 15.4631 91.0199 15.4631 91.7273C15.4631 92.4389 15.3736 93.0462 15.1946 93.549C15.0156 94.0497 14.7567 94.4322 14.418 94.6964C14.0792 94.9585 13.669 95.0895 13.1875 95.0895ZM13.1875 94.3864C13.6648 94.3864 14.0355 94.1562 14.2997 93.696C14.5639 93.2358 14.696 92.5795 14.696 91.7273C14.696 91.1605 14.6353 90.6779 14.5138 90.2795C14.3945 89.881 14.2219 89.5774 13.9961 89.3686C13.7724 89.1598 13.5028 89.0554 13.1875 89.0554C12.7145 89.0554 12.3448 89.2887 12.0785 89.7553C11.8121 90.2198 11.679 90.8771 11.679 91.7273C11.679 92.294 11.7386 92.7756 11.858 93.1719C11.9773 93.5682 12.1488 93.8697 12.3725 94.0763C12.5984 94.283 12.87 94.3864 13.1875 94.3864ZM7.62243 113.089C7.24743 113.089 6.90971 113.015 6.60929 112.866C6.30886 112.717 6.06809 112.512 5.88699 112.252C5.70588 111.992 5.6068 111.696 5.58975 111.364H6.3568C6.38663 111.66 6.52086 111.905 6.7595 112.099C7.00027 112.29 7.28791 112.386 7.62243 112.386C7.89089 112.386 8.12953 112.324 8.33833 112.198C8.54927 112.072 8.7144 111.9 8.83372 111.68C8.95517 111.458 9.01589 111.208 9.01589 110.929C9.01589 110.643 8.95304 110.389 8.82733 110.165C8.70375 109.939 8.53329 109.761 8.31596 109.631C8.09863 109.501 7.85041 109.435 7.57129 109.433C7.371 109.431 7.16539 109.462 6.95446 109.526C6.74352 109.588 6.56987 109.668 6.4335 109.766L5.69203 109.676L6.08833 106.455H9.4889V107.158H6.75311L6.52299 109.088H6.56135C6.69558 108.982 6.8639 108.893 7.06632 108.823C7.26873 108.752 7.47967 108.717 7.69913 108.717C8.0997 108.717 8.45659 108.813 8.7698 109.005C9.08514 109.195 9.3323 109.455 9.51128 109.785C9.69238 110.115 9.78294 110.492 9.78294 110.916C9.78294 111.334 9.68919 111.707 9.50169 112.035C9.31632 112.361 9.06064 112.619 8.73464 112.808C8.40865 112.996 8.03791 113.089 7.62243 113.089ZM13.1875 113.089C12.706 113.089 12.2958 112.958 11.957 112.696C11.6183 112.432 11.3594 112.05 11.1804 111.549C11.0014 111.046 10.9119 110.439 10.9119 109.727C10.9119 109.02 11.0014 108.416 11.1804 107.915C11.3615 107.412 11.6214 107.029 11.9602 106.765C12.3011 106.498 12.7102 106.365 13.1875 106.365C13.6648 106.365 14.0728 106.498 14.4116 106.765C14.7525 107.029 15.0124 107.412 15.1914 107.915C15.3725 108.416 15.4631 109.02 15.4631 109.727C15.4631 110.439 15.3736 111.046 15.1946 111.549C15.0156 112.05 14.7567 112.432 14.418 112.696C14.0792 112.958 13.669 113.089 13.1875 113.089ZM13.1875 112.386C13.6648 112.386 14.0355 112.156 14.2997 111.696C14.5639 111.236 14.696 110.58 14.696 109.727C14.696 109.161 14.6353 108.678 14.5138 108.279C14.3945 107.881 14.2219 107.577 13.9961 107.369C13.7724 107.16 13.5028 107.055 13.1875 107.055C12.7145 107.055 12.3448 107.289 12.0785 107.755C11.8121 108.22 11.679 108.877 11.679 109.727C11.679 110.294 11.7386 110.776 11.858 111.172C11.9773 111.568 12.1488 111.87 12.3725 112.076C12.5984 112.283 12.87 112.386 13.1875 112.386ZM5.12473 129.658V129.006L8.00115 124.455H8.47417V125.464H8.15456L5.98127 128.903V128.955H9.85485V129.658H5.12473ZM8.2057 131V129.46V129.156V124.455H8.95996V131H8.2057ZM13.1875 131.089C12.706 131.089 12.2958 130.958 11.957 130.696C11.6183 130.432 11.3594 130.05 11.1804 129.549C11.0014 129.046 10.9119 128.439 10.9119 127.727C10.9119 127.02 11.0014 126.416 11.1804 125.915C11.3615 125.412 11.6214 125.029 11.9602 124.765C12.3011 124.498 12.7102 124.365 13.1875 124.365C13.6648 124.365 14.0728 124.498 14.4116 124.765C14.7525 125.029 15.0124 125.412 15.1914 125.915C15.3725 126.416 15.4631 127.02 15.4631 127.727C15.4631 128.439 15.3736 129.046 15.1946 129.549C15.0156 130.05 14.7567 130.432 14.418 130.696C14.0792 130.958 13.669 131.089 13.1875 131.089ZM13.1875 130.386C13.6648 130.386 14.0355 130.156 14.2997 129.696C14.5639 129.236 14.696 128.58 14.696 127.727C14.696 127.161 14.6353 126.678 14.5138 126.279C14.3945 125.881 14.2219 125.577 13.9961 125.369C13.7724 125.16 13.5028 125.055 13.1875 125.055C12.7145 125.055 12.3448 125.289 12.0785 125.755C11.8121 126.22 11.679 126.877 11.679 127.727C11.679 128.294 11.7386 128.776 11.858 129.172C11.9773 129.568 12.1488 129.87 12.3725 130.076C12.5984 130.283 12.87 130.386 13.1875 130.386ZM7.53374 149.089C7.11186 149.089 6.7358 149.017 6.40554 148.872C6.07741 148.727 5.81641 148.526 5.62251 148.268C5.43075 148.008 5.32635 147.707 5.3093 147.364H6.1147C6.13175 147.575 6.20419 147.757 6.33203 147.91C6.45987 148.061 6.62713 148.179 6.83381 148.262C7.04048 148.345 7.26953 148.386 7.52095 148.386C7.8022 148.386 8.05149 148.337 8.26882 148.239C8.48615 148.141 8.65661 148.005 8.78018 147.83C8.90376 147.656 8.96555 147.453 8.96555 147.223C8.96555 146.982 8.9059 146.77 8.78658 146.587C8.66726 146.402 8.49254 146.257 8.26243 146.152C8.03232 146.048 7.75107 145.996 7.41868 145.996H6.89453V145.293H7.41868C7.67862 145.293 7.90661 145.246 8.10263 145.152C8.30078 145.058 8.45526 144.926 8.56605 144.756C8.67898 144.585 8.73544 144.385 8.73544 144.155C8.73544 143.933 8.68643 143.74 8.58842 143.576C8.49041 143.412 8.35192 143.284 8.17294 143.193C7.99609 143.101 7.78729 143.055 7.54652 143.055C7.32067 143.055 7.1076 143.097 6.90732 143.18C6.70916 143.261 6.54723 143.379 6.42152 143.535C6.29581 143.688 6.22763 143.874 6.21697 144.091H5.44993C5.46271 143.748 5.56605 143.447 5.75994 143.19C5.95384 142.93 6.20739 142.727 6.5206 142.582C6.83594 142.437 7.18217 142.365 7.5593 142.365C7.96413 142.365 8.31143 142.447 8.60121 142.611C8.89098 142.773 9.11364 142.987 9.26918 143.254C9.42472 143.52 9.50249 143.808 9.50249 144.116C9.50249 144.485 9.40554 144.799 9.21165 145.059C9.01989 145.319 8.75888 145.499 8.42862 145.599V145.651C8.84197 145.719 9.16477 145.895 9.39702 146.178C9.62926 146.459 9.74538 146.808 9.74538 147.223C9.74538 147.579 9.64844 147.898 9.45455 148.182C9.26278 148.463 9.00071 148.685 8.66832 148.847C8.33594 149.009 7.95774 149.089 7.53374 149.089ZM13.1875 149.089C12.706 149.089 12.2958 148.958 11.957 148.696C11.6183 148.432 11.3594 148.05 11.1804 147.549C11.0014 147.046 10.9119 146.439 10.9119 145.727C10.9119 145.02 11.0014 144.416 11.1804 143.915C11.3615 143.412 11.6214 143.029 11.9602 142.765C12.3011 142.498 12.7102 142.365 13.1875 142.365C13.6648 142.365 14.0728 142.498 14.4116 142.765C14.7525 143.029 15.0124 143.412 15.1914 143.915C15.3725 144.416 15.4631 145.02 15.4631 145.727C15.4631 146.439 15.3736 147.046 15.1946 147.549C15.0156 148.05 14.7567 148.432 14.418 148.696C14.0792 148.958 13.669 149.089 13.1875 149.089ZM13.1875 148.386C13.6648 148.386 14.0355 148.156 14.2997 147.696C14.5639 147.236 14.696 146.58 14.696 145.727C14.696 145.161 14.6353 144.678 14.5138 144.279C14.3945 143.881 14.2219 143.577 13.9961 143.369C13.7724 143.16 13.5028 143.055 13.1875 143.055C12.7145 143.055 12.3448 143.289 12.0785 143.755C11.8121 144.22 11.679 144.877 11.679 145.727C11.679 146.294 11.7386 146.776 11.858 147.172C11.9773 147.568 12.1488 147.87 12.3725 148.076C12.5984 148.283 12.87 148.386 13.1875 148.386ZM5.60334 167V166.425L7.76385 164.06C8.0174 163.783 8.22621 163.542 8.39027 163.337C8.55433 163.131 8.67578 162.937 8.75462 162.756C8.83558 162.572 8.87607 162.381 8.87607 162.18C8.87607 161.95 8.82067 161.751 8.70987 161.583C8.60121 161.414 8.45206 161.284 8.26243 161.193C8.0728 161.101 7.85973 161.055 7.62322 161.055C7.3718 161.055 7.15234 161.108 6.96484 161.212C6.77947 161.314 6.63565 161.458 6.53338 161.643C6.43324 161.829 6.38317 162.046 6.38317 162.295H5.62891C5.62891 161.912 5.71733 161.575 5.89418 161.286C6.07102 160.996 6.31179 160.77 6.61648 160.608C6.9233 160.446 7.2674 160.365 7.64879 160.365C8.03232 160.365 8.37216 160.446 8.66832 160.608C8.96449 160.77 9.19673 160.988 9.36506 161.263C9.53338 161.538 9.61754 161.844 9.61754 162.18C9.61754 162.421 9.57386 162.657 9.48651 162.887C9.40128 163.115 9.25213 163.369 9.03906 163.651C8.82812 163.93 8.53516 164.271 8.16016 164.673L6.68999 166.246V166.297H9.7326V167H5.60334ZM13.1875 167.089C12.706 167.089 12.2958 166.958 11.957 166.696C11.6183 166.432 11.3594 166.05 11.1804 165.549C11.0014 165.046 10.9119 164.439 10.9119 163.727C10.9119 163.02 11.0014 162.416 11.1804 161.915C11.3615 161.412 11.6214 161.029 11.9602 160.765C12.3011 160.498 12.7102 160.365 13.1875 160.365C13.6648 160.365 14.0728 160.498 14.4116 160.765C14.7525 161.029 15.0124 161.412 15.1914 161.915C15.3725 162.416 15.4631 163.02 15.4631 163.727C15.4631 164.439 15.3736 165.046 15.1946 165.549C15.0156 166.05 14.7567 166.432 14.418 166.696C14.0792 166.958 13.669 167.089 13.1875 167.089ZM13.1875 166.386C13.6648 166.386 14.0355 166.156 14.2997 165.696C14.5639 165.236 14.696 164.58 14.696 163.727C14.696 163.161 14.6353 162.678 14.5138 162.279C14.3945 161.881 14.2219 161.577 13.9961 161.369C13.7724 161.16 13.5028 161.055 13.1875 161.055C12.7145 161.055 12.3448 161.289 12.0785 161.755C11.8121 162.22 11.679 162.877 11.679 163.727C11.679 164.294 11.7386 164.776 11.858 165.172C11.9773 165.568 12.1488 165.87 12.3725 166.076C12.5984 166.283 12.87 166.386 13.1875 166.386ZM9.1701 178.455V185H8.37749V179.286H8.33913L6.74112 180.347V179.541L8.37749 178.455H9.1701ZM13.1875 185.089C12.706 185.089 12.2958 184.958 11.957 184.696C11.6183 184.432 11.3594 184.05 11.1804 183.549C11.0014 183.046 10.9119 182.439 10.9119 181.727C10.9119 181.02 11.0014 180.416 11.1804 179.915C11.3615 179.412 11.6214 179.029 11.9602 178.765C12.3011 178.498 12.7102 178.365 13.1875 178.365C13.6648 178.365 14.0728 178.498 14.4116 178.765C14.7525 179.029 15.0124 179.412 15.1914 179.915C15.3725 180.416 15.4631 181.02 15.4631 181.727C15.4631 182.439 15.3736 183.046 15.1946 183.549C15.0156 184.05 14.7567 184.432 14.418 184.696C14.0792 184.958 13.669 185.089 13.1875 185.089ZM13.1875 184.386C13.6648 184.386 14.0355 184.156 14.2997 183.696C14.5639 183.236 14.696 182.58 14.696 181.727C14.696 181.161 14.6353 180.678 14.5138 180.279C14.3945 179.881 14.2219 179.577 13.9961 179.369C13.7724 179.16 13.5028 179.055 13.1875 179.055C12.7145 179.055 12.3448 179.289 12.0785 179.755C11.8121 180.22 11.679 180.877 11.679 181.727C11.679 182.294 11.7386 182.776 11.858 183.172C11.9773 183.568 12.1488 183.87 12.3725 184.076C12.5984 184.283 12.87 184.386 13.1875 184.386ZM13.1875 203.089C12.706 203.089 12.2958 202.958 11.957 202.696C11.6183 202.432 11.3594 202.05 11.1804 201.549C11.0014 201.046 10.9119 200.439 10.9119 199.727C10.9119 199.02 11.0014 198.416 11.1804 197.915C11.3615 197.412 11.6214 197.029 11.9602 196.765C12.3011 196.498 12.7102 196.365 13.1875 196.365C13.6648 196.365 14.0728 196.498 14.4116 196.765C14.7525 197.029 15.0124 197.412 15.1914 197.915C15.3725 198.416 15.4631 199.02 15.4631 199.727C15.4631 200.439 15.3736 201.046 15.1946 201.549C15.0156 202.05 14.7567 202.432 14.418 202.696C14.0792 202.958 13.669 203.089 13.1875 203.089ZM13.1875 202.386C13.6648 202.386 14.0355 202.156 14.2997 201.696C14.5639 201.236 14.696 200.58 14.696 199.727C14.696 199.161 14.6353 198.678 14.5138 198.279C14.3945 197.881 14.2219 197.577 13.9961 197.369C13.7724 197.16 13.5028 197.055 13.1875 197.055C12.7145 197.055 12.3448 197.289 12.0785 197.755C11.8121 198.22 11.679 198.877 11.679 199.727C11.679 200.294 11.7386 200.776 11.858 201.172C11.9773 201.568 12.1488 201.87 12.3725 202.076C12.5984 202.283 12.87 202.386 13.1875 202.386Z" fill="#545454"/>
<line x1="28.5" y1="-2.18557e-08" x2="28.5" y2="197" stroke="#2B2D48"/>
<line x1="63.5" y1="-2.18557e-08" x2="63.5" y2="197" stroke="#1D1F34" stroke-dasharray="2 2"/>
<line x1="98.5" y1="-2.18557e-08" x2="98.5" y2="197" stroke="#1D1F34" stroke-dasharray="2 2"/>
<line x1="133.5" y1="-2.18557e-08" x2="133.5" y2="197" stroke="#1D1F34" stroke-dasharray="2 2"/>
<line x1="168.5" y1="-2.18557e-08" x2="168.5" y2="197" stroke="#1D1F34" stroke-dasharray="2 2"/>
<line x1="203.5" y1="-2.18557e-08" x2="203.5" y2="197" stroke="#1D1F34" stroke-dasharray="2 2"/>
<line x1="238.5" y1="-2.18557e-08" x2="238.5" y2="197" stroke="#1D1F34" stroke-dasharray="2 2"/>
<line x1="273.5" y1="-2.18557e-08" x2="273.5" y2="197" stroke="#1D1F34" stroke-dasharray="2 2"/>
<line x1="308.5" y1="-2.18557e-08" x2="308.5" y2="197" stroke="#1D1F34" stroke-dasharray="2 2"/>
<line x1="343.5" y1="-2.18557e-08" x2="343.5" y2="197" stroke="#1D1F34" stroke-dasharray="2 2"/>
<line x1="378.5" y1="-2.18557e-08" x2="378.5" y2="197" stroke="#1D1F34" stroke-dasharray="2 2"/>
<line x1="413.5" y1="-2.18557e-08" x2="413.5" y2="197" stroke="#1D1F34" stroke-dasharray="2 2"/>
<line x1="448.5" y1="-2.18557e-08" x2="448.5" y2="197" stroke="#1D1F34" stroke-dasharray="2 2"/>
<line x1="483.5" y1="-2.18557e-08" x2="483.5" y2="197" stroke="#1D1F34" stroke-dasharray="2 2"/>
<line x1="518.5" y1="-2.18557e-08" x2="518.5" y2="197" stroke="#1D1F34" stroke-dasharray="2 2"/>
<line x1="553.5" y1="-2.18557e-08" x2="553.5" y2="197" stroke="#1D1F34" stroke-dasharray="2 2"/>
<line x1="576" y1="196.5" x2="28" y2="196.5" stroke="#2B2D48"/>
<line x1="576" y1="182.5" x2="28" y2="182.5" stroke="#1D1F34" stroke-dasharray="3 3"/>
<line x1="576" y1="166.5" x2="28" y2="166.5" stroke="#1D1F34" stroke-dasharray="3 3"/>
<line x1="576" y1="150.5" x2="28" y2="150.5" stroke="#1D1F34" stroke-dasharray="3 3"/>
<line x1="576" y1="134.5" x2="28" y2="134.5" stroke="#1D1F34" stroke-dasharray="3 3"/>
<line x1="576" y1="118.5" x2="28" y2="118.5" stroke="#1D1F34" stroke-dasharray="3 3"/>
<line x1="576" y1="102.5" x2="28" y2="102.5" stroke="#1D1F34" stroke-dasharray="3 3"/>
<line x1="576" y1="86.5" x2="28" y2="86.5" stroke="#1D1F34" stroke-dasharray="3 3"/>
<line x1="576" y1="70.5" x2="28" y2="70.5" stroke="#1D1F34" stroke-dasharray="3 3"/>
<line x1="576" y1="54.5" x2="28" y2="54.5" stroke="#1D1F34" stroke-dasharray="3 3"/>
<line x1="576" y1="38.5" x2="28" y2="38.5" stroke="#1D1F34" stroke-dasharray="3 3"/>
<line x1="576" y1="22.5" x2="28" y2="22.5" stroke="#1D1F34" stroke-dasharray="3 3"/>
<path d="M36.7203 207.365C36.9888 207.367 37.2573 207.418 37.5257 207.518C37.7942 207.619 38.0392 207.785 38.2608 208.017C38.4824 208.247 38.6603 208.561 38.7946 208.96C38.9288 209.358 38.9959 209.858 38.9959 210.459C38.9959 211.04 38.9405 211.557 38.8297 212.009C38.7211 212.458 38.5634 212.838 38.3567 213.147C38.1522 213.456 37.9029 213.69 37.6088 213.85C37.3169 214.01 36.9867 214.089 36.6181 214.089C36.2516 214.089 35.9245 214.017 35.6369 213.872C35.3514 213.725 35.117 213.522 34.9338 213.262C34.7527 213 34.6365 212.696 34.5854 212.351H35.3652C35.4355 212.651 35.5751 212.9 35.7839 213.096C35.9949 213.289 36.2729 213.386 36.6181 213.386C37.123 213.386 37.5215 213.166 37.8134 212.725C38.1074 212.284 38.2544 211.661 38.2544 210.855H38.2033C38.084 211.034 37.9423 211.189 37.7782 211.319C37.6142 211.449 37.432 211.549 37.2317 211.619C37.0314 211.689 36.8184 211.724 36.5925 211.724C36.2175 211.724 35.8734 211.632 35.5602 211.446C35.2491 211.259 34.9998 211.002 34.8123 210.676C34.627 210.348 34.5343 209.973 34.5343 209.551C34.5343 209.151 34.6238 208.784 34.8027 208.452C34.9838 208.117 35.2374 207.851 35.5634 207.653C35.8915 207.455 36.2772 207.359 36.7203 207.365ZM36.7203 208.068C36.4519 208.068 36.21 208.135 35.9949 208.27C35.7818 208.402 35.6124 208.581 35.4867 208.806C35.3631 209.03 35.3013 209.278 35.3013 209.551C35.3013 209.824 35.361 210.072 35.4803 210.296C35.6017 210.517 35.7669 210.694 35.9757 210.826C36.1866 210.956 36.4263 211.021 36.6948 211.021C36.8972 211.021 37.0858 210.982 37.2605 210.903C37.4352 210.822 37.5875 210.712 37.7175 210.574C37.8496 210.433 37.9529 210.275 38.0275 210.098C38.1021 209.919 38.1394 209.732 38.1394 209.538C38.1394 209.283 38.0776 209.043 37.954 208.819C37.8326 208.596 37.6642 208.414 37.449 208.276C37.236 208.137 36.9931 208.068 36.7203 208.068ZM44.2414 214.115C43.9303 214.115 43.648 214.056 43.3944 213.939C43.1409 213.82 42.9395 213.648 42.7904 213.425C42.6412 213.199 42.5667 212.926 42.5667 212.607C42.5667 212.325 42.6221 212.097 42.7329 211.923C42.8437 211.746 42.9917 211.607 43.1771 211.507C43.3625 211.407 43.567 211.332 43.7907 211.283C44.0166 211.232 44.2435 211.192 44.4715 211.162C44.7698 211.124 45.0116 211.095 45.197 211.076C45.3845 211.054 45.5209 211.019 45.6061 210.97C45.6934 210.921 45.7371 210.836 45.7371 210.714V210.689C45.7371 210.374 45.6508 210.129 45.4782 209.954C45.3078 209.779 45.0489 209.692 44.7016 209.692C44.3415 209.692 44.0592 209.771 43.8547 209.928C43.6501 210.086 43.5063 210.254 43.4232 210.433L42.7073 210.178C42.8351 209.879 43.0056 209.647 43.2187 209.481C43.4339 209.312 43.6682 209.195 43.9218 209.129C44.1775 209.061 44.4289 209.027 44.676 209.027C44.8337 209.027 45.0148 209.046 45.2194 209.085C45.426 209.121 45.6253 209.196 45.817 209.311C46.0109 209.426 46.1718 209.6 46.2996 209.832C46.4275 210.065 46.4914 210.376 46.4914 210.766V214H45.7371V213.335H45.6988C45.6476 213.442 45.5624 213.556 45.4431 213.677C45.3238 213.799 45.165 213.902 44.9669 213.987C44.7687 214.072 44.5269 214.115 44.2414 214.115ZM44.3564 213.438C44.6547 213.438 44.9062 213.379 45.1107 213.262C45.3174 213.145 45.4729 212.993 45.5773 212.808C45.6839 212.623 45.7371 212.428 45.7371 212.223V211.533C45.7052 211.571 45.6349 211.606 45.5262 211.638C45.4197 211.668 45.2961 211.695 45.1555 211.718C45.017 211.739 44.8817 211.759 44.7496 211.776C44.6196 211.79 44.5141 211.803 44.4332 211.814C44.2371 211.839 44.0539 211.881 43.8834 211.939C43.7151 211.994 43.5787 212.078 43.4743 212.191C43.3721 212.302 43.3209 212.453 43.3209 212.645C43.3209 212.907 43.4179 213.105 43.6118 213.239C43.8078 213.371 44.056 213.438 44.3564 213.438ZM47.8681 214V209.091H48.5968V209.858H48.6607C48.763 209.596 48.9281 209.392 49.1561 209.248C49.3841 209.1 49.6578 209.027 49.9775 209.027C50.3013 209.027 50.5708 209.1 50.786 209.248C51.0034 209.392 51.1728 209.596 51.2942 209.858H51.3453C51.4711 209.604 51.6596 209.403 51.911 209.254C52.1625 209.103 52.464 209.027 52.8155 209.027C53.2544 209.027 53.6135 209.164 53.8926 209.439C54.1717 209.712 54.3113 210.137 54.3113 210.714V214H53.557V210.714C53.557 210.352 53.4579 210.093 53.2598 209.938C53.0616 209.782 52.8283 209.705 52.5598 209.705C52.2147 209.705 51.9473 209.809 51.7576 210.018C51.568 210.224 51.4732 210.487 51.4732 210.804V214H50.7061V210.638C50.7061 210.359 50.6156 210.134 50.4345 209.963C50.2534 209.791 50.0201 209.705 49.7346 209.705C49.5385 209.705 49.3553 209.757 49.1848 209.861C49.0165 209.966 48.8801 210.11 48.7757 210.296C48.6735 210.479 48.6223 210.691 48.6223 210.932V214H47.8681Z" fill="#545454"/>
<path d="M69.7453 207.455V214H68.9527V208.286H68.9143L67.3163 209.347V208.541L68.9527 207.455H69.7453ZM73.7627 214.089C73.2812 214.089 72.871 213.958 72.5322 213.696C72.1934 213.432 71.9346 213.05 71.7556 212.549C71.5766 212.046 71.4871 211.439 71.4871 210.727C71.4871 210.02 71.5766 209.416 71.7556 208.915C71.9367 208.412 72.1966 208.029 72.5354 207.765C72.8763 207.498 73.2854 207.365 73.7627 207.365C74.24 207.365 74.648 207.498 74.9868 207.765C75.3277 208.029 75.5876 208.412 75.7666 208.915C75.9477 209.416 76.0383 210.02 76.0383 210.727C76.0383 211.439 75.9488 212.046 75.7698 212.549C75.5908 213.05 75.3319 213.432 74.9932 213.696C74.6544 213.958 74.2442 214.089 73.7627 214.089ZM73.7627 213.386C74.24 213.386 74.6107 213.156 74.8749 212.696C75.1391 212.236 75.2712 211.58 75.2712 210.727C75.2712 210.161 75.2105 209.678 75.089 209.279C74.9697 208.881 74.7971 208.577 74.5713 208.369C74.3476 208.16 74.078 208.055 73.7627 208.055C73.2897 208.055 72.92 208.289 72.6537 208.755C72.3873 209.22 72.2542 209.877 72.2542 210.727C72.2542 211.294 72.3138 211.776 72.4331 212.172C72.5525 212.568 72.724 212.87 72.9477 213.076C73.1736 213.283 73.4452 213.386 73.7627 213.386ZM81.2414 214.115C80.9303 214.115 80.648 214.056 80.3944 213.939C80.1409 213.82 79.9395 213.648 79.7904 213.425C79.6412 213.199 79.5667 212.926 79.5667 212.607C79.5667 212.325 79.6221 212.097 79.7329 211.923C79.8437 211.746 79.9917 211.607 80.1771 211.507C80.3625 211.407 80.567 211.332 80.7907 211.283C81.0166 211.232 81.2435 211.192 81.4715 211.162C81.7698 211.124 82.0116 211.095 82.197 211.076C82.3845 211.054 82.5209 211.019 82.6061 210.97C82.6934 210.921 82.7371 210.836 82.7371 210.714V210.689C82.7371 210.374 82.6508 210.129 82.4782 209.954C82.3078 209.779 82.0489 209.692 81.7016 209.692C81.3415 209.692 81.0592 209.771 80.8547 209.928C80.6501 210.086 80.5063 210.254 80.4232 210.433L79.7073 210.178C79.8351 209.879 80.0056 209.647 80.2187 209.481C80.4339 209.312 80.6682 209.195 80.9218 209.129C81.1775 209.061 81.4289 209.027 81.676 209.027C81.8337 209.027 82.0148 209.046 82.2194 209.085C82.426 209.121 82.6253 209.196 82.817 209.311C83.0109 209.426 83.1718 209.6 83.2996 209.832C83.4275 210.065 83.4914 210.376 83.4914 210.766V214H82.7371V213.335H82.6988C82.6476 213.442 82.5624 213.556 82.4431 213.677C82.3238 213.799 82.165 213.902 81.9669 213.987C81.7687 214.072 81.5269 214.115 81.2414 214.115ZM81.3564 213.438C81.6547 213.438 81.9062 213.379 82.1107 213.262C82.3174 213.145 82.4729 212.993 82.5773 212.808C82.6839 212.623 82.7371 212.428 82.7371 212.223V211.533C82.7052 211.571 82.6349 211.606 82.5262 211.638C82.4197 211.668 82.2961 211.695 82.1555 211.718C82.017 211.739 81.8817 211.759 81.7496 211.776C81.6196 211.79 81.5141 211.803 81.4332 211.814C81.2371 211.839 81.0539 211.881 80.8834 211.939C80.7151 211.994 80.5787 212.078 80.4743 212.191C80.3721 212.302 80.3209 212.453 80.3209 212.645C80.3209 212.907 80.4179 213.105 80.6118 213.239C80.8078 213.371 81.056 213.438 81.3564 213.438ZM84.8681 214V209.091H85.5968V209.858H85.6607C85.763 209.596 85.9281 209.392 86.1561 209.248C86.3841 209.1 86.6578 209.027 86.9775 209.027C87.3013 209.027 87.5708 209.1 87.786 209.248C88.0034 209.392 88.1728 209.596 88.2942 209.858H88.3453C88.4711 209.604 88.6596 209.403 88.911 209.254C89.1625 209.103 89.464 209.027 89.8155 209.027C90.2544 209.027 90.6135 209.164 90.8926 209.439C91.1717 209.712 91.3113 210.137 91.3113 210.714V214H90.557V210.714C90.557 210.352 90.4579 210.093 90.2598 209.938C90.0616 209.782 89.8283 209.705 89.5598 209.705C89.2147 209.705 88.9473 209.809 88.7576 210.018C88.568 210.224 88.4732 210.487 88.4732 210.804V214H87.7061V210.638C87.7061 210.359 87.6156 210.134 87.4345 209.963C87.2534 209.791 87.0201 209.705 86.7346 209.705C86.5385 209.705 86.3553 209.757 86.1848 209.861C86.0165 209.966 85.8801 210.11 85.7757 210.296C85.6735 210.479 85.6223 210.691 85.6223 210.932V214H84.8681Z" fill="#545454"/>
<path d="M106.187 207.455V214H105.394V208.286H105.356L103.758 209.347V208.541L105.394 207.455H106.187ZM110.37 207.455V214H109.578V208.286H109.539L107.941 209.347V208.541L109.578 207.455H110.37ZM116.241 214.115C115.93 214.115 115.648 214.056 115.394 213.939C115.141 213.82 114.94 213.648 114.79 213.425C114.641 213.199 114.567 212.926 114.567 212.607C114.567 212.325 114.622 212.097 114.733 211.923C114.844 211.746 114.992 211.607 115.177 211.507C115.362 211.407 115.567 211.332 115.791 211.283C116.017 211.232 116.244 211.192 116.472 211.162C116.77 211.124 117.012 211.095 117.197 211.076C117.384 211.054 117.521 211.019 117.606 210.97C117.693 210.921 117.737 210.836 117.737 210.714V210.689C117.737 210.374 117.651 210.129 117.478 209.954C117.308 209.779 117.049 209.692 116.702 209.692C116.342 209.692 116.059 209.771 115.855 209.928C115.65 210.086 115.506 210.254 115.423 210.433L114.707 210.178C114.835 209.879 115.006 209.647 115.219 209.481C115.434 209.312 115.668 209.195 115.922 209.129C116.177 209.061 116.429 209.027 116.676 209.027C116.834 209.027 117.015 209.046 117.219 209.085C117.426 209.121 117.625 209.196 117.817 209.311C118.011 209.426 118.172 209.6 118.3 209.832C118.427 210.065 118.491 210.376 118.491 210.766V214H117.737V213.335H117.699C117.648 213.442 117.562 213.556 117.443 213.677C117.324 213.799 117.165 213.902 116.967 213.987C116.769 214.072 116.527 214.115 116.241 214.115ZM116.356 213.438C116.655 213.438 116.906 213.379 117.111 213.262C117.317 213.145 117.473 212.993 117.577 212.808C117.684 212.623 117.737 212.428 117.737 212.223V211.533C117.705 211.571 117.635 211.606 117.526 211.638C117.42 211.668 117.296 211.695 117.155 211.718C117.017 211.739 116.882 211.759 116.75 211.776C116.62 211.79 116.514 211.803 116.433 211.814C116.237 211.839 116.054 211.881 115.883 211.939C115.715 211.994 115.579 212.078 115.474 212.191C115.372 212.302 115.321 212.453 115.321 212.645C115.321 212.907 115.418 213.105 115.612 213.239C115.808 213.371 116.056 213.438 116.356 213.438ZM119.868 214V209.091H120.597V209.858H120.661C120.763 209.596 120.928 209.392 121.156 209.248C121.384 209.1 121.658 209.027 121.977 209.027C122.301 209.027 122.571 209.1 122.786 209.248C123.003 209.392 123.173 209.596 123.294 209.858H123.345C123.471 209.604 123.66 209.403 123.911 209.254C124.162 209.103 124.464 209.027 124.816 209.027C125.254 209.027 125.613 209.164 125.893 209.439C126.172 209.712 126.311 210.137 126.311 210.714V214H125.557V210.714C125.557 210.352 125.458 210.093 125.26 209.938C125.062 209.782 124.828 209.705 124.56 209.705C124.215 209.705 123.947 209.809 123.758 210.018C123.568 210.224 123.473 210.487 123.473 210.804V214H122.706V210.638C122.706 210.359 122.616 210.134 122.434 209.963C122.253 209.791 122.02 209.705 121.735 209.705C121.539 209.705 121.355 209.757 121.185 209.861C121.017 209.966 120.88 210.11 120.776 210.296C120.673 210.479 120.622 210.691 120.622 210.932V214H119.868Z" fill="#545454"/>
<path d="M141.508 207.455V214H140.715V208.286H140.677L139.079 209.347V208.541L140.715 207.455H141.508ZM143.39 214V213.425L145.551 211.06C145.805 210.783 146.013 210.542 146.177 210.337C146.341 210.131 146.463 209.937 146.542 209.756C146.623 209.572 146.663 209.381 146.663 209.18C146.663 208.95 146.608 208.751 146.497 208.583C146.388 208.414 146.239 208.284 146.05 208.193C145.86 208.101 145.647 208.055 145.41 208.055C145.159 208.055 144.939 208.108 144.752 208.212C144.567 208.314 144.423 208.458 144.32 208.643C144.22 208.829 144.17 209.046 144.17 209.295H143.416C143.416 208.912 143.504 208.575 143.681 208.286C143.858 207.996 144.099 207.77 144.404 207.608C144.71 207.446 145.055 207.365 145.436 207.365C145.819 207.365 146.159 207.446 146.455 207.608C146.752 207.77 146.984 207.988 147.152 208.263C147.32 208.538 147.405 208.844 147.405 209.18C147.405 209.421 147.361 209.657 147.274 209.887C147.188 210.115 147.039 210.369 146.826 210.651C146.615 210.93 146.322 211.271 145.947 211.673L144.477 213.246V213.297H147.52V214H143.39ZM151.384 215.841V209.091H152.112V209.871H152.202C152.257 209.786 152.334 209.677 152.432 209.545C152.532 209.411 152.675 209.291 152.86 209.187C153.048 209.08 153.301 209.027 153.621 209.027C154.034 209.027 154.399 209.13 154.714 209.337C155.029 209.544 155.275 209.837 155.452 210.216C155.629 210.595 155.718 211.043 155.718 211.558C155.718 212.078 155.629 212.529 155.452 212.91C155.275 213.289 155.03 213.583 154.717 213.792C154.404 213.999 154.043 214.102 153.634 214.102C153.318 214.102 153.066 214.05 152.876 213.946C152.687 213.839 152.541 213.719 152.438 213.585C152.336 213.448 152.257 213.335 152.202 213.246H152.138V215.841H151.384ZM152.125 211.545C152.125 211.916 152.18 212.243 152.288 212.527C152.397 212.808 152.556 213.028 152.764 213.188C152.973 213.346 153.229 213.425 153.531 213.425C153.847 213.425 154.11 213.342 154.321 213.175C154.534 213.007 154.694 212.781 154.8 212.498C154.909 212.212 154.963 211.895 154.963 211.545C154.963 211.2 154.91 210.889 154.803 210.612C154.699 210.333 154.54 210.113 154.327 209.951C154.116 209.787 153.851 209.705 153.531 209.705C153.225 209.705 152.967 209.782 152.758 209.938C152.549 210.091 152.392 210.306 152.285 210.583C152.178 210.858 152.125 211.179 152.125 211.545ZM156.868 214V209.091H157.597V209.858H157.661C157.763 209.596 157.928 209.392 158.156 209.248C158.384 209.1 158.658 209.027 158.977 209.027C159.301 209.027 159.571 209.1 159.786 209.248C160.003 209.392 160.173 209.596 160.294 209.858H160.345C160.471 209.604 160.66 209.403 160.911 209.254C161.162 209.103 161.464 209.027 161.816 209.027C162.254 209.027 162.613 209.164 162.893 209.439C163.172 209.712 163.311 210.137 163.311 210.714V214H162.557V210.714C162.557 210.352 162.458 210.093 162.26 209.938C162.062 209.782 161.828 209.705 161.56 209.705C161.215 209.705 160.947 209.809 160.758 210.018C160.568 210.224 160.473 210.487 160.473 210.804V214H159.706V210.638C159.706 210.359 159.616 210.134 159.434 209.963C159.253 209.791 159.02 209.705 158.735 209.705C158.539 209.705 158.355 209.757 158.185 209.861C158.017 209.966 157.88 210.11 157.776 210.296C157.673 210.479 157.622 210.691 157.622 210.932V214H156.868Z" fill="#545454"/>
<path d="M178.957 207.455V214H178.165V208.286H178.126L176.528 209.347V208.541L178.165 207.455H178.957ZM183.384 215.841V209.091H184.112V209.871H184.202C184.257 209.786 184.334 209.677 184.432 209.545C184.532 209.411 184.675 209.291 184.86 209.187C185.048 209.08 185.301 209.027 185.621 209.027C186.034 209.027 186.399 209.13 186.714 209.337C187.029 209.544 187.275 209.837 187.452 210.216C187.629 210.595 187.718 211.043 187.718 211.558C187.718 212.078 187.629 212.529 187.452 212.91C187.275 213.289 187.03 213.583 186.717 213.792C186.404 213.999 186.043 214.102 185.634 214.102C185.318 214.102 185.066 214.05 184.876 213.946C184.687 213.839 184.541 213.719 184.438 213.585C184.336 213.448 184.257 213.335 184.202 213.246H184.138V215.841H183.384ZM184.125 211.545C184.125 211.916 184.18 212.243 184.288 212.527C184.397 212.808 184.556 213.028 184.764 213.188C184.973 213.346 185.229 213.425 185.531 213.425C185.847 213.425 186.11 213.342 186.321 213.175C186.534 213.007 186.694 212.781 186.8 212.498C186.909 212.212 186.963 211.895 186.963 211.545C186.963 211.2 186.91 210.889 186.803 210.612C186.699 210.333 186.54 210.113 186.327 209.951C186.116 209.787 185.851 209.705 185.531 209.705C185.225 209.705 184.967 209.782 184.758 209.938C184.549 210.091 184.392 210.306 184.285 210.583C184.178 210.858 184.125 211.179 184.125 211.545ZM188.868 214V209.091H189.597V209.858H189.661C189.763 209.596 189.928 209.392 190.156 209.248C190.384 209.1 190.658 209.027 190.977 209.027C191.301 209.027 191.571 209.1 191.786 209.248C192.003 209.392 192.173 209.596 192.294 209.858H192.345C192.471 209.604 192.66 209.403 192.911 209.254C193.162 209.103 193.464 209.027 193.816 209.027C194.254 209.027 194.613 209.164 194.893 209.439C195.172 209.712 195.311 210.137 195.311 210.714V214H194.557V210.714C194.557 210.352 194.458 210.093 194.26 209.938C194.062 209.782 193.828 209.705 193.56 209.705C193.215 209.705 192.947 209.809 192.758 210.018C192.568 210.224 192.473 210.487 192.473 210.804V214H191.706V210.638C191.706 210.359 191.616 210.134 191.434 209.963C191.253 209.791 191.02 209.705 190.735 209.705C190.539 209.705 190.355 209.757 190.185 209.861C190.017 209.966 189.88 210.11 189.776 210.296C189.673 210.479 189.622 210.691 189.622 210.932V214H188.868Z" fill="#545454"/>
<path d="M208.39 214V213.425L210.551 211.06C210.805 210.783 211.013 210.542 211.177 210.337C211.341 210.131 211.463 209.937 211.542 209.756C211.623 209.572 211.663 209.381 211.663 209.18C211.663 208.95 211.608 208.751 211.497 208.583C211.388 208.414 211.239 208.284 211.05 208.193C210.86 208.101 210.647 208.055 210.41 208.055C210.159 208.055 209.939 208.108 209.752 208.212C209.567 208.314 209.423 208.458 209.32 208.643C209.22 208.829 209.17 209.046 209.17 209.295H208.416C208.416 208.912 208.504 208.575 208.681 208.286C208.858 207.996 209.099 207.77 209.404 207.608C209.71 207.446 210.055 207.365 210.436 207.365C210.819 207.365 211.159 207.446 211.455 207.608C211.752 207.77 211.984 207.988 212.152 208.263C212.32 208.538 212.405 208.844 212.405 209.18C212.405 209.421 212.361 209.657 212.274 209.887C212.188 210.115 212.039 210.369 211.826 210.651C211.615 210.93 211.322 211.271 210.947 211.673L209.477 213.246V213.297H212.52V214H208.39ZM216.384 215.841V209.091H217.112V209.871H217.202C217.257 209.786 217.334 209.677 217.432 209.545C217.532 209.411 217.675 209.291 217.86 209.187C218.048 209.08 218.301 209.027 218.621 209.027C219.034 209.027 219.399 209.13 219.714 209.337C220.029 209.544 220.275 209.837 220.452 210.216C220.629 210.595 220.718 211.043 220.718 211.558C220.718 212.078 220.629 212.529 220.452 212.91C220.275 213.289 220.03 213.583 219.717 213.792C219.404 213.999 219.043 214.102 218.634 214.102C218.318 214.102 218.066 214.05 217.876 213.946C217.687 213.839 217.541 213.719 217.438 213.585C217.336 213.448 217.257 213.335 217.202 213.246H217.138V215.841H216.384ZM217.125 211.545C217.125 211.916 217.18 212.243 217.288 212.527C217.397 212.808 217.556 213.028 217.764 213.188C217.973 213.346 218.229 213.425 218.531 213.425C218.847 213.425 219.11 213.342 219.321 213.175C219.534 213.007 219.694 212.781 219.8 212.498C219.909 212.212 219.963 211.895 219.963 211.545C219.963 211.2 219.91 210.889 219.803 210.612C219.699 210.333 219.54 210.113 219.327 209.951C219.116 209.787 218.851 209.705 218.531 209.705C218.225 209.705 217.967 209.782 217.758 209.938C217.549 210.091 217.392 210.306 217.285 210.583C217.178 210.858 217.125 211.179 217.125 211.545ZM221.868 214V209.091H222.597V209.858H222.661C222.763 209.596 222.928 209.392 223.156 209.248C223.384 209.1 223.658 209.027 223.977 209.027C224.301 209.027 224.571 209.1 224.786 209.248C225.003 209.392 225.173 209.596 225.294 209.858H225.345C225.471 209.604 225.66 209.403 225.911 209.254C226.162 209.103 226.464 209.027 226.816 209.027C227.254 209.027 227.613 209.164 227.893 209.439C228.172 209.712 228.311 210.137 228.311 210.714V214H227.557V210.714C227.557 210.352 227.458 210.093 227.26 209.938C227.062 209.782 226.828 209.705 226.56 209.705C226.215 209.705 225.947 209.809 225.758 210.018C225.568 210.224 225.473 210.487 225.473 210.804V214H224.706V210.638C224.706 210.359 224.616 210.134 224.434 209.963C224.253 209.791 224.02 209.705 223.735 209.705C223.539 209.705 223.355 209.757 223.185 209.861C223.017 209.966 222.88 210.11 222.776 210.296C222.673 210.479 222.622 210.691 222.622 210.932V214H221.868Z" fill="#545454"/>
<path d="M243.321 214.089C242.899 214.089 242.523 214.017 242.193 213.872C241.865 213.727 241.604 213.526 241.41 213.268C241.218 213.008 241.113 212.707 241.096 212.364H241.902C241.919 212.575 241.991 212.757 242.119 212.91C242.247 213.061 242.414 213.179 242.621 213.262C242.828 213.345 243.057 213.386 243.308 213.386C243.589 213.386 243.839 213.337 244.056 213.239C244.273 213.141 244.444 213.005 244.567 212.83C244.691 212.656 244.753 212.453 244.753 212.223C244.753 211.982 244.693 211.77 244.574 211.587C244.454 211.402 244.28 211.257 244.05 211.152C243.819 211.048 243.538 210.996 243.206 210.996H242.682V210.293H243.206C243.466 210.293 243.694 210.246 243.89 210.152C244.088 210.058 244.242 209.926 244.353 209.756C244.466 209.585 244.523 209.385 244.523 209.155C244.523 208.933 244.474 208.74 244.376 208.576C244.278 208.412 244.139 208.284 243.96 208.193C243.783 208.101 243.574 208.055 243.334 208.055C243.108 208.055 242.895 208.097 242.694 208.18C242.496 208.261 242.334 208.379 242.209 208.535C242.083 208.688 242.015 208.874 242.004 209.091H241.237C241.25 208.748 241.353 208.447 241.547 208.19C241.741 207.93 241.994 207.727 242.308 207.582C242.623 207.437 242.969 207.365 243.346 207.365C243.751 207.365 244.099 207.447 244.388 207.611C244.678 207.773 244.901 207.987 245.056 208.254C245.212 208.52 245.29 208.808 245.29 209.116C245.29 209.485 245.193 209.799 244.999 210.059C244.807 210.319 244.546 210.499 244.216 210.599V210.651C244.629 210.719 244.952 210.895 245.184 211.178C245.416 211.459 245.532 211.808 245.532 212.223C245.532 212.579 245.436 212.898 245.242 213.182C245.05 213.463 244.788 213.685 244.455 213.847C244.123 214.009 243.745 214.089 243.321 214.089ZM249.384 215.841V209.091H250.112V209.871H250.202C250.257 209.786 250.334 209.677 250.432 209.545C250.532 209.411 250.675 209.291 250.86 209.187C251.048 209.08 251.301 209.027 251.621 209.027C252.034 209.027 252.399 209.13 252.714 209.337C253.029 209.544 253.275 209.837 253.452 210.216C253.629 210.595 253.718 211.043 253.718 211.558C253.718 212.078 253.629 212.529 253.452 212.91C253.275 213.289 253.03 213.583 252.717 213.792C252.404 213.999 252.043 214.102 251.634 214.102C251.318 214.102 251.066 214.05 250.876 213.946C250.687 213.839 250.541 213.719 250.438 213.585C250.336 213.448 250.257 213.335 250.202 213.246H250.138V215.841H249.384ZM250.125 211.545C250.125 211.916 250.18 212.243 250.288 212.527C250.397 212.808 250.556 213.028 250.764 213.188C250.973 213.346 251.229 213.425 251.531 213.425C251.847 213.425 252.11 213.342 252.321 213.175C252.534 213.007 252.694 212.781 252.8 212.498C252.909 212.212 252.963 211.895 252.963 211.545C252.963 211.2 252.91 210.889 252.803 210.612C252.699 210.333 252.54 210.113 252.327 209.951C252.116 209.787 251.851 209.705 251.531 209.705C251.225 209.705 250.967 209.782 250.758 209.938C250.549 210.091 250.392 210.306 250.285 210.583C250.178 210.858 250.125 211.179 250.125 211.545ZM254.868 214V209.091H255.597V209.858H255.661C255.763 209.596 255.928 209.392 256.156 209.248C256.384 209.1 256.658 209.027 256.977 209.027C257.301 209.027 257.571 209.1 257.786 209.248C258.003 209.392 258.173 209.596 258.294 209.858H258.345C258.471 209.604 258.66 209.403 258.911 209.254C259.162 209.103 259.464 209.027 259.816 209.027C260.254 209.027 260.613 209.164 260.893 209.439C261.172 209.712 261.311 210.137 261.311 210.714V214H260.557V210.714C260.557 210.352 260.458 210.093 260.26 209.938C260.062 209.782 259.828 209.705 259.56 209.705C259.215 209.705 258.947 209.809 258.758 210.018C258.568 210.224 258.473 210.487 258.473 210.804V214H257.706V210.638C257.706 210.359 257.616 210.134 257.434 209.963C257.253 209.791 257.02 209.705 256.735 209.705C256.539 209.705 256.355 209.757 256.185 209.861C256.017 209.966 255.88 210.11 255.776 210.296C255.673 210.479 255.622 210.691 255.622 210.932V214H254.868Z" fill="#545454"/>
<path d="M273.912 212.658V212.006L276.788 207.455H277.261V208.464H276.942L274.768 211.903V211.955H278.642V212.658H273.912ZM276.993 214V212.46V212.156V207.455H277.747V214H276.993ZM282.384 215.841V209.091H283.112V209.871H283.202C283.257 209.786 283.334 209.677 283.432 209.545C283.532 209.411 283.675 209.291 283.86 209.187C284.048 209.08 284.301 209.027 284.621 209.027C285.034 209.027 285.399 209.13 285.714 209.337C286.029 209.544 286.275 209.837 286.452 210.216C286.629 210.595 286.718 211.043 286.718 211.558C286.718 212.078 286.629 212.529 286.452 212.91C286.275 213.289 286.03 213.583 285.717 213.792C285.404 213.999 285.043 214.102 284.634 214.102C284.318 214.102 284.066 214.05 283.876 213.946C283.687 213.839 283.541 213.719 283.438 213.585C283.336 213.448 283.257 213.335 283.202 213.246H283.138V215.841H282.384ZM283.125 211.545C283.125 211.916 283.18 212.243 283.288 212.527C283.397 212.808 283.556 213.028 283.764 213.188C283.973 213.346 284.229 213.425 284.531 213.425C284.847 213.425 285.11 213.342 285.321 213.175C285.534 213.007 285.694 212.781 285.8 212.498C285.909 212.212 285.963 211.895 285.963 211.545C285.963 211.2 285.91 210.889 285.803 210.612C285.699 210.333 285.54 210.113 285.327 209.951C285.116 209.787 284.851 209.705 284.531 209.705C284.225 209.705 283.967 209.782 283.758 209.938C283.549 210.091 283.392 210.306 283.285 210.583C283.178 210.858 283.125 211.179 283.125 211.545ZM287.868 214V209.091H288.597V209.858H288.661C288.763 209.596 288.928 209.392 289.156 209.248C289.384 209.1 289.658 209.027 289.977 209.027C290.301 209.027 290.571 209.1 290.786 209.248C291.003 209.392 291.173 209.596 291.294 209.858H291.345C291.471 209.604 291.66 209.403 291.911 209.254C292.162 209.103 292.464 209.027 292.816 209.027C293.254 209.027 293.613 209.164 293.893 209.439C294.172 209.712 294.311 210.137 294.311 210.714V214H293.557V210.714C293.557 210.352 293.458 210.093 293.26 209.938C293.062 209.782 292.828 209.705 292.56 209.705C292.215 209.705 291.947 209.809 291.758 210.018C291.568 210.224 291.473 210.487 291.473 210.804V214H290.706V210.638C290.706 210.359 290.616 210.134 290.434 209.963C290.253 209.791 290.02 209.705 289.735 209.705C289.539 209.705 289.355 209.757 289.185 209.861C289.017 209.966 288.88 210.11 288.776 210.296C288.673 210.479 288.622 210.691 288.622 210.932V214H287.868Z" fill="#545454"/>
<path d="M309.41 214.089C309.035 214.089 308.697 214.015 308.396 213.866C308.096 213.717 307.855 213.512 307.674 213.252C307.493 212.992 307.394 212.696 307.377 212.364H308.144C308.174 212.66 308.308 212.905 308.547 213.099C308.787 213.29 309.075 213.386 309.41 213.386C309.678 213.386 309.917 213.324 310.125 213.198C310.336 213.072 310.502 212.9 310.621 212.68C310.742 212.458 310.803 212.208 310.803 211.929C310.803 211.643 310.74 211.389 310.614 211.165C310.491 210.939 310.32 210.761 310.103 210.631C309.886 210.501 309.638 210.435 309.358 210.433C309.158 210.431 308.953 210.462 308.742 210.526C308.531 210.588 308.357 210.668 308.221 210.766L307.479 210.676L307.875 207.455H311.276V208.158H308.54L308.31 210.088H308.348C308.483 209.982 308.651 209.893 308.853 209.823C309.056 209.752 309.267 209.717 309.486 209.717C309.887 209.717 310.244 209.813 310.557 210.005C310.872 210.195 311.119 210.455 311.298 210.785C311.479 211.115 311.57 211.492 311.57 211.916C311.57 212.334 311.476 212.707 311.289 213.035C311.103 213.361 310.848 213.619 310.522 213.808C310.196 213.996 309.825 214.089 309.41 214.089ZM315.384 215.841V209.091H316.112V209.871H316.202C316.257 209.786 316.334 209.677 316.432 209.545C316.532 209.411 316.675 209.291 316.86 209.187C317.048 209.08 317.301 209.027 317.621 209.027C318.034 209.027 318.399 209.13 318.714 209.337C319.029 209.544 319.275 209.837 319.452 210.216C319.629 210.595 319.718 211.043 319.718 211.558C319.718 212.078 319.629 212.529 319.452 212.91C319.275 213.289 319.03 213.583 318.717 213.792C318.404 213.999 318.043 214.102 317.634 214.102C317.318 214.102 317.066 214.05 316.876 213.946C316.687 213.839 316.541 213.719 316.438 213.585C316.336 213.448 316.257 213.335 316.202 213.246H316.138V215.841H315.384ZM316.125 211.545C316.125 211.916 316.18 212.243 316.288 212.527C316.397 212.808 316.556 213.028 316.764 213.188C316.973 213.346 317.229 213.425 317.531 213.425C317.847 213.425 318.11 213.342 318.321 213.175C318.534 213.007 318.694 212.781 318.8 212.498C318.909 212.212 318.963 211.895 318.963 211.545C318.963 211.2 318.91 210.889 318.803 210.612C318.699 210.333 318.54 210.113 318.327 209.951C318.116 209.787 317.851 209.705 317.531 209.705C317.225 209.705 316.967 209.782 316.758 209.938C316.549 210.091 316.392 210.306 316.285 210.583C316.178 210.858 316.125 211.179 316.125 211.545ZM320.868 214V209.091H321.597V209.858H321.661C321.763 209.596 321.928 209.392 322.156 209.248C322.384 209.1 322.658 209.027 322.977 209.027C323.301 209.027 323.571 209.1 323.786 209.248C324.003 209.392 324.173 209.596 324.294 209.858H324.345C324.471 209.604 324.66 209.403 324.911 209.254C325.162 209.103 325.464 209.027 325.816 209.027C326.254 209.027 326.613 209.164 326.893 209.439C327.172 209.712 327.311 210.137 327.311 210.714V214H326.557V210.714C326.557 210.352 326.458 210.093 326.26 209.938C326.062 209.782 325.828 209.705 325.56 209.705C325.215 209.705 324.947 209.809 324.758 210.018C324.568 210.224 324.473 210.487 324.473 210.804V214H323.706V210.638C323.706 210.359 323.616 210.134 323.434 209.963C323.253 209.791 323.02 209.705 322.735 209.705C322.539 209.705 322.355 209.757 322.185 209.861C322.017 209.966 321.88 210.11 321.776 210.296C321.673 210.479 321.622 210.691 321.622 210.932V214H320.868Z" fill="#545454"/>
<path d="M342.397 214.089C342.128 214.085 341.86 214.034 341.591 213.936C341.323 213.838 341.078 213.673 340.856 213.441C340.635 213.206 340.457 212.89 340.323 212.491C340.188 212.091 340.121 211.588 340.121 210.983C340.121 210.403 340.176 209.89 340.284 209.442C340.393 208.993 340.551 208.615 340.757 208.308C340.964 207.999 341.213 207.765 341.505 207.605C341.799 207.445 342.13 207.365 342.499 207.365C342.866 207.365 343.191 207.439 343.477 207.586C343.765 207.73 343.999 207.933 344.18 208.193C344.361 208.453 344.478 208.752 344.532 209.091H343.752C343.679 208.797 343.539 208.553 343.33 208.359C343.121 208.165 342.844 208.068 342.499 208.068C341.992 208.068 341.592 208.289 341.301 208.73C341.011 209.171 340.865 209.79 340.863 210.587H340.914C341.033 210.406 341.175 210.251 341.339 210.123C341.505 209.993 341.688 209.893 341.889 209.823C342.089 209.752 342.301 209.717 342.525 209.717C342.9 209.717 343.243 209.811 343.554 209.999C343.865 210.184 344.114 210.441 344.302 210.769C344.489 211.095 344.583 211.469 344.583 211.891C344.583 212.295 344.492 212.666 344.311 213.003C344.13 213.337 343.875 213.604 343.547 213.802C343.221 213.998 342.838 214.094 342.397 214.089ZM342.397 213.386C342.665 213.386 342.906 213.319 343.119 213.185C343.334 213.051 343.504 212.871 343.627 212.645C343.753 212.419 343.816 212.168 343.816 211.891C343.816 211.62 343.755 211.374 343.634 211.152C343.514 210.929 343.349 210.751 343.138 210.619C342.929 210.487 342.691 210.42 342.422 210.42C342.22 210.42 342.031 210.461 341.857 210.542C341.682 210.621 341.528 210.729 341.396 210.868C341.266 211.006 341.164 211.165 341.09 211.344C341.015 211.521 340.978 211.707 340.978 211.903C340.978 212.163 341.038 212.406 341.16 212.632C341.283 212.858 341.452 213.04 341.665 213.179C341.88 213.317 342.124 213.386 342.397 213.386ZM348.384 215.841V209.091H349.112V209.871H349.202C349.257 209.786 349.334 209.677 349.432 209.545C349.532 209.411 349.675 209.291 349.86 209.187C350.048 209.08 350.301 209.027 350.621 209.027C351.034 209.027 351.399 209.13 351.714 209.337C352.029 209.544 352.275 209.837 352.452 210.216C352.629 210.595 352.718 211.043 352.718 211.558C352.718 212.078 352.629 212.529 352.452 212.91C352.275 213.289 352.03 213.583 351.717 213.792C351.404 213.999 351.043 214.102 350.634 214.102C350.318 214.102 350.066 214.05 349.876 213.946C349.687 213.839 349.541 213.719 349.438 213.585C349.336 213.448 349.257 213.335 349.202 213.246H349.138V215.841H348.384ZM349.125 211.545C349.125 211.916 349.18 212.243 349.288 212.527C349.397 212.808 349.556 213.028 349.764 213.188C349.973 213.346 350.229 213.425 350.531 213.425C350.847 213.425 351.11 213.342 351.321 213.175C351.534 213.007 351.694 212.781 351.8 212.498C351.909 212.212 351.963 211.895 351.963 211.545C351.963 211.2 351.91 210.889 351.803 210.612C351.699 210.333 351.54 210.113 351.327 209.951C351.116 209.787 350.851 209.705 350.531 209.705C350.225 209.705 349.967 209.782 349.758 209.938C349.549 210.091 349.392 210.306 349.285 210.583C349.178 210.858 349.125 211.179 349.125 211.545ZM353.868 214V209.091H354.597V209.858H354.661C354.763 209.596 354.928 209.392 355.156 209.248C355.384 209.1 355.658 209.027 355.977 209.027C356.301 209.027 356.571 209.1 356.786 209.248C357.003 209.392 357.173 209.596 357.294 209.858H357.345C357.471 209.604 357.66 209.403 357.911 209.254C358.162 209.103 358.464 209.027 358.816 209.027C359.254 209.027 359.613 209.164 359.893 209.439C360.172 209.712 360.311 210.137 360.311 210.714V214H359.557V210.714C359.557 210.352 359.458 210.093 359.26 209.938C359.062 209.782 358.828 209.705 358.56 209.705C358.215 209.705 357.947 209.809 357.758 210.018C357.568 210.224 357.473 210.487 357.473 210.804V214H356.706V210.638C356.706 210.359 356.616 210.134 356.434 209.963C356.253 209.791 356.02 209.705 355.735 209.705C355.539 209.705 355.355 209.757 355.185 209.861C355.017 209.966 354.88 210.11 354.776 210.296C354.673 210.479 354.622 210.691 354.622 210.932V214H353.868Z" fill="#545454"/>
<path d="M372.903 214L375.83 208.209V208.158H372.455V207.455H376.648V208.196L373.734 214H372.903ZM380.384 215.841V209.091H381.112V209.871H381.202C381.257 209.786 381.334 209.677 381.432 209.545C381.532 209.411 381.675 209.291 381.86 209.187C382.048 209.08 382.301 209.027 382.621 209.027C383.034 209.027 383.399 209.13 383.714 209.337C384.029 209.544 384.275 209.837 384.452 210.216C384.629 210.595 384.718 211.043 384.718 211.558C384.718 212.078 384.629 212.529 384.452 212.91C384.275 213.289 384.03 213.583 383.717 213.792C383.404 213.999 383.043 214.102 382.634 214.102C382.318 214.102 382.066 214.05 381.876 213.946C381.687 213.839 381.541 213.719 381.438 213.585C381.336 213.448 381.257 213.335 381.202 213.246H381.138V215.841H380.384ZM381.125 211.545C381.125 211.916 381.18 212.243 381.288 212.527C381.397 212.808 381.556 213.028 381.764 213.188C381.973 213.346 382.229 213.425 382.531 213.425C382.847 213.425 383.11 213.342 383.321 213.175C383.534 213.007 383.694 212.781 383.8 212.498C383.909 212.212 383.963 211.895 383.963 211.545C383.963 211.2 383.91 210.889 383.803 210.612C383.699 210.333 383.54 210.113 383.327 209.951C383.116 209.787 382.851 209.705 382.531 209.705C382.225 209.705 381.967 209.782 381.758 209.938C381.549 210.091 381.392 210.306 381.285 210.583C381.178 210.858 381.125 211.179 381.125 211.545ZM385.868 214V209.091H386.597V209.858H386.661C386.763 209.596 386.928 209.392 387.156 209.248C387.384 209.1 387.658 209.027 387.977 209.027C388.301 209.027 388.571 209.1 388.786 209.248C389.003 209.392 389.173 209.596 389.294 209.858H389.345C389.471 209.604 389.66 209.403 389.911 209.254C390.162 209.103 390.464 209.027 390.816 209.027C391.254 209.027 391.613 209.164 391.893 209.439C392.172 209.712 392.311 210.137 392.311 210.714V214H391.557V210.714C391.557 210.352 391.458 210.093 391.26 209.938C391.062 209.782 390.828 209.705 390.56 209.705C390.215 209.705 389.947 209.809 389.758 210.018C389.568 210.224 389.473 210.487 389.473 210.804V214H388.706V210.638C388.706 210.359 388.616 210.134 388.434 209.963C388.253 209.791 388.02 209.705 387.735 209.705C387.539 209.705 387.355 209.757 387.185 209.861C387.017 209.966 386.88 210.11 386.776 210.296C386.673 210.479 386.622 210.691 386.622 210.932V214H385.868Z" fill="#545454"/>
<path d="M407.39 214.089C406.951 214.089 406.564 214.012 406.227 213.856C405.892 213.699 405.631 213.482 405.444 213.207C405.256 212.93 405.164 212.615 405.166 212.261C405.164 211.984 405.218 211.729 405.329 211.494C405.44 211.258 405.591 211.061 405.783 210.903C405.977 210.743 406.193 210.642 406.432 210.599V210.561C406.118 210.48 405.869 210.304 405.684 210.034C405.498 209.761 405.407 209.451 405.409 209.104C405.407 208.771 405.491 208.474 405.661 208.212C405.832 207.95 406.066 207.743 406.364 207.592C406.665 207.441 407.007 207.365 407.39 207.365C407.77 207.365 408.108 207.441 408.407 207.592C408.705 207.743 408.939 207.95 409.11 208.212C409.282 208.474 409.37 208.771 409.372 209.104C409.37 209.451 409.275 209.761 409.087 210.034C408.902 210.304 408.656 210.48 408.349 210.561V210.599C408.586 210.642 408.799 210.743 408.988 210.903C409.178 211.061 409.329 211.258 409.442 211.494C409.555 211.729 409.613 211.984 409.615 212.261C409.613 212.615 409.517 212.93 409.327 213.207C409.14 213.482 408.879 213.699 408.544 213.856C408.212 214.012 407.827 214.089 407.39 214.089ZM407.39 213.386C407.687 213.386 407.942 213.338 408.157 213.243C408.373 213.147 408.539 213.011 408.656 212.837C408.773 212.662 408.833 212.457 408.835 212.223C408.833 211.976 408.769 211.757 408.643 211.568C408.517 211.378 408.346 211.229 408.129 211.12C407.913 211.012 407.667 210.957 407.39 210.957C407.111 210.957 406.862 211.012 406.642 211.12C406.425 211.229 406.254 211.378 406.128 211.568C406.004 211.757 405.944 211.976 405.946 212.223C405.944 212.457 406 212.662 406.115 212.837C406.232 213.011 406.4 213.147 406.617 213.243C406.834 213.338 407.092 213.386 407.39 213.386ZM407.39 210.28C407.625 210.28 407.832 210.233 408.014 210.139C408.197 210.045 408.341 209.914 408.445 209.746C408.549 209.578 408.603 209.381 408.605 209.155C408.603 208.933 408.551 208.74 408.448 208.576C408.346 208.41 408.204 208.282 408.023 208.193C407.842 208.101 407.631 208.055 407.39 208.055C407.145 208.055 406.931 208.101 406.748 208.193C406.565 208.282 406.423 208.41 406.323 208.576C406.223 208.74 406.174 208.933 406.176 209.155C406.174 209.381 406.224 209.578 406.326 209.746C406.43 209.914 406.574 210.045 406.758 210.139C406.941 210.233 407.152 210.28 407.39 210.28ZM413.384 215.841V209.091H414.112V209.871H414.202C414.257 209.786 414.334 209.677 414.432 209.545C414.532 209.411 414.675 209.291 414.86 209.187C415.048 209.08 415.301 209.027 415.621 209.027C416.034 209.027 416.399 209.13 416.714 209.337C417.029 209.544 417.275 209.837 417.452 210.216C417.629 210.595 417.718 211.043 417.718 211.558C417.718 212.078 417.629 212.529 417.452 212.91C417.275 213.289 417.03 213.583 416.717 213.792C416.404 213.999 416.043 214.102 415.634 214.102C415.318 214.102 415.066 214.05 414.876 213.946C414.687 213.839 414.541 213.719 414.438 213.585C414.336 213.448 414.257 213.335 414.202 213.246H414.138V215.841H413.384ZM414.125 211.545C414.125 211.916 414.18 212.243 414.288 212.527C414.397 212.808 414.556 213.028 414.764 213.188C414.973 213.346 415.229 213.425 415.531 213.425C415.847 213.425 416.11 213.342 416.321 213.175C416.534 213.007 416.694 212.781 416.8 212.498C416.909 212.212 416.963 211.895 416.963 211.545C416.963 211.2 416.91 210.889 416.803 210.612C416.699 210.333 416.54 210.113 416.327 209.951C416.116 209.787 415.851 209.705 415.531 209.705C415.225 209.705 414.967 209.782 414.758 209.938C414.549 210.091 414.392 210.306 414.285 210.583C414.178 210.858 414.125 211.179 414.125 211.545ZM418.868 214V209.091H419.597V209.858H419.661C419.763 209.596 419.928 209.392 420.156 209.248C420.384 209.1 420.658 209.027 420.977 209.027C421.301 209.027 421.571 209.1 421.786 209.248C422.003 209.392 422.173 209.596 422.294 209.858H422.345C422.471 209.604 422.66 209.403 422.911 209.254C423.162 209.103 423.464 209.027 423.816 209.027C424.254 209.027 424.613 209.164 424.893 209.439C425.172 209.712 425.311 210.137 425.311 210.714V214H424.557V210.714C424.557 210.352 424.458 210.093 424.26 209.938C424.062 209.782 423.828 209.705 423.56 209.705C423.215 209.705 422.947 209.809 422.758 210.018C422.568 210.224 422.473 210.487 422.473 210.804V214H421.706V210.638C421.706 210.359 421.616 210.134 421.434 209.963C421.253 209.791 421.02 209.705 420.735 209.705C420.539 209.705 420.355 209.757 420.185 209.861C420.017 209.966 419.88 210.11 419.776 210.296C419.673 210.479 419.622 210.691 419.622 210.932V214H418.868Z" fill="#545454"/>
<path d="M440.307 207.365C440.576 207.367 440.844 207.418 441.113 207.518C441.381 207.619 441.626 207.785 441.848 208.017C442.069 208.247 442.247 208.561 442.381 208.96C442.516 209.358 442.583 209.858 442.583 210.459C442.583 211.04 442.527 211.557 442.417 212.009C442.308 212.458 442.15 212.838 441.944 213.147C441.739 213.456 441.49 213.69 441.196 213.85C440.904 214.01 440.574 214.089 440.205 214.089C439.839 214.089 439.511 214.017 439.224 213.872C438.938 213.725 438.704 213.522 438.521 213.262C438.34 213 438.223 212.696 438.172 212.351H438.952C439.022 212.651 439.162 212.9 439.371 213.096C439.582 213.289 439.86 213.386 440.205 213.386C440.71 213.386 441.108 213.166 441.4 212.725C441.694 212.284 441.841 211.661 441.841 210.855H441.79C441.671 211.034 441.529 211.189 441.365 211.319C441.201 211.449 441.019 211.549 440.819 211.619C440.618 211.689 440.405 211.724 440.179 211.724C439.804 211.724 439.46 211.632 439.147 211.446C438.836 211.259 438.587 211.002 438.399 210.676C438.214 210.348 438.121 209.973 438.121 209.551C438.121 209.151 438.211 208.784 438.39 208.452C438.571 208.117 438.824 207.851 439.15 207.653C439.478 207.455 439.864 207.359 440.307 207.365ZM440.307 208.068C440.039 208.068 439.797 208.135 439.582 208.27C439.369 208.402 439.199 208.581 439.074 208.806C438.95 209.03 438.888 209.278 438.888 209.551C438.888 209.824 438.948 210.072 439.067 210.296C439.189 210.517 439.354 210.694 439.563 210.826C439.774 210.956 440.013 211.021 440.282 211.021C440.484 211.021 440.673 210.982 440.847 210.903C441.022 210.822 441.174 210.712 441.304 210.574C441.437 210.433 441.54 210.275 441.614 210.098C441.689 209.919 441.726 209.732 441.726 209.538C441.726 209.283 441.665 209.043 441.541 208.819C441.419 208.596 441.251 208.414 441.036 208.276C440.823 208.137 440.58 208.068 440.307 208.068ZM446.384 215.841V209.091H447.112V209.871H447.202C447.257 209.786 447.334 209.677 447.432 209.545C447.532 209.411 447.675 209.291 447.86 209.187C448.048 209.08 448.301 209.027 448.621 209.027C449.034 209.027 449.399 209.13 449.714 209.337C450.029 209.544 450.275 209.837 450.452 210.216C450.629 210.595 450.718 211.043 450.718 211.558C450.718 212.078 450.629 212.529 450.452 212.91C450.275 213.289 450.03 213.583 449.717 213.792C449.404 213.999 449.043 214.102 448.634 214.102C448.318 214.102 448.066 214.05 447.876 213.946C447.687 213.839 447.541 213.719 447.438 213.585C447.336 213.448 447.257 213.335 447.202 213.246H447.138V215.841H446.384ZM447.125 211.545C447.125 211.916 447.18 212.243 447.288 212.527C447.397 212.808 447.556 213.028 447.764 213.188C447.973 213.346 448.229 213.425 448.531 213.425C448.847 213.425 449.11 213.342 449.321 213.175C449.534 213.007 449.694 212.781 449.8 212.498C449.909 212.212 449.963 211.895 449.963 211.545C449.963 211.2 449.91 210.889 449.803 210.612C449.699 210.333 449.54 210.113 449.327 209.951C449.116 209.787 448.851 209.705 448.531 209.705C448.225 209.705 447.967 209.782 447.758 209.938C447.549 210.091 447.392 210.306 447.285 210.583C447.178 210.858 447.125 211.179 447.125 211.545ZM451.868 214V209.091H452.597V209.858H452.661C452.763 209.596 452.928 209.392 453.156 209.248C453.384 209.1 453.658 209.027 453.977 209.027C454.301 209.027 454.571 209.1 454.786 209.248C455.003 209.392 455.173 209.596 455.294 209.858H455.345C455.471 209.604 455.66 209.403 455.911 209.254C456.162 209.103 456.464 209.027 456.816 209.027C457.254 209.027 457.613 209.164 457.893 209.439C458.172 209.712 458.311 210.137 458.311 210.714V214H457.557V210.714C457.557 210.352 457.458 210.093 457.26 209.938C457.062 209.782 456.828 209.705 456.56 209.705C456.215 209.705 455.947 209.809 455.758 210.018C455.568 210.224 455.473 210.487 455.473 210.804V214H454.706V210.638C454.706 210.359 454.616 210.134 454.434 209.963C454.253 209.791 454.02 209.705 453.735 209.705C453.539 209.705 453.355 209.757 453.185 209.861C453.017 209.966 452.88 210.11 452.776 210.296C452.673 210.479 452.622 210.691 452.622 210.932V214H451.868Z" fill="#545454"/>
<path d="M473.332 207.455V214H472.54V208.286H472.501L470.903 209.347V208.541L472.54 207.455H473.332ZM477.35 214.089C476.868 214.089 476.458 213.958 476.119 213.696C475.78 213.432 475.521 213.05 475.343 212.549C475.164 212.046 475.074 211.439 475.074 210.727C475.074 210.02 475.164 209.416 475.343 208.915C475.524 208.412 475.784 208.029 476.122 207.765C476.463 207.498 476.872 207.365 477.35 207.365C477.827 207.365 478.235 207.498 478.574 207.765C478.915 208.029 479.175 208.412 479.354 208.915C479.535 209.416 479.625 210.02 479.625 210.727C479.625 211.439 479.536 212.046 479.357 212.549C479.178 213.05 478.919 213.432 478.58 213.696C478.241 213.958 477.831 214.089 477.35 214.089ZM477.35 213.386C477.827 213.386 478.198 213.156 478.462 212.696C478.726 212.236 478.858 211.58 478.858 210.727C478.858 210.161 478.797 209.678 478.676 209.279C478.557 208.881 478.384 208.577 478.158 208.369C477.934 208.16 477.665 208.055 477.35 208.055C476.877 208.055 476.507 208.289 476.241 208.755C475.974 209.22 475.841 209.877 475.841 210.727C475.841 211.294 475.901 211.776 476.02 212.172C476.139 212.568 476.311 212.87 476.535 213.076C476.76 213.283 477.032 213.386 477.35 213.386ZM483.384 215.841V209.091H484.112V209.871H484.202C484.257 209.786 484.334 209.677 484.432 209.545C484.532 209.411 484.675 209.291 484.86 209.187C485.048 209.08 485.301 209.027 485.621 209.027C486.034 209.027 486.399 209.13 486.714 209.337C487.029 209.544 487.275 209.837 487.452 210.216C487.629 210.595 487.718 211.043 487.718 211.558C487.718 212.078 487.629 212.529 487.452 212.91C487.275 213.289 487.03 213.583 486.717 213.792C486.404 213.999 486.043 214.102 485.634 214.102C485.318 214.102 485.066 214.05 484.876 213.946C484.687 213.839 484.541 213.719 484.438 213.585C484.336 213.448 484.257 213.335 484.202 213.246H484.138V215.841H483.384ZM484.125 211.545C484.125 211.916 484.18 212.243 484.288 212.527C484.397 212.808 484.556 213.028 484.764 213.188C484.973 213.346 485.229 213.425 485.531 213.425C485.847 213.425 486.11 213.342 486.321 213.175C486.534 213.007 486.694 212.781 486.8 212.498C486.909 212.212 486.963 211.895 486.963 211.545C486.963 211.2 486.91 210.889 486.803 210.612C486.699 210.333 486.54 210.113 486.327 209.951C486.116 209.787 485.851 209.705 485.531 209.705C485.225 209.705 484.967 209.782 484.758 209.938C484.549 210.091 484.392 210.306 484.285 210.583C484.178 210.858 484.125 211.179 484.125 211.545ZM488.868 214V209.091H489.597V209.858H489.661C489.763 209.596 489.928 209.392 490.156 209.248C490.384 209.1 490.658 209.027 490.977 209.027C491.301 209.027 491.571 209.1 491.786 209.248C492.003 209.392 492.173 209.596 492.294 209.858H492.345C492.471 209.604 492.66 209.403 492.911 209.254C493.162 209.103 493.464 209.027 493.816 209.027C494.254 209.027 494.613 209.164 494.893 209.439C495.172 209.712 495.311 210.137 495.311 210.714V214H494.557V210.714C494.557 210.352 494.458 210.093 494.26 209.938C494.062 209.782 493.828 209.705 493.56 209.705C493.215 209.705 492.947 209.809 492.758 210.018C492.568 210.224 492.473 210.487 492.473 210.804V214H491.706V210.638C491.706 210.359 491.616 210.134 491.434 209.963C491.253 209.791 491.02 209.705 490.735 209.705C490.539 209.705 490.355 209.757 490.185 209.861C490.017 209.966 489.88 210.11 489.776 210.296C489.673 210.479 489.622 210.691 489.622 210.932V214H488.868Z" fill="#545454"/>
<path d="M510.774 207.455V214H509.981V208.286H509.943L508.345 209.347V208.541L509.981 207.455H510.774ZM514.957 207.455V214H514.165V208.286H514.126L512.528 209.347V208.541L514.165 207.455H514.957ZM519.384 215.841V209.091H520.112V209.871H520.202C520.257 209.786 520.334 209.677 520.432 209.545C520.532 209.411 520.675 209.291 520.86 209.187C521.048 209.08 521.301 209.027 521.621 209.027C522.034 209.027 522.399 209.13 522.714 209.337C523.029 209.544 523.275 209.837 523.452 210.216C523.629 210.595 523.718 211.043 523.718 211.558C523.718 212.078 523.629 212.529 523.452 212.91C523.275 213.289 523.03 213.583 522.717 213.792C522.404 213.999 522.043 214.102 521.634 214.102C521.318 214.102 521.066 214.05 520.876 213.946C520.687 213.839 520.541 213.719 520.438 213.585C520.336 213.448 520.257 213.335 520.202 213.246H520.138V215.841H519.384ZM520.125 211.545C520.125 211.916 520.18 212.243 520.288 212.527C520.397 212.808 520.556 213.028 520.764 213.188C520.973 213.346 521.229 213.425 521.531 213.425C521.847 213.425 522.11 213.342 522.321 213.175C522.534 213.007 522.694 212.781 522.8 212.498C522.909 212.212 522.963 211.895 522.963 211.545C522.963 211.2 522.91 210.889 522.803 210.612C522.699 210.333 522.54 210.113 522.327 209.951C522.116 209.787 521.851 209.705 521.531 209.705C521.225 209.705 520.967 209.782 520.758 209.938C520.549 210.091 520.392 210.306 520.285 210.583C520.178 210.858 520.125 211.179 520.125 211.545ZM524.868 214V209.091H525.597V209.858H525.661C525.763 209.596 525.928 209.392 526.156 209.248C526.384 209.1 526.658 209.027 526.977 209.027C527.301 209.027 527.571 209.1 527.786 209.248C528.003 209.392 528.173 209.596 528.294 209.858H528.345C528.471 209.604 528.66 209.403 528.911 209.254C529.162 209.103 529.464 209.027 529.816 209.027C530.254 209.027 530.613 209.164 530.893 209.439C531.172 209.712 531.311 210.137 531.311 210.714V214H530.557V210.714C530.557 210.352 530.458 210.093 530.26 209.938C530.062 209.782 529.828 209.705 529.56 209.705C529.215 209.705 528.947 209.809 528.758 210.018C528.568 210.224 528.473 210.487 528.473 210.804V214H527.706V210.638C527.706 210.359 527.616 210.134 527.434 209.963C527.253 209.791 527.02 209.705 526.735 209.705C526.539 209.705 526.355 209.757 526.185 209.861C526.017 209.966 525.88 210.11 525.776 210.296C525.673 210.479 525.622 210.691 525.622 210.932V214H524.868Z" fill="#545454"/>
<path d="M546.508 207.455V214H545.715V208.286H545.677L544.079 209.347V208.541L545.715 207.455H546.508ZM548.39 214V213.425L550.551 211.06C550.805 210.783 551.013 210.542 551.177 210.337C551.341 210.131 551.463 209.937 551.542 209.756C551.623 209.572 551.663 209.381 551.663 209.18C551.663 208.95 551.608 208.751 551.497 208.583C551.388 208.414 551.239 208.284 551.05 208.193C550.86 208.101 550.647 208.055 550.41 208.055C550.159 208.055 549.939 208.108 549.752 208.212C549.567 208.314 549.423 208.458 549.32 208.643C549.22 208.829 549.17 209.046 549.17 209.295H548.416C548.416 208.912 548.504 208.575 548.681 208.286C548.858 207.996 549.099 207.77 549.404 207.608C549.71 207.446 550.055 207.365 550.436 207.365C550.819 207.365 551.159 207.446 551.455 207.608C551.752 207.77 551.984 207.988 552.152 208.263C552.32 208.538 552.405 208.844 552.405 209.18C552.405 209.421 552.361 209.657 552.274 209.887C552.188 210.115 552.039 210.369 551.826 210.651C551.615 210.93 551.322 211.271 550.947 211.673L549.477 213.246V213.297H552.52V214H548.39ZM556.384 215.841V209.091H557.112V209.871H557.202C557.257 209.786 557.334 209.677 557.432 209.545C557.532 209.411 557.675 209.291 557.86 209.187C558.048 209.08 558.301 209.027 558.621 209.027C559.034 209.027 559.399 209.13 559.714 209.337C560.029 209.544 560.275 209.837 560.452 210.216C560.629 210.595 560.718 211.043 560.718 211.558C560.718 212.078 560.629 212.529 560.452 212.91C560.275 213.289 560.03 213.583 559.717 213.792C559.404 213.999 559.043 214.102 558.634 214.102C558.318 214.102 558.066 214.05 557.876 213.946C557.687 213.839 557.541 213.719 557.438 213.585C557.336 213.448 557.257 213.335 557.202 213.246H557.138V215.841H556.384ZM557.125 211.545C557.125 211.916 557.18 212.243 557.288 212.527C557.397 212.808 557.556 213.028 557.764 213.188C557.973 213.346 558.229 213.425 558.531 213.425C558.847 213.425 559.11 213.342 559.321 213.175C559.534 213.007 559.694 212.781 559.8 212.498C559.909 212.212 559.963 211.895 559.963 211.545C559.963 211.2 559.91 210.889 559.803 210.612C559.699 210.333 559.54 210.113 559.327 209.951C559.116 209.787 558.851 209.705 558.531 209.705C558.225 209.705 557.967 209.782 557.758 209.938C557.549 210.091 557.392 210.306 557.285 210.583C557.178 210.858 557.125 211.179 557.125 211.545ZM561.868 214V209.091H562.597V209.858H562.661C562.763 209.596 562.928 209.392 563.156 209.248C563.384 209.1 563.658 209.027 563.977 209.027C564.301 209.027 564.571 209.1 564.786 209.248C565.003 209.392 565.173 209.596 565.294 209.858H565.345C565.471 209.604 565.66 209.403 565.911 209.254C566.162 209.103 566.464 209.027 566.816 209.027C567.254 209.027 567.613 209.164 567.893 209.439C568.172 209.712 568.311 210.137 568.311 210.714V214H567.557V210.714C567.557 210.352 567.458 210.093 567.26 209.938C567.062 209.782 566.828 209.705 566.56 209.705C566.215 209.705 565.947 209.809 565.758 210.018C565.568 210.224 565.473 210.487 565.473 210.804V214H564.706V210.638C564.706 210.359 564.616 210.134 564.434 209.963C564.253 209.791 564.02 209.705 563.735 209.705C563.539 209.705 563.355 209.757 563.185 209.861C563.017 209.966 562.88 210.11 562.776 210.296C562.673 210.479 562.622 210.691 562.622 210.932V214H561.868Z" fill="#545454"/>
<g filter="url(#filter0_i_55_150)">
<path d="M41.5 178L74 148L115.5 180.5L154 139L196.5 141L203.5 148L221 141L235 146.5L261.5 144.5L273.5 132L294 136.5L323.5 141.5H394.5L425 136.5H476.5L493.5 144H557.5" stroke="url(#paint0_diamond_55_150)" stroke-width="5" stroke-linecap="round"/>
</g>
<defs>
<filter id="filter0_i_55_150" x="39" y="129.258" width="521" height="58.6284" filterUnits="userSpaceOnUse" color-interpolation-filters="sRGB">
<feFlood flood-opacity="0" result="BackgroundImageFix"/>
<feBlend mode="normal" in="SourceGraphic" in2="BackgroundImageFix" result="shape"/>
<feColorMatrix in="SourceAlpha" type="matrix" values="0 0 0 0 0 0 0 0 0 0 0 0 0 0 0 0 0 0 127 0" result="hardAlpha"/>
<feOffset dy="4"/>
<feGaussianBlur stdDeviation="2"/>
<feComposite in2="hardAlpha" operator="arithmetic" k2="-1" k3="1"/>
<feColorMatrix type="matrix" values="0 0 0 0 1 0 0 0 0 0.248333 0 0 0 0 0.145833 0 0 0 1 0"/>
<feBlend mode="normal" in2="shape" result="effect1_innerShadow_55_150"/>
</filter>
<radialGradient id="paint0_diamond_55_150" cx="0" cy="0" r="1" gradientUnits="userSpaceOnUse" gradientTransform="translate(74.3567 134.378) rotate(4.51558) scale(487.644 538.876)">
<stop stop-color="#2E66F5"/>
<stop offset="0.4825" stop-color="#1400FF"/>
<stop offset="0.994792" stop-color="#ED1C00"/>
</radialGradient>
</defs>
</svg>
