<svg width="360" height="61" viewBox="0 0 360 61" fill="none" xmlns="http://www.w3.org/2000/svg">
<path d="M62.1626 49V12.6125H76.5186C79.2666 12.6125 81.6119 13.104 83.5545 14.0872C85.5089 15.0584 86.9954 16.4384 88.0141 18.227C89.0446 20.0037 89.5598 22.0943 89.5598 24.4988C89.5598 26.9152 89.0387 28.994 87.9963 30.7352C86.954 32.4645 85.4437 33.7911 83.4656 34.7151C81.4994 35.639 79.1186 36.1009 76.3232 36.1009H66.711V29.9179H75.0795C76.5482 29.9179 77.7682 29.7165 78.7395 29.3138C79.7108 28.9111 80.4333 28.307 80.9071 27.5015C81.3928 26.6961 81.6356 25.6952 81.6356 24.4988C81.6356 23.2906 81.3928 22.272 80.9071 21.4428C80.4333 20.6137 79.7049 19.9859 78.7218 19.5595C77.7505 19.1212 76.5245 18.9021 75.0439 18.9021H69.8559V49H62.1626ZM81.8133 32.4408L90.8569 49H82.3641L73.5159 32.4408H81.8133ZM94.9966 12.6125H104.484L114.505 37.0603H114.932L124.952 12.6125H134.44V49H126.978V25.3161H126.676L117.259 48.8223H112.178L102.761 25.2273H102.459V49H94.9966V12.6125ZM160.518 23.0774C160.376 21.6442 159.766 20.5308 158.688 19.7372C157.61 18.9436 156.147 18.5468 154.3 18.5468C153.044 18.5468 151.984 18.7244 151.119 19.0798C150.255 19.4233 149.591 19.903 149.129 20.5189C148.679 21.1349 148.454 21.8337 148.454 22.6155C148.43 23.267 148.567 23.8355 148.863 24.3212C149.171 24.8068 149.591 25.2273 150.124 25.5826C150.657 25.9261 151.273 26.2282 151.972 26.4888C152.671 26.7375 153.417 26.9507 154.211 27.1284L157.48 27.9102C159.067 28.2655 160.524 28.7393 161.851 29.3315C163.177 29.9238 164.326 30.6522 165.298 31.5169C166.269 32.3816 167.021 33.4003 167.554 34.5729C168.099 35.7456 168.377 37.09 168.389 38.6061C168.377 40.8329 167.809 42.7637 166.683 44.3983C165.57 46.021 163.959 47.2825 161.851 48.1827C159.754 49.0711 157.225 49.5153 154.264 49.5153C151.327 49.5153 148.768 49.0651 146.589 48.1649C144.421 47.2647 142.727 45.9322 141.507 44.1673C140.299 42.3905 139.665 40.1933 139.606 37.5756H147.051C147.133 38.7956 147.483 39.8143 148.099 40.6316C148.727 41.437 149.562 42.047 150.604 42.4616C151.658 42.8643 152.849 43.0657 154.175 43.0657C155.478 43.0657 156.609 42.8762 157.569 42.4971C158.54 42.1181 159.292 41.591 159.825 40.9159C160.358 40.2407 160.625 39.4649 160.625 38.5883C160.625 37.771 160.382 37.084 159.896 36.5273C159.423 35.9706 158.724 35.4968 157.8 35.1059C156.888 34.7151 155.768 34.3597 154.442 34.0399L150.48 33.0449C147.412 32.2987 144.99 31.132 143.213 29.5448C141.436 27.9575 140.554 25.8195 140.565 23.1307C140.554 20.9276 141.14 19.0028 142.324 17.3564C143.521 15.7099 145.161 14.4247 147.246 13.5008C149.331 12.5769 151.7 12.115 154.353 12.115C157.054 12.115 159.411 12.5769 161.424 13.5008C163.45 14.4247 165.025 15.7099 166.15 17.3564C167.276 19.0028 167.856 20.9098 167.892 23.0774H160.518Z" fill="white"/>
<path d="M183.663 27.3484V18.0463H186.978C187.699 18.0463 188.297 18.1705 188.772 18.4187C189.251 18.667 189.608 19.0107 189.844 19.4498C190.08 19.8858 190.199 20.39 190.199 20.9623C190.199 21.5316 190.079 22.0327 189.84 22.4657C189.604 22.8957 189.246 23.2303 188.768 23.4695C188.292 23.7087 187.694 23.8283 186.974 23.8283H184.462V22.6201H186.847C187.301 22.6201 187.67 22.555 187.955 22.4248C188.242 22.2946 188.453 22.1054 188.586 21.8571C188.719 21.6088 188.786 21.3105 188.786 20.9623C188.786 20.611 188.718 20.3067 188.582 20.0493C188.448 19.792 188.238 19.5951 187.95 19.4589C187.666 19.3196 187.292 19.2499 186.828 19.2499H185.066V27.3484H183.663ZM188.255 23.1515L190.553 27.3484H188.954L186.701 23.1515H188.255ZM194.717 27.4892C194.029 27.4892 193.437 27.3423 192.941 27.0486C192.447 26.7519 192.066 26.3355 191.796 25.7996C191.53 25.2606 191.397 24.6292 191.397 23.9055C191.397 23.1909 191.53 22.5611 191.796 22.016C192.066 21.471 192.441 21.0456 192.923 20.7397C193.407 20.4339 193.973 20.281 194.621 20.281C195.015 20.281 195.397 20.3461 195.766 20.4763C196.135 20.6065 196.467 20.8109 196.761 21.0895C197.054 21.368 197.286 21.7299 197.456 22.175C197.625 22.6171 197.71 23.1546 197.71 23.7874V24.2689H192.164V23.2515H196.379C196.379 22.8942 196.306 22.5777 196.161 22.3022C196.016 22.0236 195.811 21.8041 195.548 21.6436C195.288 21.4831 194.982 21.4029 194.63 21.4029C194.249 21.4029 193.916 21.4967 193.631 21.6845C193.35 21.8692 193.132 22.1114 192.977 22.4112C192.826 22.7079 192.75 23.0304 192.75 23.3787V24.1735C192.75 24.6398 192.832 25.0365 192.995 25.3635C193.162 25.6905 193.394 25.9404 193.69 26.113C193.987 26.2825 194.334 26.3673 194.73 26.3673C194.988 26.3673 195.222 26.331 195.434 26.2583C195.646 26.1826 195.83 26.0706 195.984 25.9222C196.138 25.7738 196.257 25.5906 196.338 25.3726L197.624 25.6042C197.521 25.9828 197.336 26.3143 197.07 26.599C196.806 26.8806 196.475 27.1001 196.075 27.2575C195.678 27.412 195.225 27.4892 194.717 27.4892ZM199.217 27.3484V20.3718H200.52V21.5073H200.607C200.752 21.1228 200.99 20.823 201.32 20.608C201.65 20.39 202.045 20.281 202.505 20.281C202.972 20.281 203.362 20.39 203.677 20.608C203.995 20.826 204.23 21.1258 204.381 21.5073H204.454C204.62 21.1349 204.885 20.8381 205.249 20.6171C205.612 20.393 206.045 20.281 206.548 20.281C207.18 20.281 207.697 20.4793 208.096 20.876C208.499 21.2727 208.701 21.8707 208.701 22.6701V27.3484H207.342V22.7973C207.342 22.3249 207.214 21.9827 206.956 21.7708C206.699 21.5588 206.392 21.4528 206.034 21.4528C205.592 21.4528 205.249 21.5891 205.003 21.8616C204.758 22.1311 204.635 22.4778 204.635 22.9017V27.3484H203.282V22.711C203.282 22.3325 203.164 22.0282 202.928 21.798C202.691 21.5679 202.384 21.4528 202.006 21.4528C201.748 21.4528 201.511 21.521 201.292 21.6572C201.077 21.7905 200.903 21.9767 200.77 22.2159C200.64 22.4551 200.575 22.7322 200.575 23.0471V27.3484H199.217ZM213.459 27.4892C212.805 27.4892 212.235 27.3393 211.747 27.0395C211.26 26.7398 210.881 26.3204 210.612 25.7814C210.342 25.2424 210.207 24.6126 210.207 23.8919C210.207 23.1682 210.342 22.5353 210.612 21.9933C210.881 21.4513 211.26 21.0304 211.747 20.7306C212.235 20.4309 212.805 20.281 213.459 20.281C214.114 20.281 214.684 20.4309 215.172 20.7306C215.659 21.0304 216.038 21.4513 216.307 21.9933C216.577 22.5353 216.712 23.1682 216.712 23.8919C216.712 24.6126 216.577 25.2424 216.307 25.7814C216.038 26.3204 215.659 26.7398 215.172 27.0395C214.684 27.3393 214.114 27.4892 213.459 27.4892ZM213.464 26.3491C213.888 26.3491 214.239 26.2371 214.518 26.013C214.796 25.789 215.002 25.4907 215.135 25.1182C215.272 24.7458 215.34 24.3355 215.34 23.8874C215.34 23.4422 215.272 23.0335 215.135 22.661C215.002 22.2855 214.796 21.9842 214.518 21.7571C214.239 21.53 213.888 21.4165 213.464 21.4165C213.037 21.4165 212.683 21.53 212.401 21.7571C212.123 21.9842 211.915 22.2855 211.779 22.661C211.646 23.0335 211.579 23.4422 211.579 23.8874C211.579 24.3355 211.646 24.7458 211.779 25.1182C211.915 25.4907 212.123 25.789 212.401 26.013C212.683 26.2371 213.037 26.3491 213.464 26.3491ZM221.484 20.3718V21.4619H217.673V20.3718H221.484ZM218.695 18.7004H220.053V25.2999C220.053 25.5634 220.093 25.7617 220.171 25.8949C220.25 26.0251 220.352 26.1145 220.476 26.1629C220.603 26.2083 220.741 26.231 220.889 26.231C220.998 26.231 221.093 26.2235 221.175 26.2083C221.257 26.1932 221.321 26.1811 221.366 26.172L221.611 27.2939C221.533 27.3242 221.421 27.3544 221.275 27.3847C221.13 27.418 220.948 27.4362 220.73 27.4392C220.373 27.4453 220.04 27.3817 219.731 27.2485C219.422 27.1152 219.172 26.9093 218.981 26.6307C218.791 26.3522 218.695 26.0024 218.695 25.5815V18.7004ZM225.918 27.4892C225.231 27.4892 224.639 27.3423 224.142 27.0486C223.649 26.7519 223.267 26.3355 222.998 25.7996C222.731 25.2606 222.598 24.6292 222.598 23.9055C222.598 23.1909 222.731 22.5611 222.998 22.016C223.267 21.471 223.643 21.0456 224.124 20.7397C224.609 20.4339 225.175 20.281 225.823 20.281C226.217 20.281 226.598 20.3461 226.967 20.4763C227.337 20.6065 227.668 20.8109 227.962 21.0895C228.256 21.368 228.488 21.7299 228.657 22.175C228.827 22.6171 228.911 23.1546 228.911 23.7874V24.2689H223.366V23.2515H227.581C227.581 22.8942 227.508 22.5777 227.363 22.3022C227.217 22.0236 227.013 21.8041 226.749 21.6436C226.489 21.4831 226.183 21.4029 225.832 21.4029C225.45 21.4029 225.117 21.4967 224.833 21.6845C224.551 21.8692 224.333 22.1114 224.179 22.4112C224.027 22.7079 223.952 23.0304 223.952 23.3787V24.1735C223.952 24.6398 224.033 25.0365 224.197 25.3635C224.363 25.6905 224.595 25.9404 224.892 26.113C225.189 26.2825 225.535 26.3673 225.932 26.3673C226.189 26.3673 226.424 26.331 226.636 26.2583C226.848 26.1826 227.031 26.0706 227.185 25.9222C227.34 25.7738 227.458 25.5906 227.54 25.3726L228.825 25.6042C228.722 25.9828 228.538 26.3143 228.271 26.599C228.008 26.8806 227.676 27.1001 227.276 27.2575C226.88 27.412 226.427 27.4892 225.918 27.4892ZM233.912 18.0463H235.616L238.577 25.2772H238.686L241.647 18.0463H243.351V27.3484H242.015V20.6171H241.929L239.186 27.3348H238.077L235.334 20.6126H235.248V27.3484H233.912V18.0463ZM248.221 27.4892C247.567 27.4892 246.996 27.3393 246.508 27.0395C246.021 26.7398 245.642 26.3204 245.373 25.7814C245.103 25.2424 244.969 24.6126 244.969 23.8919C244.969 23.1682 245.103 22.5353 245.373 21.9933C245.642 21.4513 246.021 21.0304 246.508 20.7306C246.996 20.4309 247.567 20.281 248.221 20.281C248.875 20.281 249.446 20.4309 249.933 20.7306C250.421 21.0304 250.799 21.4513 251.069 21.9933C251.338 22.5353 251.473 23.1682 251.473 23.8919C251.473 24.6126 251.338 25.2424 251.069 25.7814C250.799 26.3204 250.421 26.7398 249.933 27.0395C249.446 27.3393 248.875 27.4892 248.221 27.4892ZM248.225 26.3491C248.649 26.3491 249.001 26.2371 249.279 26.013C249.558 25.789 249.764 25.4907 249.897 25.1182C250.033 24.7458 250.101 24.3355 250.101 23.8874C250.101 23.4422 250.033 23.0335 249.897 22.661C249.764 22.2855 249.558 21.9842 249.279 21.7571C249.001 21.53 248.649 21.4165 248.225 21.4165C247.798 21.4165 247.444 21.53 247.162 21.7571C246.884 21.9842 246.676 22.2855 246.54 22.661C246.407 23.0335 246.34 23.4422 246.34 23.8874C246.34 24.3355 246.407 24.7458 246.54 25.1182C246.676 25.4907 246.884 25.789 247.162 26.013C247.444 26.2371 247.798 26.3491 248.225 26.3491ZM254.347 23.2061V27.3484H252.989V20.3718H254.292V21.5073H254.379C254.539 21.1379 254.79 20.8412 255.133 20.6171C255.478 20.393 255.912 20.281 256.436 20.281C256.912 20.281 257.328 20.3809 257.685 20.5808C258.043 20.7776 258.32 21.0713 258.516 21.4619C258.713 21.8525 258.812 22.3355 258.812 22.9108V27.3484H257.454V23.0743C257.454 22.5687 257.322 22.1735 257.058 21.8889C256.795 21.6012 256.433 21.4574 255.973 21.4574C255.658 21.4574 255.378 21.5255 255.133 21.6618C254.89 21.798 254.698 21.9979 254.556 22.2613C254.416 22.5217 254.347 22.8366 254.347 23.2061ZM260.633 27.3484V20.3718H261.991V27.3484H260.633ZM261.319 19.2954C261.083 19.2954 260.88 19.2166 260.71 19.0592C260.544 18.8987 260.46 18.7079 260.46 18.4869C260.46 18.2628 260.544 18.072 260.71 17.9146C260.88 17.7541 261.083 17.6739 261.319 17.6739C261.555 17.6739 261.756 17.7541 261.923 17.9146C262.093 18.072 262.177 18.2628 262.177 18.4869C262.177 18.7079 262.093 18.8987 261.923 19.0592C261.756 19.2166 261.555 19.2954 261.319 19.2954ZM267.075 20.3718V21.4619H263.264V20.3718H267.075ZM264.286 18.7004H265.644V25.2999C265.644 25.5634 265.683 25.7617 265.762 25.8949C265.841 26.0251 265.942 26.1145 266.066 26.1629C266.194 26.2083 266.331 26.231 266.48 26.231C266.589 26.231 266.684 26.2235 266.766 26.2083C266.848 26.1932 266.911 26.1811 266.957 26.172L267.202 27.2939C267.123 27.3242 267.011 27.3544 266.866 27.3847C266.72 27.418 266.539 27.4362 266.321 27.4392C265.963 27.4453 265.63 27.3817 265.322 27.2485C265.013 27.1152 264.763 26.9093 264.572 26.6307C264.381 26.3522 264.286 26.0024 264.286 25.5815V18.7004ZM271.441 27.4892C270.787 27.4892 270.216 27.3393 269.728 27.0395C269.241 26.7398 268.862 26.3204 268.593 25.7814C268.323 25.2424 268.189 24.6126 268.189 23.8919C268.189 23.1682 268.323 22.5353 268.593 21.9933C268.862 21.4513 269.241 21.0304 269.728 20.7306C270.216 20.4309 270.787 20.281 271.441 20.281C272.095 20.281 272.666 20.4309 273.153 20.7306C273.641 21.0304 274.019 21.4513 274.289 21.9933C274.558 22.5353 274.693 23.1682 274.693 23.8919C274.693 24.6126 274.558 25.2424 274.289 25.7814C274.019 26.3204 273.641 26.7398 273.153 27.0395C272.666 27.3393 272.095 27.4892 271.441 27.4892ZM271.445 26.3491C271.869 26.3491 272.221 26.2371 272.499 26.013C272.778 25.789 272.984 25.4907 273.117 25.1182C273.253 24.7458 273.321 24.3355 273.321 23.8874C273.321 23.4422 273.253 23.0335 273.117 22.661C272.984 22.2855 272.778 21.9842 272.499 21.7571C272.221 21.53 271.869 21.4165 271.445 21.4165C271.018 21.4165 270.664 21.53 270.383 21.7571C270.104 21.9842 269.897 22.2855 269.76 22.661C269.627 23.0335 269.56 23.4422 269.56 23.8874C269.56 24.3355 269.627 24.7458 269.76 25.1182C269.897 25.4907 270.104 25.789 270.383 26.013C270.664 26.2371 271.018 26.3491 271.445 26.3491ZM276.209 27.3484V20.3718H277.521V21.4801H277.594C277.721 21.1046 277.945 20.8094 278.266 20.5944C278.59 20.3764 278.957 20.2674 279.366 20.2674C279.45 20.2674 279.55 20.2704 279.665 20.2764C279.783 20.2825 279.876 20.2901 279.942 20.2992V21.5982C279.888 21.583 279.791 21.5664 279.652 21.5482C279.512 21.527 279.373 21.5164 279.234 21.5164C278.913 21.5164 278.627 21.5845 278.375 21.7208C278.127 21.854 277.93 22.0403 277.785 22.2795C277.64 22.5157 277.567 22.7852 277.567 23.088V27.3484H276.209ZM281.118 27.3484V20.3718H282.476V27.3484H281.118ZM281.803 19.2954C281.567 19.2954 281.364 19.2166 281.195 19.0592C281.028 18.8987 280.945 18.7079 280.945 18.4869C280.945 18.2628 281.028 18.072 281.195 17.9146C281.364 17.7541 281.567 17.6739 281.803 17.6739C282.04 17.6739 282.241 17.7541 282.408 17.9146C282.577 18.072 282.662 18.2628 282.662 18.4869C282.662 18.7079 282.577 18.8987 282.408 19.0592C282.241 19.2166 282.04 19.2954 281.803 19.2954ZM285.661 23.2061V27.3484H284.303V20.3718H285.606V21.5073H285.693C285.853 21.1379 286.104 20.8412 286.447 20.6171C286.792 20.393 287.226 20.281 287.75 20.281C288.226 20.281 288.642 20.3809 288.999 20.5808C289.356 20.7776 289.634 21.0713 289.83 21.4619C290.027 21.8525 290.126 22.3355 290.126 22.9108V27.3484H288.768V23.0743C288.768 22.5687 288.636 22.1735 288.372 21.8889C288.109 21.6012 287.747 21.4574 287.287 21.4574C286.972 21.4574 286.692 21.5255 286.447 21.6618C286.204 21.798 286.012 21.9979 285.87 22.2613C285.73 22.5217 285.661 22.8366 285.661 23.2061ZM294.872 30.1099C294.318 30.1099 293.841 30.0373 293.441 29.8919C293.045 29.7466 292.721 29.5543 292.469 29.3151C292.218 29.0759 292.03 28.814 291.906 28.5293L293.073 28.0479C293.155 28.1811 293.264 28.3219 293.4 28.4703C293.54 28.6217 293.727 28.7504 293.964 28.8563C294.203 28.9623 294.51 29.0153 294.886 29.0153C295.4 29.0153 295.826 28.8897 296.162 28.6383C296.498 28.39 296.666 27.9934 296.666 27.4483V26.0766H296.58C296.498 26.225 296.38 26.39 296.226 26.5717C296.074 26.7534 295.865 26.9108 295.599 27.0441C295.332 27.1773 294.986 27.2439 294.559 27.2439C294.008 27.2439 293.511 27.1152 293.069 26.8578C292.63 26.5974 292.282 26.2144 292.024 25.7087C291.77 25.2 291.643 24.5747 291.643 23.8329C291.643 23.091 291.768 22.4551 292.02 21.9252C292.274 21.3953 292.622 20.9895 293.064 20.7079C293.506 20.4233 294.008 20.281 294.568 20.281C295.001 20.281 295.35 20.3537 295.617 20.499C295.883 20.6413 296.091 20.8079 296.239 20.9986C296.391 21.1894 296.507 21.3574 296.589 21.5028H296.689V20.3718H298.02V27.5028C298.02 28.1024 297.88 28.5944 297.602 28.979C297.323 29.3635 296.946 29.6482 296.471 29.8329C295.998 30.0176 295.466 30.1099 294.872 30.1099ZM294.858 26.1175C295.249 26.1175 295.579 26.0267 295.849 25.845C296.121 25.6603 296.327 25.3968 296.466 25.0547C296.609 24.7095 296.68 24.2961 296.68 23.8147C296.68 23.3453 296.61 22.932 296.471 22.5747C296.332 22.2174 296.127 21.9388 295.858 21.739C295.588 21.5361 295.255 21.4347 294.858 21.4347C294.45 21.4347 294.109 21.5406 293.836 21.7526C293.564 21.9615 293.358 22.2462 293.219 22.6065C293.082 22.9668 293.014 23.3696 293.014 23.8147C293.014 24.2719 293.084 24.6731 293.223 25.0183C293.363 25.3635 293.568 25.633 293.841 25.8268C294.117 26.0206 294.456 26.1175 294.858 26.1175ZM188.736 35.4899C188.688 35.0599 188.488 34.7269 188.136 34.4907C187.785 34.2515 187.343 34.1318 186.81 34.1318C186.429 34.1318 186.099 34.1924 185.82 34.3135C185.541 34.4316 185.325 34.5951 185.171 34.8041C185.019 35.01 184.943 35.2446 184.943 35.5081C184.943 35.7291 184.995 35.9199 185.098 36.0804C185.204 36.2409 185.342 36.3756 185.511 36.4846C185.684 36.5906 185.868 36.6799 186.065 36.7526C186.262 36.8222 186.451 36.8798 186.633 36.9252L187.541 37.1614C187.838 37.2341 188.143 37.3325 188.454 37.4566C188.766 37.5808 189.055 37.7443 189.322 37.9472C189.588 38.15 189.803 38.4014 189.967 38.7011C190.133 39.0009 190.217 39.3597 190.217 39.7776C190.217 40.3045 190.08 40.7723 189.808 41.1811C189.538 41.5899 189.146 41.9124 188.632 42.1485C188.12 42.3847 187.501 42.5028 186.774 42.5028C186.077 42.5028 185.475 42.3923 184.966 42.1712C184.457 41.9502 184.059 41.6368 183.772 41.231C183.484 40.8223 183.325 40.3378 183.295 39.7776H184.703C184.73 40.1137 184.839 40.3938 185.03 40.6179C185.224 40.8389 185.47 41.0039 185.77 41.113C186.073 41.2189 186.404 41.2719 186.765 41.2719C187.161 41.2719 187.514 41.2099 187.823 41.0857C188.135 40.9585 188.38 40.7829 188.559 40.5588C188.738 40.3317 188.827 40.0668 188.827 39.764C188.827 39.4884 188.748 39.2628 188.591 39.0872C188.436 38.9116 188.226 38.7662 187.959 38.6512C187.696 38.5361 187.398 38.4347 187.065 38.3469L185.965 38.0471C185.221 37.8442 184.63 37.5459 184.194 37.1523C183.761 36.7587 183.544 36.2378 183.544 35.5898C183.544 35.0539 183.69 34.5861 183.981 34.1864C184.271 33.7867 184.665 33.4763 185.161 33.2552C185.658 33.0312 186.218 32.9191 186.842 32.9191C187.472 32.9191 188.027 33.0296 188.509 33.2507C188.993 33.4717 189.375 33.7761 189.654 34.1636C189.932 34.5482 190.077 34.9903 190.09 35.4899H188.736ZM192.643 44.9646C192.44 44.9646 192.256 44.9479 192.089 44.9146C191.923 44.8844 191.799 44.851 191.717 44.8147L192.044 43.7019C192.292 43.7685 192.513 43.7973 192.707 43.7882C192.901 43.7791 193.072 43.7065 193.22 43.5702C193.372 43.4339 193.505 43.2114 193.62 42.9025L193.788 42.4392L191.235 35.3718H192.689L194.456 40.7859H194.528L196.295 35.3718H197.753L194.878 43.2795C194.745 43.6429 194.575 43.9502 194.369 44.2015C194.163 44.4559 193.918 44.6467 193.633 44.7738C193.349 44.901 193.019 44.9646 192.643 44.9646ZM204.257 37.0751L203.026 37.2931C202.975 37.1356 202.893 36.9858 202.781 36.8434C202.672 36.7011 202.524 36.5845 202.336 36.4937C202.148 36.4029 201.914 36.3574 201.632 36.3574C201.247 36.3574 200.926 36.4437 200.669 36.6163C200.412 36.7859 200.283 37.0054 200.283 37.2749C200.283 37.5081 200.369 37.6958 200.542 37.8381C200.715 37.9805 200.993 38.097 201.378 38.1879L202.486 38.4422C203.128 38.5906 203.606 38.8192 203.921 39.1281C204.236 39.4369 204.394 39.8382 204.394 40.3317C204.394 40.7496 204.272 41.122 204.03 41.4491C203.791 41.7731 203.456 42.0274 203.026 42.2121C202.599 42.3968 202.104 42.4892 201.541 42.4892C200.76 42.4892 200.123 42.3227 199.629 41.9896C199.135 41.6535 198.833 41.1765 198.721 40.5588L200.033 40.359C200.115 40.7011 200.283 40.96 200.537 41.1357C200.792 41.3083 201.123 41.3946 201.532 41.3946C201.977 41.3946 202.333 41.3022 202.599 41.1175C202.866 40.9298 202.999 40.7011 202.999 40.4317C202.999 40.2136 202.917 40.0304 202.754 39.8821C202.593 39.7337 202.347 39.6217 202.014 39.546L200.833 39.2871C200.182 39.1387 199.7 38.9025 199.388 38.5785C199.079 38.2545 198.925 37.8442 198.925 37.3476C198.925 36.9358 199.04 36.5755 199.27 36.2666C199.5 35.9577 199.818 35.717 200.224 35.5444C200.63 35.3688 201.095 35.281 201.618 35.281C202.372 35.281 202.966 35.4445 203.399 35.7715C203.832 36.0955 204.118 36.53 204.257 37.0751ZM209.143 35.3718V36.4619H205.333V35.3718H209.143ZM206.355 33.7004H207.713V40.2999C207.713 40.5634 207.752 40.7617 207.831 40.8949C207.909 41.0251 208.011 41.1145 208.135 41.1629C208.262 41.2083 208.4 41.231 208.548 41.231C208.657 41.231 208.753 41.2235 208.835 41.2083C208.916 41.1932 208.98 41.1811 209.025 41.172L209.271 42.2939C209.192 42.3242 209.08 42.3544 208.934 42.3847C208.789 42.418 208.607 42.4362 208.389 42.4392C208.032 42.4453 207.699 42.3817 207.39 42.2485C207.081 42.1152 206.831 41.9093 206.641 41.6307C206.45 41.3522 206.355 41.0024 206.355 40.5815V33.7004ZM213.578 42.4892C212.89 42.4892 212.298 42.3423 211.802 42.0486C211.308 41.7519 210.927 41.3355 210.657 40.7996C210.391 40.2606 210.257 39.6292 210.257 38.9055C210.257 38.1909 210.391 37.5611 210.657 37.016C210.927 36.471 211.302 36.0456 211.783 35.7397C212.268 35.4339 212.834 35.281 213.482 35.281C213.876 35.281 214.257 35.3461 214.627 35.4763C214.996 35.6065 215.328 35.8109 215.621 36.0895C215.915 36.368 216.147 36.7299 216.316 37.175C216.486 37.6171 216.571 38.1546 216.571 38.7874V39.2689H211.025V38.2515H215.24C215.24 37.8942 215.167 37.5777 215.022 37.3022C214.877 37.0236 214.672 36.8041 214.409 36.6436C214.148 36.4831 213.843 36.4029 213.491 36.4029C213.11 36.4029 212.777 36.4967 212.492 36.6845C212.21 36.8692 211.992 37.1114 211.838 37.4112C211.687 37.7079 211.611 38.0304 211.611 38.3787V39.1735C211.611 39.6398 211.693 40.0365 211.856 40.3635C212.023 40.6905 212.254 40.9404 212.551 41.113C212.848 41.2825 213.195 41.3673 213.591 41.3673C213.849 41.3673 214.083 41.331 214.295 41.2583C214.507 41.1826 214.69 41.0706 214.845 40.9222C214.999 40.7738 215.117 40.5906 215.199 40.3726L216.484 40.6042C216.382 40.9828 216.197 41.3143 215.93 41.599C215.667 41.8806 215.335 42.1001 214.936 42.2575C214.539 42.412 214.086 42.4892 213.578 42.4892ZM218.078 42.3484V35.3718H219.381V36.5073H219.467C219.613 36.1228 219.85 35.823 220.181 35.608C220.511 35.39 220.906 35.281 221.366 35.281C221.832 35.281 222.223 35.39 222.538 35.608C222.856 35.826 223.09 36.1258 223.242 36.5073H223.315C223.481 36.1349 223.746 35.8381 224.109 35.6171C224.473 35.393 224.906 35.281 225.408 35.281C226.041 35.281 226.558 35.4793 226.957 35.876C227.36 36.2727 227.561 36.8707 227.561 37.6701V42.3484H226.203V37.7973C226.203 37.3249 226.075 36.9827 225.817 36.7708C225.56 36.5588 225.252 36.4528 224.895 36.4528C224.453 36.4528 224.109 36.5891 223.864 36.8616C223.619 37.1311 223.496 37.4778 223.496 37.9017V42.3484H222.143V37.711C222.143 37.3325 222.025 37.0282 221.788 36.798C221.552 36.5679 221.245 36.4528 220.866 36.4528C220.609 36.4528 220.371 36.521 220.153 36.6572C219.938 36.7905 219.764 36.9767 219.631 37.2159C219.501 37.4551 219.436 37.7322 219.436 38.0471V42.3484H218.078Z" fill="#BDBDBD"/>
<circle cx="22.7426" cy="30.0813" r="4.72017" fill="white"/>
<path d="M32.7555 40.0944C34.0704 38.7795 35.1135 37.2184 35.8251 35.5004C36.5368 33.7824 36.903 31.941 36.903 30.0814C36.903 28.2218 36.5368 26.3804 35.8251 24.6624C35.1135 22.9444 34.0704 21.3833 32.7555 20.0684L28.9478 23.8761C29.7627 24.691 30.4091 25.6584 30.8501 26.7231C31.2911 27.7878 31.5181 28.929 31.5181 30.0814C31.5181 31.2338 31.2911 32.375 30.8501 33.4397C30.4091 34.5044 29.7627 35.4718 28.9478 36.2867L32.7555 40.0944Z" fill="#69B7FF"/>
<path d="M38.8241 46.1627C40.9359 44.0509 42.6111 41.5437 43.7541 38.7845C44.897 36.0252 45.4853 33.0679 45.4853 30.0812C45.4853 27.0946 44.897 24.1373 43.7541 21.378C42.6111 18.6188 40.9359 16.1116 38.8241 13.9998L34.6932 18.1307C36.2626 19.7 37.5075 21.5632 38.3568 23.6136C39.2061 25.6641 39.6433 27.8618 39.6433 30.0812C39.6433 32.3007 39.2061 34.4984 38.3568 36.5489C37.5075 38.5993 36.2626 40.4625 34.6932 42.0318L38.8241 46.1627Z" fill="#006ACB"/>
<path d="M12.7298 40.0944C11.4149 38.7795 10.3718 37.2184 9.66022 35.5004C8.94858 33.7824 8.58231 31.941 8.58231 30.0814C8.58231 28.2218 8.94858 26.3804 9.66022 24.6624C10.3718 22.9444 11.4149 21.3833 12.7298 20.0684L16.5376 23.8761C15.7227 24.691 15.0763 25.6584 14.6352 26.7231C14.1942 27.7878 13.9672 28.929 13.9672 30.0814C13.9672 31.2338 14.1942 32.375 14.6352 33.4397C15.0763 34.5044 15.7227 35.4718 16.5376 36.2867L12.7298 40.0944Z" fill="#69B7FF"/>
<path d="M6.66126 46.1627C4.54941 44.0509 2.8742 41.5437 1.73128 38.7845C0.588356 36.0252 9.91821e-05 33.0679 9.91821e-05 30.0812C9.91821e-05 27.0946 0.588356 24.1373 1.73128 21.378C2.8742 18.6188 4.54941 16.1116 6.66126 13.9998L10.7922 18.1307C9.22278 19.7 7.97789 21.5632 7.12855 23.6136C6.27921 25.6641 5.84206 27.8618 5.84206 30.0812C5.84206 32.3007 6.27921 34.4984 7.12855 36.5489C7.97789 38.5993 9.22278 40.4625 10.7922 42.0318L6.66126 46.1627Z" fill="#006ACB"/>
</svg>
