<svg width="46" height="46" viewBox="0 0 46 46" fill="none" xmlns="http://www.w3.org/2000/svg">
<circle cx="22.7424" cy="23.0813" r="4.72017" fill="white"/>
<path d="M32.7553 33.0944C34.0702 31.7795 35.1133 30.2184 35.8249 28.5004C36.5365 26.7824 36.9028 24.941 36.9028 23.0814C36.9028 21.2218 36.5365 19.3804 35.8249 17.6624C35.1133 15.9444 34.0702 14.3833 32.7553 13.0684L28.9476 16.8761C29.7624 17.691 30.4088 18.6584 30.8499 19.7231C31.2909 20.7878 31.5179 21.929 31.5179 23.0814C31.5179 24.2338 31.2909 25.375 30.8499 26.4397C30.4088 27.5044 29.7624 28.4718 28.9476 29.2867L32.7553 33.0944Z" fill="#69B7FF"/>
<path d="M38.8241 39.1627C40.9359 37.0509 42.6111 34.5437 43.7541 31.7845C44.897 29.0252 45.4853 26.0679 45.4853 23.0812C45.4853 20.0946 44.897 17.1373 43.7541 14.378C42.6111 11.6188 40.9359 9.11163 38.8241 6.99978L34.6932 11.1307C36.2626 12.7 37.5075 14.5632 38.3568 16.6136C39.2061 18.6641 39.6433 20.8618 39.6433 23.0812C39.6433 25.3007 39.2061 27.4984 38.3568 29.5489C37.5075 31.5993 36.2626 33.4625 34.6932 35.0318L38.8241 39.1627Z" fill="#006ACB"/>
<path d="M12.7298 33.0944C11.4149 31.7795 10.3718 30.2184 9.66022 28.5004C8.94858 26.7824 8.58231 24.941 8.58231 23.0814C8.58231 21.2218 8.94858 19.3804 9.66022 17.6624C10.3718 15.9444 11.4149 14.3833 12.7298 13.0684L16.5376 16.8761C15.7227 17.691 15.0763 18.6584 14.6352 19.7231C14.1942 20.7878 13.9672 21.929 13.9672 23.0814C13.9672 24.2338 14.1942 25.375 14.6352 26.4397C15.0763 27.5044 15.7227 28.4718 16.5376 29.2867L12.7298 33.0944Z" fill="#69B7FF"/>
<path d="M6.66126 39.1627C4.54941 37.0509 2.8742 34.5437 1.73128 31.7845C0.588356 29.0252 9.91821e-05 26.0679 9.91821e-05 23.0812C9.91821e-05 20.0946 0.588356 17.1373 1.73128 14.378C2.8742 11.6188 4.54941 9.11163 6.66126 6.99978L10.7922 11.1307C9.22278 12.7 7.97789 14.5632 7.12855 16.6136C6.27921 18.6641 5.84206 20.8618 5.84206 23.0812C5.84206 25.3007 6.27921 27.4984 7.12855 29.5489C7.97789 31.5993 9.22278 33.4625 10.7922 35.0318L6.66126 39.1627Z" fill="#006ACB"/>
</svg>
