<svg width="18" height="14" viewBox="0 0 18 14" fill="none" xmlns="http://www.w3.org/2000/svg">
<path d="M15.5455 3.5H13.0909V0H1.63636C0.736364 0 0 0.7875 0 1.75V11.375H1.63636C1.63636 12.8275 2.73273 14 4.09091 14C5.44909 14 6.54545 12.8275 6.54545 11.375H11.4545C11.4545 12.8275 12.5509 14 13.9091 14C15.2673 14 16.3636 12.8275 16.3636 11.375H18V7L15.5455 3.5ZM4.09091 12.6875C3.41182 12.6875 2.86364 12.1012 2.86364 11.375C2.86364 10.6488 3.41182 10.0625 4.09091 10.0625C4.77 10.0625 5.31818 10.6488 5.31818 11.375C5.31818 12.1012 4.77 12.6875 4.09091 12.6875ZM15.1364 4.8125L16.74 7H13.0909V4.8125H15.1364ZM13.9091 12.6875C13.23 12.6875 12.6818 12.1012 12.6818 11.375C12.6818 10.6488 13.23 10.0625 13.9091 10.0625C14.5882 10.0625 15.1364 10.6488 15.1364 11.375C15.1364 12.1012 14.5882 12.6875 13.9091 12.6875Z" fill="white"/>
</svg>
